SplineFontDB: 3.0
FontName: Unlock-Regular
FullName: Unlock Regular
FamilyName: Unlock
Weight: Regular
Copyright: Copyright (c) 2011, Eduardo Tunni (http://www.tipo.net.ar), with Reserved Font Name "Unlock"
Version: 001.002
ItalicAngle: 0
UnderlinePosition: -50
UnderlineWidth: 50
Ascent: 800
Descent: 200
sfntRevision: 0x00010083
LayerCount: 2
Layer: 0 1 "Back"  1
Layer: 1 1 "Fore"  0
NeedsXUIDChange: 1
XUID: [1021 288 713564382 1840664]
FSType: 0
OS2Version: 2
OS2_WeightWidthSlopeOnly: 0
OS2_UseTypoMetrics: 1
CreationTime: 1322391161
ModificationTime: 1322420024
PfmFamily: 17
TTFWeight: 400
TTFWidth: 5
LineGap: 0
VLineGap: 0
Panose: 2 0 0 0 0 0 0 0 0 0
OS2TypoAscent: 873
OS2TypoAOffset: 0
OS2TypoDescent: -195
OS2TypoDOffset: 0
OS2TypoLinegap: 0
OS2WinAscent: 873
OS2WinAOffset: 0
OS2WinDescent: 195
OS2WinDOffset: 0
HheadAscent: 873
HheadAOffset: 0
HheadDescent: -195
HheadDOffset: 0
OS2SubXSize: 700
OS2SubYSize: 650
OS2SubXOff: 0
OS2SubYOff: 140
OS2SupXSize: 700
OS2SupYSize: 650
OS2SupXOff: 0
OS2SupYOff: 477
OS2StrikeYSize: 50
OS2StrikeYPos: 250
OS2Vendor: 'pyrs'
OS2CodePages: 20000001.00000000
OS2UnicodeRanges: 800000af.4000204b.00000000.00000000
Lookup: 258 0 0 "'kern' Horizontal Kerning in Latin lookup 0"  {"'kern' Horizontal Kerning in Latin lookup 0 subtable"  } ['kern' ('DFLT' <'dflt' > 'latn' <'dflt' > ) ]
MarkAttachClasses: 1
DEI: 91125
TtTable: prep
PUSHW_1
 511
SCANCTRL
PUSHB_1
 4
SCANTYPE
EndTTInstrs
LangName: 1033 "" "" "" "EduardoRodriguezTunni: Unlock Regular: 2011" "Unlock-Regular" "Version 1.002" "" "Unlock is a trademark of Eduardo Rodriguez Tunni." "Eduardo Rodriguez Tunni" "Eduardo Rodriguez Tunni" "" "http://www.tipo.net.ar" "http://www.tipo.net.ar" "This Font Software is licensed under the SIL Open Font License, Version 1.1. This license is available with a FAQ at: http://scripts.sil.org/OFL" "http://scripts.sil.org/OFL" 
GaspTable: 1 65535 15
Encoding: UnicodeBmp
UnicodeInterp: none
NameList: Adobe Glyph List
DisplaySize: -36
AntiAlias: 1

StartChar: a
Encoding: 97 97 1
Width: 618
Flags: HMW
HStem: -15 21G<204.5 299> 0 21G<455 578 455 455> 240 75<247 348 247 348 211 348> 490 75<260.5 346.5 260.5 348 234 346.5>
VStem: 35 176<76 223> 348 190<76 240 240 240 315 415 38 490 38 490>
LayerCount: 2
Fore
SplineSet
92 379 m 1,0,-1
 68 535 l 1,1,2
 181 565 181 565 295 565 c 0,3,4
 424.129032258 565 424.129032258 565 482.5 526.5 c 0,5,6
 506 511 506 511 522 482.5 c 128,-1,7
 538 454 538 454 538 415 c 2,8,-1
 538 38 l 1,9,-1
 578 38 l 1,10,-1
 578 0 l 1,11,-1
 455 0 l 1,12,-1
 415 76 l 1,13,-1
 402 76 l 1,14,15
 382 18 382 18 353 1.5 c 128,-1,16
 324 -15 324 -15 272.5 -15 c 128,-1,17
 221 -15 221 -15 203 -14 c 128,-1,18
 185 -13 185 -13 154 -9 c 128,-1,19
 123 -5 123 -5 106 5.5 c 128,-1,20
 89 16 89 16 70.5 33.5 c 0,21,22
 35 67.0810810811 35 67.0810810811 35 150 c 0,23,24
 35 253.984375 35 253.984375 100 287.5 c 0,25,26
 132 304 132 304 165.5 309.5 c 128,-1,27
 199 315 199 315 247 315 c 2,28,-1
 348 315 l 1,29,-1
 348 490 l 1,30,-1
 234 490 l 1,31,-1
 207 379 l 1,32,-1
 92 379 l 1,0,-1
348 76 m 1,33,-1
 348 240 l 1,34,-1
 211 240 l 1,35,-1
 211 76 l 1,36,-1
 348 76 l 1,33,-1
EndSplineSet
EndChar

StartChar: d
Encoding: 100 100 2
Width: 668
Flags: HMW
HStem: -15 21G<238 339> 0 21G<505 628 505 505> 475 75<250 346.5 264 346.5 264 397> 709 20G<357 588 588 588>
VStem: 60 190<236 299 299 424.5> 397 191<76 475 475 475 548 691 691 691>
LayerCount: 2
Fore
SplineSet
628 0 m 1,0,-1
 505 0 l 1,1,-1
 465 76 l 1,2,-1
 452 76 l 1,3,4
 423 18 423 18 392.5 1.5 c 128,-1,5
 362 -15 362 -15 298 -15 c 0,6,7
 211 -15 211 -15 190 -8 c 128,-1,8
 169 -1 169 -1 150 7.5 c 128,-1,9
 131 16 131 16 119.5 28.5 c 128,-1,10
 108 41 108 41 95.5 60 c 128,-1,11
 83 79 83 79 76 103.5 c 0,12,13
 60 159.5 60 159.5 60 236 c 2,14,-1
 60 299 l 2,15,16
 60 425.333333333 60 425.333333333 100 476 c 0,17,18
 115 495 115 495 127 507 c 128,-1,19
 139 519 139 519 162 527.5 c 128,-1,20
 185 536 185 536 200 540.5 c 128,-1,21
 215 545 215 545 243.5 547 c 0,22,23
 286.25 550 286.25 550 322.625 550 c 128,-1,24
 359 550 359 550 397 548 c 1,25,-1
 397 691 l 1,26,-1
 357 691 l 1,27,-1
 357 729 l 1,28,-1
 588 729 l 1,29,-1
 588 38 l 1,30,-1
 628 38 l 1,31,-1
 628 0 l 1,0,-1
250 475 m 1,32,-1
 250 76 l 1,33,-1
 397 76 l 1,34,-1
 397 475 l 1,35,-1
 250 475 l 1,32,-1
EndSplineSet
EndChar

StartChar: e
Encoding: 101 101 3
Width: 593
Flags: HMW
HStem: -15 75<250 340.5> 235 75<250 331 250 387> 490 75<250 387.5 261 387>
VStem: 60 190<184 235 310 314 314 439.5> 387 156<317.5 482.5 317.5 490 317.5 490>
LayerCount: 2
Fore
SplineSet
250 490 m 1,0,-1
 250 310 l 1,1,-1
 387 310 l 1,2,-1
 387 490 l 1,3,-1
 250 490 l 1,0,-1
250 60 m 1,4,-1
 375 60 l 1,5,-1
 401 171 l 1,6,-1
 508 171 l 1,7,-1
 531 15 l 1,8,9
 413 -15 413 -15 306 -15 c 0,10,11
 265 -15 265 -15 236 -12.5 c 128,-1,12
 207 -10 207 -10 171 1.5 c 128,-1,13
 135 13 135 13 113 33.5 c 128,-1,14
 91 54 91 54 75.5 92.5 c 128,-1,15
 60 131 60 131 60 184 c 2,16,-1
 60 314 l 2,17,18
 60 439.24137931 60 439.24137931 99.5 491 c 0,19,20
 114 510 114 510 126.5 522 c 128,-1,21
 139 534 139 534 161 542.5 c 128,-1,22
 183 551 183 551 198 555.5 c 128,-1,23
 213 560 213 560 241 562 c 0,24,25
 283 565 283 565 323 565 c 128,-1,26
 363 565 363 565 379 564.5 c 128,-1,27
 395 564 395 564 422 561 c 128,-1,28
 449 558 449 558 462.5 552 c 128,-1,29
 476 546 476 546 494.5 534 c 128,-1,30
 513 522 513 522 521.5 505 c 128,-1,31
 530 488 530 488 536.5 461.5 c 128,-1,32
 543 435 543 435 543 400 c 128,-1,33
 543 365 543 365 536.5 338.5 c 128,-1,34
 530 312 530 312 521.5 295 c 128,-1,35
 513 278 513 278 494.5 266 c 128,-1,36
 476 254 476 254 462.5 248 c 128,-1,37
 449 242 449 242 422 239 c 0,38,39
 386 235 386 235 331 235 c 2,40,-1
 250 235 l 1,41,-1
 250 60 l 1,4,-1
EndSplineSet
EndChar

StartChar: n
Encoding: 110 110 4
Width: 692
Flags: HMW
HStem: 0 21G<45 275 45 45 422 652 422 422> 530 20G<45 178 178 178> 545 20G<365 475.5>
VStem: 85 190<38 474 0 512 0 512> 422 190<38 415 38 474 38 474>
LayerCount: 2
Fore
SplineSet
652 0 m 1,0,-1
 422 0 l 1,1,-1
 422 474 l 1,2,-1
 275 474 l 1,3,-1
 275 0 l 1,4,-1
 45 0 l 1,5,-1
 45 38 l 1,6,-1
 85 38 l 1,7,-1
 85 512 l 1,8,-1
 45 512 l 1,9,-1
 45 550 l 1,10,-1
 178 550 l 1,11,-1
 213 474 l 1,12,-1
 226 474 l 1,13,14
 247 530 247 530 289.5 547.5 c 128,-1,15
 332 565 332 565 422 565 c 0,16,17
 512 565 512 565 562 531.5 c 128,-1,18
 612 498 612 498 612 415 c 2,19,-1
 612 38 l 1,20,-1
 652 38 l 1,21,-1
 652 0 l 1,0,-1
EndSplineSet
EndChar

StartChar: h
Encoding: 104 104 5
Width: 692
Flags: HMW
HStem: 0 21G<45 275 45 45 422 652 422 422> 535 20G<365 475.5> 709 20G<45 275 275 275>
VStem: 85 190<38 464 0 595 595 691 691 691> 422 190<38 405 38 464 38 464>
LayerCount: 2
Fore
SplineSet
652 0 m 1,0,-1
 422 0 l 1,1,-1
 422 464 l 1,2,-1
 275 464 l 1,3,-1
 275 0 l 1,4,-1
 45 0 l 1,5,-1
 45 38 l 1,6,-1
 85 38 l 1,7,-1
 85 691 l 1,8,-1
 45 691 l 1,9,-1
 45 729 l 1,10,-1
 275 729 l 1,11,-1
 275 595 l 1,12,-1
 234 580 l 2,13,14
 217 574 217 574 212.5 568.5 c 128,-1,15
 208 563 208 563 208 550 c 2,16,-1
 208 464 l 1,17,-1
 226 464 l 1,18,19
 247 520 247 520 289.5 537.5 c 128,-1,20
 332 555 332 555 422 555 c 0,21,22
 512 555 512 555 562 521.5 c 128,-1,23
 612 488 612 488 612 405 c 2,24,-1
 612 38 l 1,25,-1
 652 38 l 1,26,-1
 652 0 l 1,0,-1
EndSplineSet
EndChar

StartChar: i
Encoding: 105 105 6
Width: 355
Flags: HMW
HStem: 0 21G<45 315 45 45> 530 20G<45 275 275 275> 745 20G<140.5 226>
VStem: 85 190<38 512 512 512>
LayerCount: 2
Fore
SplineSet
315 0 m 1,0,-1
 45 0 l 1,1,-1
 45 38 l 1,2,-1
 85 38 l 1,3,-1
 85 512 l 1,4,-1
 45 512 l 1,5,-1
 45 550 l 1,6,-1
 275 550 l 1,7,-1
 275 38 l 1,8,-1
 315 38 l 1,9,-1
 315 0 l 1,0,-1
284 682 m 128,-1,11
 284 627 284 627 266 613 c 128,-1,12
 248 599 248 599 182 599 c 0,13,14
 116 599 116 599 95.5 613 c 128,-1,15
 75 627 75 627 75 682 c 128,-1,16
 75 737 75 737 95.5 751 c 128,-1,17
 116 765 116 765 182 765 c 0,18,19
 248 765 248 765 266 751 c 128,-1,10
 284 737 284 737 284 682 c 128,-1,11
EndSplineSet
EndChar

StartChar: l
Encoding: 108 108 7
Width: 355
Flags: HMW
HStem: 0 21G<45 315 45 45> 709 20G<45 275 275 275>
VStem: 85 190<38 691 691 691>
LayerCount: 2
Fore
SplineSet
45 729 m 1,0,-1
 275 729 l 1,1,-1
 275 38 l 1,2,-1
 315 38 l 1,3,-1
 315 0 l 1,4,-1
 45 0 l 1,5,-1
 45 38 l 1,6,-1
 85 38 l 1,7,-1
 85 691 l 1,8,-1
 45 691 l 1,9,-1
 45 729 l 1,0,-1
EndSplineSet
EndChar

StartChar: m
Encoding: 109 109 8
Width: 969
Flags: HMW
HStem: 0 21G<45 275 45 45 392 392 392 582 699 699 699 929> 530 20G<45 178 178 178> 545 20G<353 429.5 658.5 753>
VStem: 85 190<38 474 0 512 0 512> 392 190<0 474 0 474> 699 190<38 415 38 474 38 474>
CounterMasks: 1 1c
LayerCount: 2
Fore
SplineSet
275 474 m 1,0,-1
 275 0 l 1,1,-1
 45 0 l 1,2,-1
 45 38 l 1,3,-1
 85 38 l 1,4,-1
 85 512 l 1,5,-1
 45 512 l 1,6,-1
 45 550 l 1,7,-1
 178 550 l 1,8,-1
 213 474 l 1,9,-1
 226 474 l 1,10,11
 247 530 247 530 285.5 547.5 c 128,-1,12
 324 565 324 565 396 565 c 0,13,14
 505 565 505 565 544 514 c 1,15,16
 566 545 566 545 600.5 555 c 128,-1,17
 635 565 635 565 693 565 c 0,18,19
 790 565 790 565 839.5 531.5 c 128,-1,20
 889 498 889 498 889 415 c 2,21,-1
 889 38 l 1,22,-1
 929 38 l 1,23,-1
 929 0 l 1,24,-1
 699 0 l 1,25,-1
 699 474 l 1,26,-1
 582 474 l 1,27,-1
 582 0 l 1,28,-1
 392 0 l 1,29,-1
 392 474 l 1,30,-1
 275 474 l 1,0,-1
EndSplineSet
EndChar

StartChar: r
Encoding: 114 114 9
Width: 391
Flags: HMW
HStem: 0 38<45 85 275 356 45 85> 530 20G<45 166 166 166> 545 20G<281.5 318.5>
VStem: 85 190<38 315 38 512>
LayerCount: 2
Fore
SplineSet
45 550 m 1,0,-1
 166 550 l 1,1,-1
 186 474 l 1,2,-1
 194 474 l 1,3,4
 211 524 211 524 238.5 544.5 c 128,-1,5
 266 565 266 565 301.75 565 c 128,-1,6
 337.5 565 337.5 565 372 559 c 1,7,-1
 351 394 l 1,8,-1
 209 394 l 1,9,-1
 209 341 l 2,10,11
 209 329 209 329 214 323 c 0,12,13
 220.666666667 315 220.666666667 315 239 315 c 2,14,-1
 275 315 l 1,15,-1
 275 38 l 1,16,-1
 356 38 l 1,17,-1
 356 0 l 1,18,-1
 45 0 l 1,19,-1
 45 38 l 1,20,-1
 85 38 l 1,21,-1
 85 512 l 1,22,-1
 45 512 l 1,23,-1
 45 550 l 1,0,-1
EndSplineSet
EndChar

StartChar: o
Encoding: 111 111 10
Width: 647
Flags: HMW
HStem: -15 75<250 383> 490 75<264 397 250 403>
VStem: 60 190<236 314 314 439.5> 397 190<110.5 236 236 314 110.5 490>
LayerCount: 2
Fore
SplineSet
587 314 m 2,0,-1
 587 236 l 2,1,2
 587 109.666666667 587 109.666666667 547 59 c 0,3,4
 532 40 532 40 520 28 c 128,-1,5
 508 16 508 16 485 7.5 c 128,-1,6
 462 -1 462 -1 447 -5.5 c 128,-1,7
 432 -10 432 -10 403.5 -12 c 0,8,9
 310.678899083 -18.5137614679 310.678899083 -18.5137614679 255.339449541 -14.2568807339 c 128,-1,10
 200 -10 200 -10 186 -5.5 c 128,-1,11
 172 -1 172 -1 151.5 7.5 c 128,-1,12
 131 16 131 16 120 28 c 128,-1,13
 109 40 109 40 95.5 59 c 128,-1,14
 82 78 82 78 75.5 103 c 0,15,16
 60 162.615384615 60 162.615384615 60 236 c 2,17,-1
 60 314 l 2,18,19
 60 440.333333333 60 440.333333333 100 491 c 0,20,21
 115 510 115 510 127 522 c 128,-1,22
 139 534 139 534 162 542.5 c 128,-1,23
 185 551 185 551 200 555.5 c 128,-1,24
 215 560 215 560 243.5 562 c 0,25,26
 286.25 565 286.25 565 326.125 565 c 128,-1,27
 366 565 366 565 380.5 564.5 c 128,-1,28
 395 564 395 564 421 562 c 128,-1,29
 447 560 447 560 461 555.5 c 128,-1,30
 475 551 475 551 495.5 542.5 c 128,-1,31
 516 534 516 534 527 522 c 128,-1,32
 538 510 538 510 551.5 491 c 128,-1,33
 565 472 565 472 571.5 447 c 0,34,35
 587 387.384615385 587 387.384615385 587 314 c 2,0,-1
397 60 m 1,36,-1
 397 490 l 1,37,-1
 250 490 l 1,38,-1
 250 60 l 1,39,-1
 397 60 l 1,36,-1
EndSplineSet
EndChar

StartChar: u
Encoding: 117 117 11
Width: 692
Flags: HMW
HStem: -15 21G<263 363> 0 21G<524 647 524 524> 530 20G<40 270 270 270 417 607 607 607>
VStem: 80 190<150 512 512 512> 417 190<76 550 38 550>
LayerCount: 2
Fore
SplineSet
80 150 m 2,0,-1
 80 512 l 1,1,-1
 40 512 l 1,2,-1
 40 550 l 1,3,-1
 270 550 l 1,4,-1
 270 76 l 1,5,-1
 417 76 l 1,6,-1
 417 550 l 1,7,-1
 607 550 l 1,8,-1
 607 38 l 1,9,-1
 647 38 l 1,10,-1
 647 0 l 1,11,-1
 524 0 l 1,12,-1
 484 76 l 1,13,-1
 471 76 l 1,14,15
 471 23 471 23 432.5 4 c 128,-1,16
 394 -15 394 -15 316 -15 c 0,17,18
 213.25 -15 213.25 -15 177.5 -2 c 0,19,20
 126.829787234 16.4255319149 126.829787234 16.4255319149 107.5 45 c 0,21,22
 80 85.652173913 80 85.652173913 80 150 c 2,0,-1
EndSplineSet
EndChar

StartChar: b
Encoding: 98 98 12
Width: 672
Flags: HMW
HStem: -15 75<305 411.5> 0 21G<85 113 85 85> 535 20G<343 439.5> 709 20G<45 275 275 275>
VStem: 85 190<60 464 595 691 691 691> 422 190<110.5 236 236 304 110.5 464>
LayerCount: 2
Fore
SplineSet
208 464 m 1,0,-1
 226 464 l 1,1,2
 247 519 247 519 282.5 537 c 128,-1,3
 318 555 318 555 361.5 555 c 128,-1,4
 405 555 405 555 418.5 554.5 c 128,-1,5
 432 554 432 554 456.5 552 c 128,-1,6
 481 550 481 550 494 545.5 c 128,-1,7
 507 541 507 541 526 532.5 c 128,-1,8
 545 524 545 524 555.5 512 c 128,-1,9
 566 500 566 500 578.5 481 c 128,-1,10
 591 462 591 462 597 437 c 0,11,12
 612 374.5 612 374.5 612 304 c 2,13,-1
 612 236 l 2,14,15
 612 138.44 612 138.44 588.5 90.5 c 0,16,17
 576 65 576 65 563.5 46.5 c 128,-1,18
 551 28 551 28 528 16.5 c 128,-1,19
 505 5 505 5 489 -1.5 c 128,-1,20
 473 -8 473 -8 442.5 -11 c 0,21,22
 321.042786823 -22.9466111321 321.042786823 -22.9466111321 226.5 0.5 c 0,23,24
 164 16 164 16 128 35 c 1,25,-1
 113 0 l 1,26,-1
 85 0 l 1,27,-1
 85 691 l 1,28,-1
 45 691 l 1,29,-1
 45 729 l 1,30,-1
 275 729 l 1,31,-1
 275 595 l 1,32,-1
 234 580 l 2,33,34
 217 574 217 574 212.5 568.5 c 128,-1,35
 208 563 208 563 208 550 c 2,36,-1
 208 464 l 1,0,-1
422 60 m 1,37,-1
 422 464 l 1,38,-1
 275 464 l 1,39,-1
 275 60 l 1,40,-1
 422 60 l 1,37,-1
EndSplineSet
EndChar

StartChar: q
Encoding: 113 113 13
Width: 667
Flags: HMW
HStem: -180 21G<397 627 397 397> -5 21G<232.5 329> 490 75<250 367 260.5 367 260.5 397> 530 20G<559 587 587 587>
VStem: 60 190<246 314 314 439.5> 397 190<-142 -45 -45 -45 86 490 490 490>
LayerCount: 2
Fore
SplineSet
627 -180 m 1,0,-1
 397 -180 l 1,1,-1
 397 -45 l 1,2,-1
 438 -30 l 2,3,4
 455 -24 455 -24 459.5 -18.5 c 128,-1,5
 464 -13 464 -13 464 0 c 2,6,-1
 464 86 l 1,7,-1
 446 86 l 1,8,9
 425 31 425 31 389.5 13 c 128,-1,10
 354 -5 354 -5 310.5 -5 c 128,-1,11
 267 -5 267 -5 253.5 -4.5 c 128,-1,12
 240 -4 240 -4 215.5 -2 c 128,-1,13
 191 0 191 0 178 4.5 c 128,-1,14
 165 9 165 9 146 17.5 c 128,-1,15
 127 26 127 26 116.5 38 c 128,-1,16
 106 50 106 50 93.5 69 c 128,-1,17
 81 88 81 88 75 113 c 0,18,19
 60 175.5 60 175.5 60 246 c 2,20,-1
 60 314 l 2,21,22
 60 411.56 60 411.56 83.5 459.5 c 0,23,24
 96 485 96 485 108.5 503.5 c 128,-1,25
 121 522 121 522 144 533.5 c 128,-1,26
 167 545 167 545 183 551.5 c 128,-1,27
 199 558 199 558 229.5 561 c 0,28,29
 270.166666667 565 270.166666667 565 326.583333333 565 c 128,-1,30
 383 565 383 565 445.5 549.5 c 128,-1,31
 508 534 508 534 544 515 c 1,32,-1
 559 550 l 1,33,-1
 587 550 l 1,34,-1
 587 -142 l 1,35,-1
 627 -142 l 1,36,-1
 627 -180 l 1,0,-1
250 490 m 1,37,-1
 250 86 l 1,38,-1
 397 86 l 1,39,-1
 397 490 l 1,40,-1
 250 490 l 1,37,-1
EndSplineSet
EndChar

StartChar: p
Encoding: 112 112 14
Width: 668
Flags: HMW
HStem: -180 21G<80 325 80 80> 0 75<321 404> 530 20G<40 163 163 163> 545 20G<331.5 432.5>
VStem: 80 191<-142 2 -142 75 75 474> 418 190<125.5 251 251 314 125.5 474>
LayerCount: 2
Fore
SplineSet
40 550 m 1,0,-1
 163 550 l 1,1,-1
 203 474 l 1,2,-1
 216 474 l 1,3,4
 237 531 237 531 271 548 c 128,-1,5
 305 565 305 565 373 565 c 0,6,7
 449.714285714 565 449.714285714 565 469.357142857 559.5 c 128,-1,8
 489 554 489 554 507 548.5 c 128,-1,9
 525 543 525 543 535.5 533 c 128,-1,10
 546 523 546 523 559 510 c 128,-1,11
 572 497 572 497 580 478 c 128,-1,12
 588 459 588 459 595 435.5 c 0,13,14
 608 391.857142857 608 391.857142857 608 314 c 2,15,-1
 608 251 l 2,16,17
 608 124.666666667 608 124.666666667 568 74 c 0,18,19
 553 55 553 55 541 43 c 128,-1,20
 529 31 529 31 506 22.5 c 128,-1,21
 483 14 483 14 468 9.5 c 128,-1,22
 453 5 453 5 424.5 3 c 0,23,24
 381.75 0 381.75 0 336.375 0 c 128,-1,25
 291 0 291 0 271 2 c 1,26,-1
 271 -142 l 1,27,-1
 325 -142 l 1,28,-1
 325 -180 l 1,29,-1
 80 -180 l 1,30,-1
 80 512 l 1,31,-1
 40 512 l 1,32,-1
 40 550 l 1,0,-1
418 75 m 1,33,-1
 418 474 l 1,34,-1
 271 474 l 1,35,-1
 271 75 l 1,36,-1
 418 75 l 1,33,-1
EndSplineSet
EndChar

StartChar: t
Encoding: 116 116 16
Width: 390
Flags: HMW
HStem: -15 21G<198 275> 502 48<40 80 40 90 270 375> 648 20G<198 270 270 270>
VStem: 80 190<150 502 50 502>
LayerCount: 2
Fore
SplineSet
40 550 m 1,0,-1
 90 550 l 1,1,-1
 198 668 l 1,2,-1
 270 668 l 1,3,-1
 270 550 l 1,4,-1
 375 550 l 1,5,-1
 375 502 l 1,6,-1
 270 502 l 1,7,-1
 270 50 l 1,8,-1
 327 50 l 1,9,-1
 327 149 l 1,10,-1
 375 149 l 1,11,-1
 375 76 l 2,12,13
 375 23 375 23 339.5 4 c 128,-1,14
 304 -15 304 -15 232 -15 c 0,15,16
 204 -15 204 -15 189 -14 c 128,-1,17
 174 -13 174 -13 150 -4.5 c 128,-1,18
 126 4 126 4 113 20.5 c 0,19,20
 80 62.3846153846 80 62.3846153846 80 150 c 2,21,-1
 80 502 l 1,22,-1
 40 502 l 1,23,-1
 40 550 l 1,0,-1
EndSplineSet
EndChar

StartChar: period
Encoding: 46 46 17
Width: 308
Flags: HMW
HStem: -10 21G<118.5 194.5> 168 20G<119 195>
VStem: 60 188<44 133>
LayerCount: 2
Fore
SplineSet
231.5 170.5 m 128,-1,1
 248 153 248 153 248 88.5 c 128,-1,2
 248 24 248 24 231 7 c 128,-1,3
 214 -10 214 -10 155 -10 c 128,-1,4
 96 -10 96 -10 78 7 c 128,-1,5
 60 24 60 24 60 89 c 128,-1,6
 60 154 60 154 78.5 171 c 128,-1,7
 97 188 97 188 156 188 c 128,-1,0
 215 188 215 188 231.5 170.5 c 128,-1,1
EndSplineSet
EndChar

StartChar: j
Encoding: 106 106 18
Width: 360
Flags: HMW
HStem: -195 21G<84 157.5> 530 20G<50 280 280 280> 745 20G<145.5 231>
VStem: 90 190<49 512 512 512>
LayerCount: 2
Fore
SplineSet
98 -195 m 0,0,1
 51 -195 51 -195 14 -187 c 1,2,-1
 34 -30 l 1,3,-1
 156 -30 l 1,4,-1
 156 23 l 2,5,6
 156 35 156 35 151 41 c 0,7,8
 144.333333333 49 144.333333333 49 126 49 c 2,9,-1
 90 49 l 1,10,-1
 90 512 l 1,11,-1
 50 512 l 1,12,-1
 50 550 l 1,13,-1
 280 550 l 1,14,-1
 280 20 l 2,15,16
 280 -92 280 -92 234.5 -143.5 c 128,-1,17
 189 -195 189 -195 98 -195 c 0,0,1
289 682 m 128,-1,19
 289 627 289 627 271 613 c 128,-1,20
 253 599 253 599 187 599 c 128,-1,21
 121 599 121 599 100.5 613 c 128,-1,22
 80 627 80 627 80 682 c 128,-1,23
 80 737 80 737 100.5 751 c 128,-1,24
 121 765 121 765 187 765 c 128,-1,25
 253 765 253 765 271 751 c 128,-1,18
 289 737 289 737 289 682 c 128,-1,19
EndSplineSet
EndChar

StartChar: g
Encoding: 103 103 19
Width: 589
Flags: HMW
HStem: -195 21G<162.5 384> 10 81<161 175 100 403 161 161> 215 82<230 266 230 230> 484 81<210 304.5 202.5 347 210 210> 580 20G<505 549 549 549>
VStem: 37 173<366 387 387 476> 347 172<297 366 366 483 290.5 484 290.5 484>
LayerCount: 2
Fore
SplineSet
28 -115.5 m 128,-1,1
 20 -89 20 -89 20 -30.5 c 128,-1,2
 20 28 20 28 45 59.5 c 128,-1,3
 70 91 70 91 100 91 c 2,4,-1
 175 91 l 1,5,-1
 175 104 l 1,6,7
 124 114 124 114 124 167 c 2,8,-1
 124 229 l 1,9,10
 37 258 37 258 37 366 c 2,11,-1
 37 387 l 2,12,13
 37 476.5 37 476.5 69 512.5 c 0,14,15
 81 526 81 526 91 534.5 c 128,-1,16
 101 543 101 543 119.5 549 c 128,-1,17
 138 555 138 555 150.5 558 c 128,-1,18
 163 561 163 561 186 563 c 128,-1,19
 209 565 209 565 222.5 565 c 2,20,-1
 262 565 l 2,21,22
 331 565 331 565 363.5 548 c 128,-1,23
 396 531 396 531 396 484 c 1,24,-1
 409 484 l 1,25,-1
 419 525 l 2,26,27
 430 570 430 570 446 585 c 128,-1,28
 462 600 462 600 505 600 c 2,29,-1
 549 600 l 1,30,-1
 549 511 l 1,31,-1
 538 511 l 2,32,33
 519 511 519 511 519 483 c 2,34,-1
 519 366 l 2,35,36
 519 310.380952381 519 310.380952381 492.5 270 c 0,37,38
 475.56 244.186666667 475.56 244.186666667 422.5 226.5 c 0,39,40
 388 215 388 215 266 215 c 2,41,-1
 230 215 l 1,42,-1
 230 191 l 2,43,44
 230 160 230 160 237 147.5 c 128,-1,45
 244 135 244 135 264 135 c 2,46,-1
 413 135 l 2,47,48
 464 135 464 135 505.5 99.5 c 128,-1,49
 547 64 547 64 547 -18 c 0,50,51
 547 -122 547 -122 492 -158.5 c 128,-1,52
 437 -195 437 -195 276 -195 c 0,53,54
 190 -195 190 -195 140 -188.5 c 128,-1,55
 90 -182 90 -182 63 -162 c 128,-1,0
 36 -142 36 -142 28 -115.5 c 128,-1,1
347 297 m 1,56,-1
 347 484 l 1,57,-1
 210 484 l 1,58,-1
 210 297 l 1,59,-1
 347 297 l 1,56,-1
403 10 m 1,60,-1
 161 10 l 1,61,-1
 161 -95 l 1,62,-1
 403 -95 l 1,63,-1
 403 10 l 1,60,-1
EndSplineSet
EndChar

StartChar: k
Encoding: 107 107 20
Width: 642
Flags: HMW
HStem: 0 21G<40 270 40 40 391 391 391 632> 539 20G<405.5 463> 709 20G<40 297 297 297>
VStem: 80 172<359 543 359 691 359 691> 80 190<38 268> 80 217<580 691 691 691>
LayerCount: 2
Fore
SplineSet
270 0 m 1,0,-1
 40 0 l 1,1,-1
 40 38 l 1,2,-1
 80 38 l 1,3,-1
 80 691 l 1,4,-1
 40 691 l 1,5,-1
 40 729 l 1,6,-1
 297 729 l 1,7,-1
 297 580 l 1,8,-1
 278 573 l 2,9,10
 261 567 261 567 256.5 561.5 c 128,-1,11
 252 556 252 556 252 543 c 2,12,-1
 252 359 l 1,13,-1
 270 359 l 1,14,15
 303 471 303 471 343 515 c 128,-1,16
 383 559 383 559 450 559 c 128,-1,17
 517 559 517 559 554 551 c 1,18,-1
 534 394 l 1,19,-1
 412 394 l 1,20,-1
 412 341 l 2,21,22
 412 329 412 329 417 323 c 0,23,24
 423.666666667 315 423.666666667 315 442 315 c 2,25,-1
 527 315 l 1,26,-1
 593 38 l 1,27,-1
 632 38 l 1,28,-1
 632 0 l 1,29,-1
 391 0 l 1,30,-1
 343 268 l 1,31,-1
 270 268 l 1,32,-1
 270 0 l 1,0,-1
EndSplineSet
EndChar

StartChar: v
Encoding: 118 118 21
Width: 598
Flags: HMW
HStem: 0 21G<132 453 132 132> 530 20G<20 261 261 261 382 563 563 563>
LayerCount: 2
Fore
SplineSet
382 550 m 1,0,-1
 563 550 l 1,1,-1
 453 0 l 1,2,-1
 132 0 l 1,3,-1
 59 512 l 1,4,-1
 20 512 l 1,5,-1
 20 550 l 1,6,-1
 261 550 l 1,7,-1
 305 84 l 1,8,-1
 382 84 l 1,9,-1
 382 550 l 1,0,-1
EndSplineSet
EndChar

StartChar: f
Encoding: 102 102 22
Width: 360
Flags: HMW
HStem: 0 21G<45 345 45 45> 444 48<45 85 45 85 275 275 275 352> 724 20G<205 283>
VStem: 85 190<38 444 38 444 38 540 38 616>
LayerCount: 2
Fore
SplineSet
45 444 m 1,0,-1
 45 492 l 1,1,-1
 85 492 l 1,2,-1
 85 540 l 2,3,4
 85 652 85 652 128.5 698 c 128,-1,5
 172 744 172 744 267 744 c 0,6,7
 309 744 309 744 369 731 c 1,8,-1
 352 578 l 1,9,-1
 200 578 l 1,10,-1
 200 518 l 2,11,12
 200 506 200 506 205 500 c 0,13,14
 211.666666667 492 211.666666667 492 230 492 c 2,15,-1
 352 492 l 1,16,-1
 352 444 l 1,17,-1
 275 444 l 1,18,-1
 275 38 l 1,19,-1
 345 38 l 1,20,-1
 345 0 l 1,21,-1
 45 0 l 1,22,-1
 45 38 l 1,23,-1
 85 38 l 1,24,-1
 85 444 l 1,25,-1
 45 444 l 1,0,-1
EndSplineSet
EndChar

StartChar: w
Encoding: 119 119 23
Width: 855
Flags: HMW
HStem: 0 84<305 382 305 427 562 639> 530 20G<20 261 261 261 382 518 518 518 639 820 820 820>
LayerCount: 2
Fore
SplineSet
484 158 m 1,0,-1
 458 158 l 1,1,-1
 427 0 l 1,2,-1
 132 0 l 1,3,-1
 59 512 l 1,4,-1
 20 512 l 1,5,-1
 20 550 l 1,6,-1
 261 550 l 1,7,-1
 305 84 l 1,8,-1
 382 84 l 1,9,-1
 382 550 l 1,10,-1
 518 550 l 1,11,-1
 562 84 l 1,12,-1
 639 84 l 1,13,-1
 639 550 l 1,14,-1
 820 550 l 1,15,-1
 710 0 l 1,16,-1
 484 0 l 1,17,-1
 484 158 l 1,0,-1
EndSplineSet
EndChar

StartChar: y
Encoding: 121 121 24
Width: 598
Flags: HMW
HStem: -195 21G<189 265> 530 20G<20 261 261 261 382 563 563 563>
LayerCount: 2
Fore
SplineSet
382 550 m 1,0,-1
 563 550 l 1,1,-1
 458 31 l 2,2,3
 435 -81 435 -81 367.5 -138 c 128,-1,4
 300 -195 300 -195 203 -195 c 0,5,6
 135 -195 135 -195 98 -187 c 1,7,-1
 118 -30 l 1,8,-1
 240 -30 l 1,9,-1
 240 23 l 2,10,11
 240 35 240 35 235 41 c 0,12,13
 228.333333333 49 228.333333333 49 210 49 c 2,14,-1
 125 49 l 1,15,-1
 59 512 l 1,16,-1
 20 512 l 1,17,-1
 20 550 l 1,18,-1
 261 550 l 1,19,-1
 309 49 l 1,20,-1
 382 49 l 1,21,-1
 382 550 l 1,0,-1
EndSplineSet
EndChar

StartChar: x
Encoding: 120 120 25
Width: 603
Flags: HMW
HStem: 0 21G<35 221 35 35 332 332 332 578> 530 20G<25 271 271 271 382 568 568 568>
LayerCount: 2
Fore
SplineSet
221 0 m 1,0,-1
 35 0 l 1,1,-1
 137 280 l 1,2,-1
 64 512 l 1,3,-1
 25 512 l 1,4,-1
 25 550 l 1,5,-1
 271 550 l 1,6,-1
 326 324 l 1,7,-1
 382 324 l 1,8,-1
 382 550 l 1,9,-1
 568 550 l 1,10,-1
 465 270 l 1,11,-1
 539 38 l 1,12,-1
 578 38 l 1,13,-1
 578 0 l 1,14,-1
 332 0 l 1,15,-1
 277 226 l 1,16,-1
 221 226 l 1,17,-1
 221 0 l 1,0,-1
EndSplineSet
EndChar

StartChar: z
Encoding: 122 122 26
Width: 564
Flags: HMW
HStem: 0 73<265 371 265 518> 477 73<196 302 196 196>
LayerCount: 2
Fore
SplineSet
371 73 m 1,0,-1
 405 186 l 1,1,-1
 507 186 l 1,2,-1
 518 0 l 1,3,-1
 15 0 l 1,4,-1
 302 477 l 1,5,-1
 196 477 l 1,6,-1
 162 364 l 1,7,-1
 60 364 l 1,8,-1
 49 550 l 1,9,-1
 488 550 l 1,10,-1
 515 492 l 1,11,-1
 265 73 l 1,12,-1
 371 73 l 1,0,-1
EndSplineSet
EndChar

StartChar: s
Encoding: 115 115 27
Width: 570
Flags: HMW
HStem: -15 75<246.5 330 216 344.5> 490 75<252 332.5 237.5 356 252 252>
LayerCount: 2
Fore
SplineSet
50 15 m 1,0,-1
 74 171 l 1,1,-1
 189 171 l 1,2,-1
 216 60 l 1,3,-1
 330 60 l 1,4,-1
 330 132 l 1,5,-1
 143 261 l 2,6,7
 100 290 100 290 81 323.5 c 128,-1,8
 62 357 62 357 62 405.5 c 128,-1,9
 62 454 62 454 75.5 482 c 128,-1,10
 89 510 89 510 109 526 c 128,-1,11
 129 542 129 542 162.5 551 c 0,12,13
 214.611111111 565 214.611111111 565 310.305555556 565 c 128,-1,14
 406 565 406 565 509 535 c 1,15,-1
 485 379 l 1,16,-1
 380 379 l 1,17,-1
 356 490 l 1,18,-1
 252 490 l 1,19,-1
 252 418 l 1,20,-1
 439 289 l 2,21,22
 482 260 482 260 501 226.5 c 128,-1,23
 520 193 520 193 520 144.5 c 128,-1,24
 520 96 520 96 506.5 68 c 128,-1,25
 493 40 493 40 473 24 c 128,-1,26
 453 8 453 8 419.5 -1 c 0,27,28
 367.388888889 -15 367.388888889 -15 265.194444444 -15 c 128,-1,29
 163 -15 163 -15 50 15 c 1,0,-1
EndSplineSet
EndChar

StartChar: A
Encoding: 65 65 28
Width: 602
Flags: HMW
HStem: 0 21G<-25 627 -25 -25 196 337 337 337> 150 55<196 318 196 323 196 318> 615 20G<41 493 493 493>
LayerCount: 2
Fore
SplineSet
41 597 m 1,0,-1
 41 635 l 1,1,-1
 493 635 l 1,2,-1
 585 38 l 1,3,-1
 627 38 l 1,4,-1
 627 0 l 1,5,-1
 -25 0 l 1,6,-1
 -25 38 l 1,7,-1
 16 38 l 1,8,-1
 103 597 l 1,9,-1
 41 597 l 1,0,-1
196 575 m 1,10,-1
 196 205 l 1,11,-1
 318 205 l 1,12,-1
 285 575 l 1,13,-1
 196 575 l 1,10,-1
196 0 m 1,14,-1
 337 0 l 1,15,-1
 323 150 l 1,16,-1
 196 150 l 1,17,-1
 196 0 l 1,14,-1
EndSplineSet
EndChar

StartChar: O
Encoding: 79 79 29
Width: 620
Flags: HMW
HStem: -15 72<235 375.5> 579 71<245 385 235 397.5>
VStem: 20 215<262 374 374 512> 385 215<123.5 262 262 374 123.5 579>
LayerCount: 2
Fore
SplineSet
600 374 m 2,0,-1
 600 262 l 2,1,2
 600 180.8125 600 180.8125 581 115.5 c 0,3,4
 569.307692308 75.3076923077 569.307692308 75.3076923077 526.5 32.5 c 0,5,6
 507.47826087 13.4782608696 507.47826087 13.4782608696 446.5 -5 c 0,7,8
 399.430594901 -19.2634560907 399.430594901 -19.2634560907 247 -14.5 c 0,9,10
 181.344827586 -12.4482758621 181.344827586 -12.4482758621 162.672413793 -6.22413793103 c 128,-1,11
 144 0 144 0 121.5 9.5 c 128,-1,12
 99 19 99 19 86.5 32.5 c 128,-1,13
 74 46 74 46 59.5 67 c 128,-1,14
 45 88 45 88 37.5 115.5 c 0,15,16
 20 179.666666667 20 179.666666667 20 262 c 2,17,-1
 20 374 l 2,18,19
 20 454 20 454 38 508.5 c 128,-1,20
 56 563 56 563 79 590.5 c 128,-1,21
 102 618 102 618 150 632 c 128,-1,22
 198 646 198 646 230 648 c 128,-1,23
 262 650 262 650 309.5 650 c 128,-1,24
 357 650 357 650 373 649.5 c 128,-1,25
 389 649 389 649 417.5 647 c 128,-1,26
 446 645 446 645 461 640 c 128,-1,27
 476 635 476 635 498.5 625.5 c 128,-1,28
 521 616 521 616 533.5 602.5 c 128,-1,29
 546 589 546 589 560.5 568 c 128,-1,30
 575 547 575 547 582.5 520 c 0,31,32
 600 457 600 457 600 374 c 2,0,-1
385 57 m 1,33,-1
 385 579 l 1,34,-1
 235 579 l 1,35,-1
 235 57 l 1,36,-1
 385 57 l 1,33,-1
EndSplineSet
EndChar

StartChar: I
Encoding: 73 73 30
Width: 381
Flags: HMW
HStem: 0 21G<39 342 39 39> 615 20G<39 342 342 342>
VStem: 83 215<38 597 38 597>
LayerCount: 2
Fore
SplineSet
342 597 m 1,0,-1
 298 597 l 1,1,-1
 298 38 l 1,2,-1
 342 38 l 1,3,-1
 342 0 l 1,4,-1
 39 0 l 1,5,-1
 39 38 l 1,6,-1
 83 38 l 1,7,-1
 83 597 l 1,8,-1
 39 597 l 1,9,-1
 39 635 l 1,10,-1
 342 635 l 1,11,-1
 342 597 l 1,0,-1
EndSplineSet
EndChar

StartChar: N
Encoding: 78 78 31
Width: 727
Flags: HMW
HStem: 0 21G<30 221 30 30 322 663 322 322> 615 20G<30 415 415 415 516 707 707 707>
LayerCount: 2
Fore
SplineSet
30 597 m 1,0,-1
 30 635 l 1,1,-1
 415 635 l 1,2,-1
 556 60 l 1,3,-1
 597 60 l 1,4,-1
 516 635 l 1,5,-1
 707 635 l 1,6,-1
 707 597 l 1,7,-1
 663 597 l 1,8,-1
 663 0 l 1,9,-1
 322 0 l 1,10,-1
 193 575 l 1,11,-1
 152 575 l 1,12,-1
 221 0 l 1,13,-1
 30 0 l 1,14,-1
 30 38 l 1,15,-1
 74 38 l 1,16,-1
 74 597 l 1,17,-1
 30 597 l 1,0,-1
EndSplineSet
EndChar

StartChar: H
Encoding: 72 72 32
Width: 728
Flags: HMW
HStem: 0 21G<30 289 30 30 439 439 439 698> 284 55<289 439 289 439> 615 20G<30 289 289 289 439 698 698 698>
VStem: 74 215<38 284 339 597 597 597> 439 215<38 284 284 284 339 597 38 635 38 635>
LayerCount: 2
Fore
SplineSet
289 0 m 1,0,-1
 30 0 l 1,1,-1
 30 38 l 1,2,-1
 74 38 l 1,3,-1
 74 597 l 1,4,-1
 30 597 l 1,5,-1
 30 635 l 1,6,-1
 289 635 l 1,7,-1
 289 339 l 1,8,-1
 439 339 l 1,9,-1
 439 635 l 1,10,-1
 698 635 l 1,11,-1
 698 597 l 1,12,-1
 654 597 l 1,13,-1
 654 38 l 1,14,-1
 698 38 l 1,15,-1
 698 0 l 1,16,-1
 439 0 l 1,17,-1
 439 284 l 1,18,-1
 289 284 l 1,19,-1
 289 0 l 1,0,-1
EndSplineSet
EndChar

StartChar: P
Encoding: 80 80 33
Width: 669
Flags: HMW
HStem: 0 21G<30 413 30 30> 143 72<289 379 289 439> 565 70<289 382 382 439 289 289>
VStem: 74 215<38 143 215 565> 439 215<267 512 267 565 267 565>
LayerCount: 2
Fore
SplineSet
439 215 m 1,0,-1
 439 565 l 1,1,-1
 289 565 l 1,2,-1
 289 215 l 1,3,-1
 439 215 l 1,0,-1
413 0 m 1,4,-1
 30 0 l 1,5,-1
 30 38 l 1,6,-1
 74 38 l 1,7,-1
 74 597 l 1,8,-1
 30 597 l 1,9,-1
 30 635 l 1,10,-1
 382 635 l 2,11,12
 485.333333333 635 485.333333333 635 508.666666667 628 c 128,-1,13
 532 621 532 621 554 613 c 128,-1,14
 576 605 576 605 588.5 592.5 c 128,-1,15
 601 580 601 580 615.5 561.5 c 128,-1,16
 630 543 630 543 637 519 c 128,-1,17
 644 495 644 495 649 462.5 c 128,-1,18
 654 430 654 430 654 390 c 128,-1,19
 654 350 654 350 649 317 c 128,-1,20
 644 284 644 284 636.5 259.5 c 128,-1,21
 629 235 629 235 614.5 216.5 c 128,-1,22
 600 198 600 198 587.5 185.5 c 128,-1,23
 575 173 575 173 553 165 c 128,-1,24
 531 157 531 157 515.5 152.5 c 128,-1,25
 500 148 500 148 472 146 c 0,26,27
 430 143 430 143 379 143 c 2,28,-1
 289 143 l 1,29,-1
 289 38 l 1,30,-1
 413 38 l 1,31,-1
 413 0 l 1,4,-1
EndSplineSet
EndChar

StartChar: T
Encoding: 84 84 34
Width: 579
Flags: HMW
HStem: 0 38<98 182 397 481 98 182> 565 70<147 204 147 147 375 432 375 375>
VStem: 182 215<38 397 38 397>
LayerCount: 2
Fore
SplineSet
574 635 m 1,0,-1
 574 427 l 1,1,-1
 457 427 l 1,2,-1
 432 565 l 1,3,-1
 375 565 l 1,4,-1
 397 397 l 1,5,-1
 397 38 l 1,6,-1
 481 38 l 1,7,-1
 481 0 l 1,8,-1
 98 0 l 1,9,-1
 98 38 l 1,10,-1
 182 38 l 1,11,-1
 182 397 l 1,12,-1
 204 565 l 1,13,-1
 147 565 l 1,14,-1
 122 421 l 1,15,-1
 5 421 l 1,16,-1
 5 635 l 1,17,-1
 574 635 l 1,0,-1
EndSplineSet
EndChar

StartChar: R
Encoding: 82 82 35
Width: 676
Flags: HMW
HStem: 0 38<30 74 30 289 30 74 633 686> 210 72<289 439 289 439> 565 70<289 382 382 439 289 289>
VStem: 74 215<38 210 282 565> 439 215<0 540.5 210 540.5 382 540.5 382 565 382 565>
LayerCount: 2
Fore
SplineSet
289 0 m 1,0,-1
 30 0 l 1,1,-1
 30 38 l 1,2,-1
 74 38 l 1,3,-1
 74 597 l 1,4,-1
 30 597 l 1,5,-1
 30 635 l 1,6,-1
 382 635 l 2,7,8
 482 635 482 635 507 630 c 128,-1,9
 532 625 532 625 554 618.5 c 128,-1,10
 576 612 576 612 588.5 602.5 c 128,-1,11
 601 593 601 593 615 579 c 128,-1,12
 629 565 629 565 636.5 546.5 c 0,13,14
 654 503.333333333 654 503.333333333 654 447 c 0,15,16
 654 356 654 356 616 315 c 128,-1,17
 578 274 578 274 507 263 c 1,18,-1
 507 240 l 1,19,-1
 552 240 l 2,20,21
 586 240 586 240 599 227.5 c 128,-1,22
 612 215 612 215 616 180 c 2,23,-1
 633 38 l 1,24,-1
 686 38 l 1,25,-1
 686 0 l 1,26,-1
 439 0 l 1,27,-1
 439 210 l 1,28,-1
 289 210 l 1,29,-1
 289 0 l 1,0,-1
439 282 m 1,30,-1
 439 565 l 1,31,-1
 289 565 l 1,32,-1
 289 282 l 1,33,-1
 439 282 l 1,30,-1
EndSplineSet
EndChar

StartChar: E
Encoding: 69 69 36
Width: 571
Flags: HMW
HStem: 0 21G<30 30 30 536> 284 55<289 480 289 480> 615 20G<30 536 536 536>
VStem: 74 215<60 284 339 575>
LayerCount: 2
Fore
SplineSet
30 0 m 1,0,-1
 30 38 l 1,1,-1
 74 38 l 1,2,-1
 74 597 l 1,3,-1
 30 597 l 1,4,-1
 30 635 l 1,5,-1
 536 635 l 1,6,-1
 536 421 l 1,7,-1
 419 421 l 1,8,-1
 378 575 l 1,9,-1
 289 575 l 1,10,-1
 289 339 l 1,11,-1
 480 339 l 1,12,-1
 480 284 l 1,13,-1
 289 284 l 1,14,-1
 289 60 l 1,15,-1
 378 60 l 1,16,-1
 419 214 l 1,17,-1
 536 214 l 1,18,-1
 536 0 l 1,19,-1
 30 0 l 1,0,-1
EndSplineSet
EndChar

StartChar: F
Encoding: 70 70 37
Width: 546
Flags: HMW
HStem: 0 38<30 74 289 413 30 74> 284 55<289 470 289 470> 615 20G<30 526 526 526>
VStem: 74 215<38 284 38 339 339 575>
LayerCount: 2
Fore
SplineSet
470 284 m 1,0,-1
 289 284 l 1,1,-1
 289 38 l 1,2,-1
 413 38 l 1,3,-1
 413 0 l 1,4,-1
 30 0 l 1,5,-1
 30 38 l 1,6,-1
 74 38 l 1,7,-1
 74 597 l 1,8,-1
 30 597 l 1,9,-1
 30 635 l 1,10,-1
 526 635 l 1,11,-1
 526 421 l 1,12,-1
 409 421 l 1,13,-1
 368 575 l 1,14,-1
 289 575 l 1,15,-1
 289 339 l 1,16,-1
 470 339 l 1,17,-1
 470 284 l 1,0,-1
EndSplineSet
EndChar

StartChar: L
Encoding: 76 76 38
Width: 531
Flags: HMW
HStem: 0 21G<30 526 30 30> 615 20G<30 333 333 333>
VStem: 74 215<60 597 60 597 60 597>
LayerCount: 2
Fore
SplineSet
526 214 m 1,0,-1
 526 0 l 1,1,-1
 30 0 l 1,2,-1
 30 38 l 1,3,-1
 74 38 l 1,4,-1
 74 597 l 1,5,-1
 30 597 l 1,6,-1
 30 635 l 1,7,-1
 333 635 l 1,8,-1
 333 597 l 1,9,-1
 289 597 l 1,10,-1
 289 60 l 1,11,-1
 368 60 l 1,12,-1
 409 214 l 1,13,-1
 526 214 l 1,0,-1
EndSplineSet
EndChar

StartChar: D
Encoding: 68 68 39
Width: 674
Flags: HMW
HStem: 0 60<289 379> 579 56<289 379 379 439 289 289>
VStem: 74 215<60 579 60 597 60 597> 439 215<139 277 277 359 139 579>
LayerCount: 2
Fore
SplineSet
379 0 m 2,0,-1
 30 0 l 1,1,-1
 30 38 l 1,2,-1
 74 38 l 1,3,-1
 74 597 l 1,4,-1
 30 597 l 1,5,-1
 30 635 l 1,6,-1
 379 635 l 2,7,8
 485 635 485 635 507.5 627.5 c 128,-1,9
 530 620 530 620 552.5 610.5 c 128,-1,10
 575 601 575 601 587.5 587.5 c 128,-1,11
 600 574 600 574 614.5 553 c 128,-1,12
 629 532 629 532 636.5 505 c 0,13,14
 654 442 654 442 654 359 c 2,15,-1
 654 277 l 2,16,17
 654 140.206896552 654 140.206896552 614.5 83 c 0,18,19
 600 62 600 62 587.5 48 c 128,-1,20
 575 34 575 34 553 24.5 c 128,-1,21
 531 15 531 15 515.5 10.5 c 128,-1,22
 500 6 500 6 472 3.5 c 0,23,24
 432.8 9.99200722163e-16 432.8 9.99200722163e-16 379 0 c 2,0,-1
439 60 m 1,25,-1
 439 579 l 1,26,-1
 289 579 l 1,27,-1
 289 60 l 1,28,-1
 439 60 l 1,25,-1
EndSplineSet
EndChar

StartChar: G
Encoding: 71 71 40
Width: 620
Flags: HMW
HStem: -15 21G<216 318> 0 21G<475 590 475 475> 579 71<235 375 235 235>
VStem: 20 215<262 374 374 512> 375 215<76 255 255 255 389 408 0 579>
LayerCount: 2
Fore
SplineSet
377.5 3 m 128,-1,1
 342 -15 342 -15 298.5 -15 c 128,-1,2
 255 -15 255 -15 239.5 -14.5 c 128,-1,3
 224 -14 224 -14 196.5 -12 c 128,-1,4
 169 -10 169 -10 154.5 -5 c 128,-1,5
 140 0 140 0 118 9.5 c 128,-1,6
 96 19 96 19 84.5 32.5 c 128,-1,7
 73 46 73 46 58.5 67 c 128,-1,8
 44 88 44 88 37 115.5 c 0,9,10
 20 182.285714286 20 182.285714286 20 262 c 2,11,-1
 20 374 l 2,12,13
 20 453.4 20 453.4 38.5 520 c 0,14,15
 49.8288288288 560.783783784 49.8288288288 560.783783784 90 602.5 c 0,16,17
 108.940397351 622.168874172 108.940397351 622.168874172 166 640 c 0,18,19
 198 650 198 650 277 650 c 128,-1,20
 356 650 356 650 387.5 647.5 c 128,-1,21
 419 645 419 645 454.5 637 c 128,-1,22
 490 629 490 629 512 613 c 128,-1,23
 534 597 534 597 553 570.5 c 0,24,25
 590 518.894736842 590 518.894736842 590 408 c 2,26,-1
 590 389 l 1,27,-1
 375 389 l 1,28,-1
 375 579 l 1,29,-1
 235 579 l 1,30,-1
 235 76 l 1,31,-1
 375 76 l 1,32,-1
 375 255 l 1,33,-1
 305 255 l 1,34,-1
 305 310 l 1,35,-1
 590 310 l 1,36,-1
 590 0 l 1,37,-1
 475 0 l 1,38,-1
 446 76 l 1,39,-1
 435 76 l 1,40,0
 413 21 413 21 377.5 3 c 128,-1,1
EndSplineSet
EndChar

StartChar: U
Encoding: 85 85 41
Width: 648
Flags: HMW
HStem: -15 72<274 403> 615 20G<10 274 274 274 424 638 638 638>
VStem: 54 220<234 597 597 597> 424 170<109.5 234 234 597>
LayerCount: 2
Fore
SplineSet
274 57 m 1,0,-1
 424 57 l 1,1,-1
 424 635 l 1,2,-1
 638 635 l 1,3,-1
 638 597 l 1,4,-1
 594 597 l 1,5,-1
 594 234 l 2,6,7
 594 164.692307692 594 164.692307692 582.5 121.346153846 c 128,-1,8
 571 78 571 78 557 59 c 128,-1,9
 543 40 543 40 531.5 27.5 c 128,-1,10
 520 15 520 15 498.5 6.5 c 128,-1,11
 477 -2 477 -2 463 -6 c 128,-1,12
 449 -10 449 -10 422 -12 c 0,13,14
 168.508356546 -30.7771587744 168.508356546 -30.7771587744 108.5 39 c 0,15,16
 87 64 87 64 70.5 113 c 128,-1,17
 54 162 54 162 54 234 c 2,18,-1
 54 597 l 1,19,-1
 10 597 l 1,20,-1
 10 635 l 1,21,-1
 274 635 l 1,22,-1
 274 57 l 1,0,-1
EndSplineSet
EndChar

StartChar: B
Encoding: 66 66 42
Width: 654
Flags: HMW
HStem: 0 60<289 364> 290 55<289 424 289 424> 579 56<289 289 289 354 354 424>
VStem: 74 215<60 290 345 579> 424 205<60 554 290 554 425.5 554 425.5 579 425.5 579>
LayerCount: 2
Fore
SplineSet
639 162 m 0,0,1
 639 101.130434783 639 101.130434783 610.5 59 c 0,2,3
 592.594936709 32.5316455696 592.594936709 32.5316455696 534 13 c 0,4,5
 502.105263158 2.36842105263 502.105263158 2.36842105263 453.552631579 1.18421052632 c 128,-1,6
 405 0 405 0 364 0 c 2,7,-1
 30 0 l 1,8,-1
 30 38 l 1,9,-1
 74 38 l 1,10,-1
 74 597 l 1,11,-1
 30 597 l 1,12,-1
 30 635 l 1,13,-1
 354 635 l 2,14,15
 485 635 485 635 524 622 c 0,16,17
 582.594936709 602.46835443 582.594936709 602.46835443 600.5 576 c 0,18,19
 629 533.869565217 629 533.869565217 629 473 c 0,20,21
 629 350 629 350 485 322 c 1,22,-1
 485 314 l 1,23,24
 639 286 639 286 639 162 c 0,0,1
289 579 m 1,25,-1
 289 345 l 1,26,-1
 424 345 l 1,27,-1
 424 579 l 1,28,-1
 289 579 l 1,25,-1
424 60 m 1,29,-1
 424 290 l 1,30,-1
 289 290 l 1,31,-1
 289 60 l 1,32,-1
 424 60 l 1,29,-1
EndSplineSet
EndChar

StartChar: C
Encoding: 67 67 43
Width: 590
Flags: HMW
HStem: -15 72<235 365 235 372> 579 71<235 365 235 235>
VStem: 20 215<262 374 374 512> 365 215<115 227 227 239 115 239 389 408 115 579>
LayerCount: 2
Fore
SplineSet
365 57 m 1,0,-1
 365 239 l 1,1,-1
 580 239 l 1,2,-1
 580 227 l 2,3,4
 580 114.268292683 580 114.268292683 541.5 64.5 c 0,5,6
 521 38 521 38 498 22 c 128,-1,7
 475 6 475 6 438 -2 c 0,8,9
 377.875 -15 377.875 -15 316.4375 -15 c 128,-1,10
 255 -15 255 -15 239.5 -14.5 c 128,-1,11
 224 -14 224 -14 196.5 -12 c 128,-1,12
 169 -10 169 -10 154.5 -5 c 128,-1,13
 140 0 140 0 118 9.5 c 128,-1,14
 96 19 96 19 84.5 32.5 c 128,-1,15
 73 46 73 46 58.5 67 c 128,-1,16
 44 88 44 88 37 115.5 c 0,17,18
 20 182.285714286 20 182.285714286 20 262 c 2,19,-1
 20 374 l 2,20,21
 20 453.4 20 453.4 38.5 520 c 0,22,23
 49.8288288288 560.783783784 49.8288288288 560.783783784 90 602.5 c 0,24,25
 108.362218371 621.568457539 108.362218371 621.568457539 165.5 640 c 0,26,27
 196.5 650 196.5 650 275.25 650 c 128,-1,28
 354 650 354 650 384.5 647.5 c 128,-1,29
 415 645 415 645 449 637 c 128,-1,30
 483 629 483 629 504.5 613 c 128,-1,31
 526 597 526 597 544.5 570.5 c 0,32,33
 580 519.648648649 580 519.648648649 580 408 c 2,34,-1
 580 389 l 1,35,-1
 365 389 l 1,36,-1
 365 579 l 1,37,-1
 235 579 l 1,38,-1
 235 57 l 1,39,-1
 365 57 l 1,0,-1
EndSplineSet
EndChar

StartChar: Q
Encoding: 81 81 44
Width: 620
Flags: HMW
HStem: -165 21G<252 531 252 252> -15 21G<164 220 400 456> 579 71<245 385 235 397.5>
VStem: 20 215<257 374 374 512> 385 215<153 257 257 374 153 579>
LayerCount: 2
Fore
SplineSet
531 -165 m 1,0,-1
 252 -165 l 1,1,-1
 220 -15 l 1,2,3
 20 -15 20 -15 20 257 c 2,4,-1
 20 374 l 2,5,6
 20 454 20 454 38 508.5 c 128,-1,7
 56 563 56 563 79 590.5 c 128,-1,8
 102 618 102 618 150 632 c 128,-1,9
 198 646 198 646 230 648 c 128,-1,10
 262 650 262 650 309.5 650 c 128,-1,11
 357 650 357 650 373 649.5 c 128,-1,12
 389 649 389 649 417.5 647 c 128,-1,13
 446 645 446 645 461 640 c 128,-1,14
 476 635 476 635 498.5 625.5 c 128,-1,15
 521 616 521 616 533.5 602.5 c 128,-1,16
 546 589 546 589 560.5 568 c 128,-1,17
 575 547 575 547 582.5 520 c 0,18,19
 600 457 600 457 600 374 c 2,20,-1
 600 257 l 2,21,22
 600 -15 600 -15 400 -15 c 1,23,-1
 424 -127 l 1,24,-1
 531 -127 l 1,25,-1
 531 -165 l 1,0,-1
385 54 m 1,26,-1
 385 579 l 1,27,-1
 235 579 l 1,28,-1
 235 54 l 1,29,-1
 385 54 l 1,26,-1
EndSplineSet
EndChar

StartChar: acute
Encoding: 180 180 45
Width: 311
Flags: HMW
HStem: 586 21G<84 84> 760 20G<262 262>
LayerCount: 2
Fore
SplineSet
51 678 m 1,0,-1
 262 780 l 1,1,-1
 311 645 l 1,2,-1
 84 586 l 1,3,-1
 51 678 l 1,0,-1
EndSplineSet
EndChar

StartChar: aacute
Encoding: 225 225 46
Width: 618
Flags: HMW
HStem: -15 21G<204.5 299> 0 21G<455 578 455 455> 240 75<247 348 247 348 211 348> 490 75<260.5 346.5 260.5 348 234 346.5> 586 21G<240 240> 760 20G<418 418>
VStem: 35 176<76 223> 348 190<76 240 240 240 315 415 38 490 38 490>
LayerCount: 2
Fore
SplineSet
92 379 m 1,0,-1
 68 535 l 1,1,2
 181 565 181 565 295 565 c 0,3,4
 424.129032258 565 424.129032258 565 482.5 526.5 c 0,5,6
 506 511 506 511 522 482.5 c 128,-1,7
 538 454 538 454 538 415 c 2,8,-1
 538 38 l 1,9,-1
 578 38 l 1,10,-1
 578 0 l 1,11,-1
 455 0 l 1,12,-1
 415 76 l 1,13,-1
 402 76 l 1,14,15
 382 18 382 18 353 1.5 c 128,-1,16
 324 -15 324 -15 272.5 -15 c 128,-1,17
 221 -15 221 -15 203 -14 c 128,-1,18
 185 -13 185 -13 154 -9 c 128,-1,19
 123 -5 123 -5 106 5.5 c 128,-1,20
 89 16 89 16 70.5 33.5 c 0,21,22
 35 67.0810810811 35 67.0810810811 35 150 c 0,23,24
 35 253.984375 35 253.984375 100 287.5 c 0,25,26
 132 304 132 304 165.5 309.5 c 128,-1,27
 199 315 199 315 247 315 c 2,28,-1
 348 315 l 1,29,-1
 348 490 l 1,30,-1
 234 490 l 1,31,-1
 207 379 l 1,32,-1
 92 379 l 1,0,-1
348 76 m 1,33,-1
 348 240 l 1,34,-1
 211 240 l 1,35,-1
 211 76 l 1,36,-1
 348 76 l 1,33,-1
207 678 m 1,37,-1
 418 780 l 1,38,-1
 467 645 l 1,39,-1
 240 586 l 1,40,-1
 207 678 l 1,37,-1
EndSplineSet
EndChar

StartChar: eacute
Encoding: 233 233 47
Width: 593
Flags: HMW
HStem: -15 75<250 340.5> 235 75<250 331 250 387> 490 75<250 387.5 261 387> 586 21G<235 235> 760 20G<413 413>
VStem: 60 190<184 235 310 314 314 439.5> 387 156<317.5 482.5 317.5 490 317.5 490>
LayerCount: 2
Fore
SplineSet
250 490 m 1,0,-1
 250 310 l 1,1,-1
 387 310 l 1,2,-1
 387 490 l 1,3,-1
 250 490 l 1,0,-1
250 60 m 1,4,-1
 375 60 l 1,5,-1
 401 171 l 1,6,-1
 508 171 l 1,7,-1
 531 15 l 1,8,9
 413 -15 413 -15 306 -15 c 0,10,11
 265 -15 265 -15 236 -12.5 c 128,-1,12
 207 -10 207 -10 171 1.5 c 128,-1,13
 135 13 135 13 113 33.5 c 128,-1,14
 91 54 91 54 75.5 92.5 c 128,-1,15
 60 131 60 131 60 184 c 2,16,-1
 60 314 l 2,17,18
 60 439.24137931 60 439.24137931 99.5 491 c 0,19,20
 114 510 114 510 126.5 522 c 128,-1,21
 139 534 139 534 161 542.5 c 128,-1,22
 183 551 183 551 198 555.5 c 128,-1,23
 213 560 213 560 241 562 c 0,24,25
 283 565 283 565 323 565 c 128,-1,26
 363 565 363 565 379 564.5 c 128,-1,27
 395 564 395 564 422 561 c 128,-1,28
 449 558 449 558 462.5 552 c 128,-1,29
 476 546 476 546 494.5 534 c 128,-1,30
 513 522 513 522 521.5 505 c 128,-1,31
 530 488 530 488 536.5 461.5 c 128,-1,32
 543 435 543 435 543 400 c 128,-1,33
 543 365 543 365 536.5 338.5 c 128,-1,34
 530 312 530 312 521.5 295 c 128,-1,35
 513 278 513 278 494.5 266 c 128,-1,36
 476 254 476 254 462.5 248 c 128,-1,37
 449 242 449 242 422 239 c 0,38,39
 386 235 386 235 331 235 c 2,40,-1
 250 235 l 1,41,-1
 250 60 l 1,4,-1
202 678 m 1,42,-1
 413 780 l 1,43,-1
 462 645 l 1,44,-1
 235 586 l 1,45,-1
 202 678 l 1,42,-1
EndSplineSet
EndChar

StartChar: oacute
Encoding: 243 243 48
Width: 647
Flags: HMW
HStem: -15 75<250 383> 490 75<264 397 250 403> 586 21G<272 272> 760 20G<450 450>
VStem: 60 190<236 314 314 439.5> 397 190<110.5 236 236 314 110.5 490>
LayerCount: 2
Fore
SplineSet
587 314 m 2,0,-1
 587 236 l 2,1,2
 587 109.666666667 587 109.666666667 547 59 c 0,3,4
 532 40 532 40 520 28 c 128,-1,5
 508 16 508 16 485 7.5 c 128,-1,6
 462 -1 462 -1 447 -5.5 c 128,-1,7
 432 -10 432 -10 403.5 -12 c 0,8,9
 310.678899083 -18.5137614679 310.678899083 -18.5137614679 255.339449541 -14.2568807339 c 128,-1,10
 200 -10 200 -10 186 -5.5 c 128,-1,11
 172 -1 172 -1 151.5 7.5 c 128,-1,12
 131 16 131 16 120 28 c 128,-1,13
 109 40 109 40 95.5 59 c 128,-1,14
 82 78 82 78 75.5 103 c 0,15,16
 60 162.615384615 60 162.615384615 60 236 c 2,17,-1
 60 314 l 2,18,19
 60 440.333333333 60 440.333333333 100 491 c 0,20,21
 115 510 115 510 127 522 c 128,-1,22
 139 534 139 534 162 542.5 c 128,-1,23
 185 551 185 551 200 555.5 c 128,-1,24
 215 560 215 560 243.5 562 c 0,25,26
 286.25 565 286.25 565 326.125 565 c 128,-1,27
 366 565 366 565 380.5 564.5 c 128,-1,28
 395 564 395 564 421 562 c 128,-1,29
 447 560 447 560 461 555.5 c 128,-1,30
 475 551 475 551 495.5 542.5 c 128,-1,31
 516 534 516 534 527 522 c 128,-1,32
 538 510 538 510 551.5 491 c 128,-1,33
 565 472 565 472 571.5 447 c 0,34,35
 587 387.384615385 587 387.384615385 587 314 c 2,0,-1
397 60 m 1,36,-1
 397 490 l 1,37,-1
 250 490 l 1,38,-1
 250 60 l 1,39,-1
 397 60 l 1,36,-1
239 678 m 1,40,-1
 450 780 l 1,41,-1
 499 645 l 1,42,-1
 272 586 l 1,43,-1
 239 678 l 1,40,-1
EndSplineSet
EndChar

StartChar: uacute
Encoding: 250 250 49
Width: 692
Flags: HMW
HStem: -15 21G<263 363> 0 21G<524 647 524 524> 530 20G<40 270 270 270 417 607 607 607> 586 21G<274 274> 760 20G<452 452>
VStem: 80 190<150 512 512 512> 417 190<76 550 38 550>
LayerCount: 2
Fore
SplineSet
80 150 m 2,0,-1
 80 512 l 1,1,-1
 40 512 l 1,2,-1
 40 550 l 1,3,-1
 270 550 l 1,4,-1
 270 76 l 1,5,-1
 417 76 l 1,6,-1
 417 550 l 1,7,-1
 607 550 l 1,8,-1
 607 38 l 1,9,-1
 647 38 l 1,10,-1
 647 0 l 1,11,-1
 524 0 l 1,12,-1
 484 76 l 1,13,-1
 471 76 l 1,14,15
 471 23 471 23 432.5 4 c 128,-1,16
 394 -15 394 -15 316 -15 c 0,17,18
 213.25 -15 213.25 -15 177.5 -2 c 0,19,20
 126.829787234 16.4255319149 126.829787234 16.4255319149 107.5 45 c 0,21,22
 80 85.652173913 80 85.652173913 80 150 c 2,0,-1
241 678 m 1,23,-1
 452 780 l 1,24,-1
 501 645 l 1,25,-1
 274 586 l 1,26,-1
 241 678 l 1,23,-1
EndSplineSet
EndChar

StartChar: dotlessi
Encoding: 305 305 50
Width: 355
Flags: HMW
HStem: 0 21G<45 315 45 45> 530 20G<45 275 275 275>
VStem: 85 190<38 512 512 512>
LayerCount: 2
Fore
SplineSet
315 0 m 1,0,-1
 45 0 l 1,1,-1
 45 38 l 1,2,-1
 85 38 l 1,3,-1
 85 512 l 1,4,-1
 45 512 l 1,5,-1
 45 550 l 1,6,-1
 275 550 l 1,7,-1
 275 38 l 1,8,-1
 315 38 l 1,9,-1
 315 0 l 1,0,-1
EndSplineSet
EndChar

StartChar: iacute
Encoding: 237 237 51
Width: 355
Flags: HMW
HStem: 0 21G<45 315 45 45> 530 20G<45 275 275 275> 586 21G<80 80> 760 20G<258 258>
VStem: 85 190<38 512 512 512>
LayerCount: 2
Fore
SplineSet
315 0 m 1,0,-1
 45 0 l 1,1,-1
 45 38 l 1,2,-1
 85 38 l 1,3,-1
 85 512 l 1,4,-1
 45 512 l 1,5,-1
 45 550 l 1,6,-1
 275 550 l 1,7,-1
 275 38 l 1,8,-1
 315 38 l 1,9,-1
 315 0 l 1,0,-1
47 678 m 1,10,-1
 258 780 l 1,11,-1
 307 645 l 1,12,-1
 80 586 l 1,13,-1
 47 678 l 1,10,-1
EndSplineSet
EndChar

StartChar: Y
Encoding: 89 89 52
Width: 626
Flags: HMW
HStem: 0 38<92 176 451 535 92 176> 615 20G<0 266 266 266 405 626 626 626>
LayerCount: 2
Fore
SplineSet
626 597 m 1,0,-1
 584 597 l 1,1,-1
 451 146 l 1,2,-1
 451 38 l 1,3,-1
 535 38 l 1,4,-1
 535 0 l 1,5,-1
 92 0 l 1,6,-1
 92 38 l 1,7,-1
 176 38 l 1,8,-1
 176 146 l 1,9,-1
 43 597 l 1,10,-1
 0 597 l 1,11,-1
 0 635 l 1,12,-1
 266 635 l 1,13,-1
 348 300 l 1,14,-1
 405 300 l 1,15,-1
 405 635 l 1,16,-1
 626 635 l 1,17,-1
 626 597 l 1,0,-1
EndSplineSet
EndChar

StartChar: M
Encoding: 77 77 53
Width: 845
Flags: HMW
HStem: 0 21G<30 233 30 30 322 452 322 322 541 815 541 541> 615 20G<30 404 404 404 547 815 815 815>
LayerCount: 2
Fore
SplineSet
30 597 m 1,0,-1
 30 635 l 1,1,-1
 404 635 l 1,2,-1
 459 388 l 1,3,-1
 478 388 l 1,4,-1
 547 635 l 1,5,-1
 815 635 l 1,6,-1
 815 597 l 1,7,-1
 771 597 l 1,8,-1
 771 38 l 1,9,-1
 815 38 l 1,10,-1
 815 0 l 1,11,-1
 541 0 l 1,12,-1
 652 575 l 1,13,-1
 611 575 l 1,14,-1
 452 0 l 1,15,-1
 322 0 l 1,16,-1
 193 575 l 1,17,-1
 152 575 l 1,18,-1
 233 0 l 1,19,-1
 30 0 l 1,20,-1
 30 38 l 1,21,-1
 74 38 l 1,22,-1
 74 597 l 1,23,-1
 30 597 l 1,0,-1
EndSplineSet
EndChar

StartChar: Z
Encoding: 90 90 54
Width: 557
Flags: HMW
HStem: 0 84<269 397 269 557> 552 84<195 302 195 195>
LayerCount: 2
Fore
SplineSet
397 84 m 1,0,-1
 426 215 l 1,1,-1
 544 215 l 1,2,-1
 557 0 l 1,3,-1
 -5 0 l 1,4,-1
 302 552 l 1,5,-1
 195 552 l 1,6,-1
 165 421 l 1,7,-1
 47 421 l 1,8,-1
 35 636 l 1,9,-1
 522 636 l 1,10,-1
 554 569 l 1,11,-1
 269 84 l 1,12,-1
 397 84 l 1,0,-1
EndSplineSet
EndChar

StartChar: Aacute
Encoding: 193 193 55
Width: 582
Flags: HMW
HStem: 0 21G<-35 617 -35 -35 186 327 327 327> 150 55<186 308 186 313 186 308> 615 20G<31 483 483 483> 671 21G<189 189> 845 20G<367 367>
LayerCount: 2
Fore
SplineSet
31 597 m 1,0,-1
 31 635 l 1,1,-1
 483 635 l 1,2,-1
 575 38 l 1,3,-1
 617 38 l 1,4,-1
 617 0 l 1,5,-1
 -35 0 l 1,6,-1
 -35 38 l 1,7,-1
 6 38 l 1,8,-1
 93 597 l 1,9,-1
 31 597 l 1,0,-1
186 575 m 1,10,-1
 186 205 l 1,11,-1
 308 205 l 1,12,-1
 275 575 l 1,13,-1
 186 575 l 1,10,-1
186 0 m 1,14,-1
 327 0 l 1,15,-1
 313 150 l 1,16,-1
 186 150 l 1,17,-1
 186 0 l 1,14,-1
156 763 m 1,18,-1
 367 865 l 1,19,-1
 416 730 l 1,20,-1
 189 671 l 1,21,-1
 156 763 l 1,18,-1
EndSplineSet
EndChar

StartChar: Eacute
Encoding: 201 201 56
Width: 591
Flags: HMW
HStem: 0 21G<30 30 30 536> 284 55<289 480 289 480> 615 20G<30 536 536 536> 671 21G<194 194> 845 20G<372 372>
VStem: 74 215<60 284 339 575>
LayerCount: 2
Fore
SplineSet
30 0 m 1,0,-1
 30 38 l 1,1,-1
 74 38 l 1,2,-1
 74 597 l 1,3,-1
 30 597 l 1,4,-1
 30 635 l 1,5,-1
 536 635 l 1,6,-1
 536 421 l 1,7,-1
 419 421 l 1,8,-1
 378 575 l 1,9,-1
 289 575 l 1,10,-1
 289 339 l 1,11,-1
 480 339 l 1,12,-1
 480 284 l 1,13,-1
 289 284 l 1,14,-1
 289 60 l 1,15,-1
 378 60 l 1,16,-1
 419 214 l 1,17,-1
 536 214 l 1,18,-1
 536 0 l 1,19,-1
 30 0 l 1,0,-1
161 763 m 1,20,-1
 372 865 l 1,21,-1
 421 730 l 1,22,-1
 194 671 l 1,23,-1
 161 763 l 1,20,-1
EndSplineSet
EndChar

StartChar: Iacute
Encoding: 205 205 57
Width: 423
Flags: HMW
HStem: 0 21G<60 363 60 60> 615 20G<60 363 363 363> 671 21G<110 110> 845 20G<288 288>
VStem: 104 215<38 597 38 597>
LayerCount: 2
Fore
SplineSet
363 597 m 1,0,-1
 319 597 l 1,1,-1
 319 38 l 1,2,-1
 363 38 l 1,3,-1
 363 0 l 1,4,-1
 60 0 l 1,5,-1
 60 38 l 1,6,-1
 104 38 l 1,7,-1
 104 597 l 1,8,-1
 60 597 l 1,9,-1
 60 635 l 1,10,-1
 363 635 l 1,11,-1
 363 597 l 1,0,-1
77 763 m 1,12,-1
 288 865 l 1,13,-1
 337 730 l 1,14,-1
 110 671 l 1,15,-1
 77 763 l 1,12,-1
EndSplineSet
EndChar

StartChar: Uacute
Encoding: 218 218 58
Width: 648
Flags: HMW
HStem: -15 72<274 403> 615 20G<10 274 274 274 424 638 638 638> 671 21G<242 242> 845 20G<420 420>
VStem: 54 220<234 597 597 597> 424 170<109.5 234 234 597>
LayerCount: 2
Fore
SplineSet
274 57 m 1,0,-1
 424 57 l 1,1,-1
 424 635 l 1,2,-1
 638 635 l 1,3,-1
 638 597 l 1,4,-1
 594 597 l 1,5,-1
 594 234 l 2,6,7
 594 164.692307692 594 164.692307692 582.5 121.346153846 c 128,-1,8
 571 78 571 78 557 59 c 128,-1,9
 543 40 543 40 531.5 27.5 c 128,-1,10
 520 15 520 15 498.5 6.5 c 128,-1,11
 477 -2 477 -2 463 -6 c 128,-1,12
 449 -10 449 -10 422 -12 c 0,13,14
 168.508356546 -30.7771587744 168.508356546 -30.7771587744 108.5 39 c 0,15,16
 87 64 87 64 70.5 113 c 128,-1,17
 54 162 54 162 54 234 c 2,18,-1
 54 597 l 1,19,-1
 10 597 l 1,20,-1
 10 635 l 1,21,-1
 274 635 l 1,22,-1
 274 57 l 1,0,-1
209 763 m 1,23,-1
 420 865 l 1,24,-1
 469 730 l 1,25,-1
 242 671 l 1,26,-1
 209 763 l 1,23,-1
EndSplineSet
EndChar

StartChar: V
Encoding: 86 86 59
Width: 652
Flags: HMW
HStem: 0 21G<134 496 134 134> 615 20G<0 290 290 290 431 652 652 652>
LayerCount: 2
Fore
SplineSet
652 635 m 1,0,-1
 652 597 l 1,1,-1
 610 597 l 1,2,-1
 496 0 l 1,3,-1
 134 0 l 1,4,-1
 42 597 l 1,5,-1
 0 597 l 1,6,-1
 0 635 l 1,7,-1
 290 635 l 1,8,-1
 342 60 l 1,9,-1
 431 60 l 1,10,-1
 431 635 l 1,11,-1
 652 635 l 1,0,-1
EndSplineSet
EndChar

StartChar: S
Encoding: 83 83 60
Width: 555
Flags: HMW
HStem: -15 86<232.5 312 201 340.5> 565 86<252 327.5 223 352 252 252>
LayerCount: 2
Fore
SplineSet
15 19 m 1,0,-1
 42 199 l 1,1,-1
 170 199 l 1,2,-1
 201 71 l 1,3,-1
 312 71 l 1,4,-1
 312 146 l 1,5,-1
 115 292 l 2,6,7
 71 324 71 324 50 368 c 128,-1,8
 29 412 29 412 29 464.5 c 128,-1,9
 29 517 29 517 38.5 545.5 c 128,-1,10
 48 574 48 574 67 592.5 c 128,-1,11
 86 611 86 611 108 623 c 128,-1,12
 130 635 130 635 162.5 641 c 0,13,14
 216.666666667 651 216.666666667 651 310.833333333 651 c 128,-1,15
 405 651 405 651 522 617 c 1,16,-1
 495 437 l 1,17,-1
 379 437 l 1,18,-1
 352 565 l 1,19,-1
 252 565 l 1,20,-1
 252 490 l 1,21,-1
 449 344 l 2,22,23
 493 312 493 312 514 268 c 128,-1,24
 535 224 535 224 535 168 c 128,-1,25
 535 112 535 112 520 79.5 c 128,-1,26
 505 47 505 47 482.5 29 c 128,-1,27
 460 11 460 11 423 1 c 0,28,29
 363.8 -15 363.8 -15 252.9 -15 c 128,-1,30
 142 -15 142 -15 15 19 c 1,0,-1
EndSplineSet
EndChar

StartChar: K
Encoding: 75 75 61
Width: 671
Flags: HMW
HStem: 0 38<30 74 30 289 30 74 609 666> 597 38<30 74 30 289 604 604 604 656>
VStem: 74 215<38 284 0 339 339 597 597 597>
LayerCount: 2
Fore
SplineSet
460 322 m 1,0,-1
 460 299 l 1,1,-1
 505 299 l 2,2,3
 539 299 539 299 550.5 288 c 128,-1,4
 562 277 562 277 569 242 c 2,5,-1
 609 38 l 1,6,-1
 666 38 l 1,7,-1
 666 0 l 1,8,-1
 419 0 l 1,9,-1
 359 284 l 1,10,-1
 289 284 l 1,11,-1
 289 0 l 1,12,-1
 30 0 l 1,13,-1
 30 38 l 1,14,-1
 74 38 l 1,15,-1
 74 597 l 1,16,-1
 30 597 l 1,17,-1
 30 635 l 1,18,-1
 289 635 l 1,19,-1
 289 339 l 1,20,-1
 362 339 l 1,21,-1
 419 635 l 1,22,-1
 656 635 l 1,23,-1
 656 597 l 1,24,-1
 604 597 l 1,25,-1
 540 385 l 2,26,27
 524 329 524 329 460 322 c 1,0,-1
EndSplineSet
EndChar

StartChar: J
Encoding: 74 74 62
Width: 351
Flags: HMW
HStem: -15 21G<85 167.5> 597 38<19 83 19 342 298 298 298 342>
VStem: 83 215<249 597>
LayerCount: 2
Fore
SplineSet
83 249 m 1,0,-1
 83 597 l 1,1,-1
 19 597 l 1,2,-1
 19 635 l 1,3,-1
 342 635 l 1,4,-1
 342 597 l 1,5,-1
 298 597 l 1,6,-1
 298 205 l 2,7,8
 298 79 298 79 250.5 32 c 128,-1,9
 203 -15 203 -15 118 -15 c 0,10,11
 54 -15 54 -15 -1 0 c 1,12,-1
 22 170 l 1,13,-1
 149 170 l 1,14,-1
 149 223 l 2,15,16
 149 235 149 235 144 241 c 0,17,18
 137.333333333 249 137.333333333 249 119 249 c 2,19,-1
 83 249 l 1,0,-1
EndSplineSet
EndChar

StartChar: comma
Encoding: 44 44 63
Width: 308
Flags: HMW
HStem: -113 21G<162 162> 168 20G<121.5 197.5>
VStem: 60 188<60.5 136.5>
LayerCount: 2
Fore
SplineSet
248 94 m 0,0,1
 248 -31 248 -31 162 -113 c 1,2,-1
 111 -105 l 1,3,-1
 126 12 l 1,4,5
 92 12 92 12 76 29 c 128,-1,6
 60 46 60 46 60 101 c 0,7,8
 60 156 60 156 79 172 c 128,-1,9
 98 188 98 188 157.5 188 c 0,10,11
 217 188 217 188 232.5 172 c 128,-1,12
 248 156 248 156 248 94 c 0,0,1
EndSplineSet
EndChar

StartChar: bracketleft
Encoding: 91 91 64
Width: 308
Flags: HMW
HStem: -50 51<194 288 194 288> 634 51<194 288 194 194>
VStem: 80 208<-50 1 634 685>
LayerCount: 2
Fore
SplineSet
288 -50 m 1,0,-1
 80 -50 l 1,1,-1
 80 685 l 1,2,-1
 288 685 l 1,3,-1
 288 634 l 1,4,-1
 194 634 l 1,5,-1
 194 1 l 1,6,-1
 288 1 l 1,7,-1
 288 -50 l 1,0,-1
EndSplineSet
EndChar

StartChar: bracketright
Encoding: 93 93 65
Width: 308
Flags: HMW
HStem: -50 51<20 114 20 228 20 114> 634 51<20 114 20 228>
VStem: 20 208<-50 1 1 1 634 685 -50 685>
LayerCount: 2
Fore
SplineSet
20 1 m 1,0,-1
 114 1 l 1,1,-1
 114 634 l 1,2,-1
 20 634 l 1,3,-1
 20 685 l 1,4,-1
 228 685 l 1,5,-1
 228 -50 l 1,6,-1
 20 -50 l 1,7,-1
 20 1 l 1,0,-1
EndSplineSet
EndChar

StartChar: one
Encoding: 49 49 66
Width: 438
Flags: HMW
HStem: 0 38<15 119 334 438 15 119> 590 20G<290 334 334 334>
VStem: 119 215<38 355 355 355>
LayerCount: 2
Fore
SplineSet
438 0 m 1,0,-1
 15 0 l 1,1,-1
 15 38 l 1,2,-1
 119 38 l 1,3,-1
 119 355 l 1,4,-1
 234 385 l 1,5,-1
 234 413 l 1,6,-1
 47 413 l 1,7,-1
 24 546 l 1,8,-1
 290 610 l 1,9,-1
 334 610 l 1,10,-1
 334 38 l 1,11,-1
 438 38 l 1,12,-1
 438 0 l 1,0,-1
EndSplineSet
EndChar

StartChar: W
Encoding: 87 87 67
Width: 955
Flags: HMW
HStem: 0 60<342 422 342 473 637 717> 615 20G<0 288 288 288 422 584 584 584 717 955 955 955>
LayerCount: 2
Fore
SplineSet
552 182 m 1,0,-1
 508 182 l 1,1,-1
 473 0 l 1,2,-1
 134 0 l 1,3,-1
 44 597 l 1,4,-1
 0 597 l 1,5,-1
 0 635 l 1,6,-1
 288 635 l 1,7,-1
 342 60 l 1,8,-1
 422 60 l 1,9,-1
 422 635 l 1,10,-1
 584 635 l 1,11,-1
 637 60 l 1,12,-1
 717 60 l 1,13,-1
 717 635 l 1,14,-1
 955 635 l 1,15,-1
 955 597 l 1,16,-1
 912 597 l 1,17,-1
 797 0 l 1,18,-1
 552 0 l 1,19,-1
 552 182 l 1,0,-1
EndSplineSet
EndChar

StartChar: X
Encoding: 88 88 68
Width: 640
Flags: HMW
HStem: 0 21G<11 225 11 11 347 640 347 347> 615 20G<0 293 293 293 415 629 629 629>
LayerCount: 2
Fore
SplineSet
415 635 m 1,0,-1
 629 635 l 1,1,-1
 510 313 l 1,2,-1
 597 38 l 1,3,-1
 640 38 l 1,4,-1
 640 0 l 1,5,-1
 347 0 l 1,6,-1
 284 260 l 1,7,-1
 225 260 l 1,8,-1
 225 0 l 1,9,-1
 11 0 l 1,10,-1
 129 324 l 1,11,-1
 44 597 l 1,12,-1
 0 597 l 1,13,-1
 0 635 l 1,14,-1
 293 635 l 1,15,-1
 356 376 l 1,16,-1
 415 376 l 1,17,-1
 415 635 l 1,0,-1
EndSplineSet
EndChar

StartChar: two
Encoding: 50 50 69
Width: 570
Flags: HMW
HStem: 0 21G<51 51 51 524> 530 20G<268 348 268 268> 595 20G<256.5 347>
LayerCount: 2
Fore
SplineSet
51 0 m 1,0,-1
 36 38 l 1,1,-1
 348 550 l 1,2,-1
 268 550 l 1,3,-1
 179 399 l 1,4,-1
 96 399 l 1,5,-1
 79 585 l 1,6,7
 197 615 197 615 293 615 c 0,8,9
 449.788461538 615 449.788461538 615 489.5 556 c 0,10,11
 507 530 507 530 507 485.5 c 128,-1,12
 507 441 507 441 483 389.5 c 128,-1,13
 459 338 459 338 405 255 c 2,14,-1
 282 66 l 1,15,-1
 352 66 l 1,16,-1
 445 208 l 1,17,-1
 506 208 l 1,18,-1
 524 0 l 1,19,-1
 51 0 l 1,0,-1
EndSplineSet
EndChar

StartChar: seven
Encoding: 55 55 70
Width: 570
Flags: HMW
HStem: 0 38<50 147 50 147 367 503> 580 20G<45 529 529 529>
LayerCount: 2
Fore
SplineSet
50 0 m 1,0,-1
 50 38 l 1,1,-1
 147 38 l 1,2,-1
 311 534 l 1,3,-1
 222 534 l 1,4,-1
 168 362 l 1,5,-1
 67 362 l 1,6,-1
 45 600 l 1,7,-1
 529 600 l 1,8,-1
 544 562 l 1,9,-1
 367 38 l 1,10,-1
 503 38 l 1,11,-1
 503 0 l 1,12,-1
 50 0 l 1,0,-1
EndSplineSet
EndChar

StartChar: four
Encoding: 52 52 71
Width: 570
Flags: HMW
HStem: 0 38<128 262 477 541 128 262> 115 66<141 262 141 262> 580 20G<168 477 477 477>
VStem: 262 215<38 115 38 115 198 540 540 540>
LayerCount: 2
Fore
SplineSet
8 115 m 1,0,-1
 8 175 l 1,1,-1
 168 600 l 1,2,-1
 477 600 l 1,3,-1
 477 198 l 1,4,-1
 531 198 l 1,5,-1
 531 115 l 1,6,-1
 477 115 l 1,7,-1
 477 38 l 1,8,-1
 541 38 l 1,9,-1
 541 0 l 1,10,-1
 128 0 l 1,11,-1
 128 38 l 1,12,-1
 262 38 l 1,13,-1
 262 115 l 1,14,-1
 8 115 l 1,0,-1
262 540 m 1,15,-1
 221 540 l 1,16,-1
 141 181 l 1,17,-1
 262 181 l 1,18,-1
 262 540 l 1,15,-1
EndSplineSet
EndChar

StartChar: three
Encoding: 51 51 72
Width: 570
Flags: HMW
HStem: -15 21G<231.5 356.5> 530 20G<265 345 265 265> 595 20G<236 355.5>
LayerCount: 2
Fore
SplineSet
271 615 m 0,0,1
 507 615 507 615 507 463 c 0,2,3
 507 394 507 394 477.5 359.5 c 128,-1,4
 448 325 448 325 391 314 c 1,5,-1
 391 307 l 1,6,7
 453 298 453 298 484 265 c 128,-1,8
 515 232 515 232 515 159 c 0,9,10
 515 -15 515 -15 268 -15 c 0,11,12
 174 -15 174 -15 54 15 c 1,13,-1
 69 201 l 1,14,-1
 174 201 l 1,15,-1
 253 50 l 1,16,-1
 333 50 l 1,17,-1
 222 258 l 1,18,-1
 140 258 l 1,19,-1
 140 341 l 1,20,-1
 234 341 l 1,21,-1
 345 550 l 1,22,-1
 265 550 l 1,23,-1
 186 399 l 1,24,-1
 81 399 l 1,25,-1
 66 585 l 1,26,27
 181 615 181 615 271 615 c 0,0,1
EndSplineSet
EndChar

StartChar: five
Encoding: 53 53 73
Width: 570
Flags: HMW
HStem: -15 21G<231 359> 540 60<236 361 236 236>
VStem: 77 159<349 540 349 600 349 600> 361 160<109.5 540>
LayerCount: 2
Fore
SplineSet
221 271 m 1,0,-1
 77 271 l 1,1,-1
 77 600 l 1,2,-1
 516 600 l 1,3,-1
 482 399 l 1,4,-1
 361 399 l 1,5,-1
 361 540 l 1,6,-1
 236 540 l 1,7,-1
 236 349 l 1,8,-1
 302 349 l 2,9,10
 409 349 409 349 465 312.5 c 128,-1,11
 521 276 521 276 521 176 c 0,12,13
 521 76 521 76 462 30.5 c 128,-1,14
 403 -15 403 -15 268 -15 c 0,15,16
 172 -15 172 -15 60 15 c 1,17,-1
 76 201 l 1,18,-1
 180 201 l 1,19,-1
 259 50 l 1,20,-1
 339 50 l 1,21,-1
 221 271 l 1,0,-1
EndSplineSet
EndChar

StartChar: zero
Encoding: 48 48 74
Width: 570
Flags: HMW
HStem: -9 61<216.5 332.5> 545 64<238 352.5 236 387 238 238>
LayerCount: 2
Fore
SplineSet
542 363 m 2,0,-1
 542 237 l 2,1,2
 542 143.269230769 542 143.269230769 510 80.5 c 0,3,4
 488.085714286 37.5142857143 488.085714286 37.5142857143 430 10 c 0,5,6
 394.904458599 -6.62420382166 394.904458599 -6.62420382166 325.5 -8.5 c 0,7,8
 307 -9 307 -9 273.5 -9 c 128,-1,9
 240 -9 240 -9 223 -8.5 c 128,-1,10
 206 -8 206 -8 175.5 -3.5 c 128,-1,11
 145 1 145 1 128 10 c 128,-1,12
 111 19 111 19 89 37 c 128,-1,13
 67 55 67 55 55.5 80.5 c 0,14,15
 27 143.695652174 27 143.695652174 27 237 c 2,16,-1
 27 363 l 2,17,18
 27 455.24 27 455.24 58.5 519.5 c 0,19,20
 79.1653225806 561.657258065 79.1653225806 561.657258065 139 590 c 0,21,22
 174.235294118 606.690402477 174.235294118 606.690402477 243 608.5 c 0,23,24
 262 609 262 609 295.5 609 c 128,-1,25
 329 609 329 609 346 608.5 c 128,-1,26
 363 608 363 608 393.5 603.5 c 128,-1,27
 424 599 424 599 441 590 c 128,-1,28
 458 581 458 581 480 563 c 128,-1,29
 502 545 502 545 513.5 519.5 c 0,30,31
 542 456.304347826 542 456.304347826 542 363 c 2,0,-1
187 52 m 1,32,-1
 336 52 l 1,33,-1
 387 545 l 1,34,-1
 238 545 l 1,35,-1
 187 52 l 1,32,-1
EndSplineSet
EndChar

StartChar: question
Encoding: 63 63 75
Width: 446
Flags: HMW
HStem: -15 21G<169 254> 575 75<204 289.5 180 294 204 204>
VStem: 104 209<30.5 105>
LayerCount: 2
Fore
SplineSet
436 429 m 0,0,1
 436 259.852459016 436 259.852459016 317.5 221 c 0,2,3
 287 211 287 211 233.5 211 c 128,-1,4
 180 211 180 211 123 229 c 1,5,-1
 123 270 l 1,6,-1
 294 575 l 1,7,-1
 204 575 l 1,8,-1
 105 398 l 1,9,-1
 27 398 l 1,10,-1
 10 620 l 1,11,12
 123 650 123 650 226 650 c 128,-1,13
 329 650 329 650 382.5 598.5 c 128,-1,14
 436 547 436 547 436 429 c 0,0,1
295 136.5 m 128,-1,16
 313 122 313 122 313 67.5 c 128,-1,17
 313 13 313 13 294.5 -1 c 128,-1,18
 276 -15 276 -15 210 -15 c 128,-1,19
 144 -15 144 -15 124 -1 c 128,-1,20
 104 13 104 13 104 67.5 c 128,-1,21
 104 122 104 122 124.5 136.5 c 128,-1,22
 145 151 145 151 211 151 c 128,-1,15
 277 151 277 151 295 136.5 c 128,-1,16
EndSplineSet
EndChar

StartChar: questiondown
Encoding: 191 191 76
Width: 461
Flags: HMW
HStem: -100 75<174.5 260 170 284> 545 20G<210 295>
VStem: 151 209<445 519.5>
LayerCount: 2
Fore
SplineSet
28 121 m 0,0,1
 28 290.147540984 28 290.147540984 146.5 329 c 0,2,3
 177 339 177 339 230.5 339 c 128,-1,4
 284 339 284 339 341 321 c 1,5,-1
 341 280 l 1,6,-1
 170 -25 l 1,7,-1
 260 -25 l 1,8,-1
 359 152 l 1,9,-1
 437 152 l 1,10,-1
 454 -70 l 1,11,12
 341 -100 341 -100 238 -100 c 128,-1,13
 135 -100 135 -100 81.5 -48.5 c 128,-1,14
 28 3 28 3 28 121 c 0,0,1
169 413.5 m 128,-1,16
 151 428 151 428 151 482.5 c 128,-1,17
 151 537 151 537 169.5 551 c 128,-1,18
 188 565 188 565 254 565 c 128,-1,19
 320 565 320 565 340 551 c 128,-1,20
 360 537 360 537 360 482.5 c 128,-1,21
 360 428 360 428 339.5 413.5 c 128,-1,22
 319 399 319 399 253 399 c 128,-1,15
 187 399 187 399 169 413.5 c 128,-1,16
EndSplineSet
EndChar

StartChar: nine
Encoding: 57 57 77
Width: 570
Flags: HMW
HStem: -15 65<229 324.5> 216 69<217 252 252 344> 550 65<217 344 217 217>
VStem: 40 177<331 487> 344 185<110.5 216 216 216 285 364 110.5 550>
LayerCount: 2
Fore
SplineSet
344 285 m 1,0,-1
 344 550 l 1,1,-1
 217 550 l 1,2,-1
 217 285 l 1,3,-1
 344 285 l 1,0,-1
217 50 m 1,4,-1
 344 50 l 1,5,-1
 344 216 l 1,6,-1
 252 216 l 2,7,8
 146 216 146 216 93 257.5 c 128,-1,9
 40 299 40 299 40 413.5 c 128,-1,10
 40 528 40 528 92 571.5 c 128,-1,11
 144 615 144 615 294 615 c 0,12,13
 372.125 615 372.125 615 394.0625 608.5 c 128,-1,14
 416 602 416 602 435.5 593 c 128,-1,15
 455 584 455 584 466.5 572 c 128,-1,16
 478 560 478 560 491.5 540.5 c 128,-1,17
 505 521 505 521 512 496.5 c 0,18,19
 529 437 529 437 529 364 c 2,20,-1
 529 236 l 2,21,22
 529 112.967741935 529 112.967741935 486.5 59.5 c 0,23,24
 471 40 471 40 458.5 28 c 128,-1,25
 446 16 446 16 424 7 c 128,-1,26
 402 -2 402 -2 387 -6 c 128,-1,27
 372 -10 372 -10 346 -12 c 0,28,29
 307 -15 307 -15 265 -15 c 0,30,31
 153 -15 153 -15 55 8 c 1,32,-1
 70 167 l 1,33,-1
 186 167 l 1,34,-1
 217 50 l 1,4,-1
EndSplineSet
EndChar

StartChar: six
Encoding: 54 54 78
Width: 570
Flags: HMW
HStem: -15 65<225 352 225 370.5> 280 69<225 316 225 316 316 352> 550 65<240.5 336 240.5 352 225 336>
VStem: 40 185<236 280 50 349 349 364 364 489.5> 352 177<108.5 244 108.5 280 108.5 280 108.5 550>
LayerCount: 2
Fore
SplineSet
225 280 m 1,0,-1
 225 50 l 1,1,-1
 352 50 l 1,2,-1
 352 280 l 1,3,-1
 225 280 l 1,0,-1
275 -15 m 0,4,5
 196.875 -15 196.875 -15 174.9375 -8.5 c 128,-1,6
 153 -2 153 -2 133.5 7 c 128,-1,7
 114 16 114 16 102.5 28 c 128,-1,8
 91 40 91 40 77.5 59.5 c 128,-1,9
 64 79 64 79 57 103.5 c 0,10,11
 40 163 40 163 40 236 c 2,12,-1
 40 364 l 2,13,14
 40 484.689655172 40 484.689655172 81.5 540.5 c 0,15,16
 96 560 96 560 109 572 c 128,-1,17
 122 584 122 584 143.5 593 c 128,-1,18
 165 602 165 602 179.5 606 c 128,-1,19
 194 610 194 610 219.5 612 c 0,20,21
 257.75 615 257.75 615 299 615 c 0,22,23
 414 615 414 615 509 585 c 1,24,-1
 479 399 l 1,25,-1
 352 399 l 1,26,-1
 352 550 l 1,27,-1
 225 550 l 1,28,-1
 225 349 l 1,29,-1
 316 349 l 2,30,31
 420 349 420 349 474.5 311 c 128,-1,32
 529 273 529 273 529 173.5 c 128,-1,33
 529 74 529 74 472 29.5 c 128,-1,34
 415 -15 415 -15 275 -15 c 0,4,5
EndSplineSet
EndChar

StartChar: exclam
Encoding: 33 33 79
Width: 355
Flags: HMW
HStem: -15 21G<137 222> 615 20G<63 292 292 292>
VStem: 72 220
LayerCount: 2
Fore
SplineSet
263 136.5 m 128,-1,1
 281 122 281 122 281 67.5 c 128,-1,2
 281 13 281 13 262.5 -1 c 128,-1,3
 244 -15 244 -15 178 -15 c 128,-1,4
 112 -15 112 -15 92 -1 c 128,-1,5
 72 13 72 13 72 67.5 c 128,-1,6
 72 122 72 122 92.5 136.5 c 128,-1,7
 113 151 113 151 179 151 c 128,-1,0
 245 151 245 151 263 136.5 c 128,-1,1
63 635 m 1,8,-1
 292 635 l 1,9,-1
 292 365 l 1,10,-1
 262 233 l 1,11,-1
 93 233 l 1,12,-1
 63 365 l 1,13,-1
 63 635 l 1,8,-1
EndSplineSet
EndChar

StartChar: exclamdown
Encoding: 161 161 80
Width: 355
Flags: HMW
HStem: -85 21G<63 292 63 63> 545 20G<133 218>
VStem: 63 220
LayerCount: 2
Fore
SplineSet
92 413.5 m 128,-1,1
 74 428 74 428 74 482.5 c 128,-1,2
 74 537 74 537 92.5 551 c 128,-1,3
 111 565 111 565 177 565 c 128,-1,4
 243 565 243 565 263 551 c 128,-1,5
 283 537 283 537 283 482.5 c 128,-1,6
 283 428 283 428 262.5 413.5 c 128,-1,7
 242 399 242 399 176 399 c 128,-1,0
 110 399 110 399 92 413.5 c 128,-1,1
292 -85 m 1,8,-1
 63 -85 l 1,9,-1
 63 185 l 1,10,-1
 93 317 l 1,11,-1
 262 317 l 1,12,-1
 292 185 l 1,13,-1
 292 -85 l 1,8,-1
EndSplineSet
EndChar

StartChar: parenleft
Encoding: 40 40 81
Width: 308
Flags: HMW
HStem: -50 21G<230 288> 634 21G<260 288> 665 20G<230 288>
LayerCount: 2
Fore
SplineSet
195 372 m 2,0,-1
 195 263 l 2,1,2
 195 128.166666667 195 128.166666667 211 57.5 c 0,3,4
 217 31 217 31 231.5 18 c 128,-1,5
 246 5 246 5 256 3 c 128,-1,6
 266 1 266 1 288 1 c 1,7,-1
 288 -50 l 1,8,9
 193 -50 193 -50 165 -34 c 0,10,11
 151 -26 151 -26 132 -12 c 128,-1,12
 113 2 113 2 102.5 24.5 c 128,-1,13
 92 47 92 47 81.5 78.5 c 0,14,15
 62 137 62 137 62 255 c 2,16,-1
 62 380 l 2,17,18
 62 498 62 498 81.5 556.5 c 0,19,20
 92 588 92 588 102.5 610.5 c 128,-1,21
 113 633 113 633 132 647 c 128,-1,22
 151 661 151 661 165 669 c 128,-1,23
 179 677 179 677 204.5 680.5 c 0,24,25
 237.285714286 685 237.285714286 685 288 685 c 1,26,-1
 288 634 l 1,27,28
 266 634 266 634 256 632 c 128,-1,29
 246 630 246 630 231.5 617 c 128,-1,30
 217 604 217 604 211 577.5 c 0,31,32
 195 506.833333333 195 506.833333333 195 372 c 2,0,-1
EndSplineSet
EndChar

StartChar: parenright
Encoding: 41 41 82
Width: 308
Flags: HMW
HStem: -50 21G<20 78> 634 21G<20 48> 665 20G<20 78>
LayerCount: 2
Fore
SplineSet
113 263 m 2,0,-1
 113 372 l 2,1,2
 113 506.833333333 113 506.833333333 97 577.5 c 0,3,4
 91 604 91 604 76.5 617 c 128,-1,5
 62 630 62 630 52 632 c 128,-1,6
 42 634 42 634 20 634 c 1,7,-1
 20 685 l 1,8,9
 115 685 115 685 143 669 c 0,10,11
 157 661 157 661 176 647 c 128,-1,12
 195 633 195 633 205.5 610.5 c 128,-1,13
 216 588 216 588 226.5 556.5 c 0,14,15
 246 498 246 498 246 380 c 2,16,-1
 246 255 l 2,17,18
 246 137 246 137 226.5 78.5 c 0,19,20
 216 47 216 47 205.5 24.5 c 128,-1,21
 195 2 195 2 176 -12 c 128,-1,22
 157 -26 157 -26 143 -34 c 128,-1,23
 129 -42 129 -42 103.5 -45.5 c 0,24,25
 70.7142857143 -50 70.7142857143 -50 20 -50 c 1,26,-1
 20 1 l 1,27,28
 42 1 42 1 52 3 c 128,-1,29
 62 5 62 5 76.5 18 c 128,-1,30
 91 31 91 31 97 57.5 c 0,31,32
 113 128.166666667 113 128.166666667 113 263 c 2,0,-1
EndSplineSet
EndChar

StartChar: quotesingle
Encoding: 39 39 83
Width: 223
Flags: HMW
HStem: 333 21G<47 176 47 47> 615 20G<15 208 208 208>
LayerCount: 2
Fore
SplineSet
15 635 m 1,0,-1
 208 635 l 1,1,-1
 176 333 l 1,2,-1
 47 333 l 1,3,-1
 15 635 l 1,0,-1
EndSplineSet
EndChar

StartChar: asterisk
Encoding: 42 42 84
Width: 544
Flags: HMW
HStem: 265 21G<184 184 360 360> 677 20G<221 323 323 323>
LayerCount: 2
Fore
SplineSet
209 563 m 1,0,-1
 221 697 l 1,1,-1
 323 697 l 1,2,-1
 335 563 l 1,3,-1
 467 592 l 1,4,-1
 500 495 l 1,5,-1
 375 441 l 1,6,-1
 445 327 l 1,7,-1
 360 265 l 1,8,-1
 272 367 l 1,9,-1
 184 265 l 1,10,-1
 99 327 l 1,11,-1
 169 441 l 1,12,-1
 44 495 l 1,13,-1
 77 593 l 1,14,-1
 209 563 l 1,0,-1
EndSplineSet
EndChar

StartChar: quotedbl
Encoding: 34 34 85
Width: 402
Flags: HMW
HStem: 333 21G<47 176 47 47 226 226 226 355> 615 20G<15 176 176 176 226 387 387 387>
LayerCount: 2
Fore
SplineSet
15 635 m 1,0,-1
 176 635 l 1,1,-1
 176 333 l 1,2,-1
 47 333 l 1,3,-1
 15 635 l 1,0,-1
226 635 m 1,4,-1
 387 635 l 1,5,-1
 355 333 l 1,6,-1
 226 333 l 1,7,-1
 226 635 l 1,4,-1
EndSplineSet
EndChar

StartChar: quotedblleft
Encoding: 8220 8220 86
Width: 501
Flags: HMW
HStem: 335 21G<80.5 156.5 318.5 394.5> 616 20G<116 116 354 354>
VStem: 30 188<386.5 462.5 386.5 468.5> 268 188<386.5 462.5 386.5 468.5>
LayerCount: 2
Fore
SplineSet
30 429 m 0,0,1
 30 554 30 554 116 636 c 1,2,-1
 167 628 l 1,3,-1
 152 511 l 1,4,5
 186 511 186 511 202 494 c 128,-1,6
 218 477 218 477 218 422 c 0,7,8
 218 367 218 367 199 351 c 128,-1,9
 180 335 180 335 120.5 335 c 0,10,11
 61 335 61 335 45.5 351 c 128,-1,12
 30 367 30 367 30 429 c 0,0,1
268 429 m 0,13,14
 268 554 268 554 354 636 c 1,15,-1
 405 628 l 1,16,-1
 390 511 l 1,17,18
 424 511 424 511 440 494 c 128,-1,19
 456 477 456 477 456 422 c 0,20,21
 456 367 456 367 437 351 c 128,-1,22
 418 335 418 335 358.5 335 c 0,23,24
 299 335 299 335 283.5 351 c 128,-1,25
 268 367 268 367 268 429 c 0,13,14
EndSplineSet
EndChar

StartChar: quotedblright
Encoding: 8221 8221 87
Width: 501
Flags: HMW
HStem: 339 21G<147 147 385 385> 620 20G<106.5 182.5 344.5 420.5>
VStem: 45 188<512.5 588.5> 283 188<512.5 588.5>
LayerCount: 2
Fore
SplineSet
471 546 m 0,0,1
 471 421 471 421 385 339 c 1,2,-1
 334 347 l 1,3,-1
 349 464 l 1,4,5
 315 464 315 464 299 481 c 128,-1,6
 283 498 283 498 283 553 c 0,7,8
 283 608 283 608 302 624 c 128,-1,9
 321 640 321 640 380.5 640 c 0,10,11
 440 640 440 640 455.5 624 c 128,-1,12
 471 608 471 608 471 546 c 0,0,1
233 546 m 0,13,14
 233 421 233 421 147 339 c 1,15,-1
 96 347 l 1,16,-1
 111 464 l 1,17,18
 77 464 77 464 61 481 c 128,-1,19
 45 498 45 498 45 553 c 0,20,21
 45 608 45 608 64 624 c 128,-1,22
 83 640 83 640 142.5 640 c 0,23,24
 202 640 202 640 217.5 624 c 128,-1,25
 233 608 233 608 233 546 c 0,13,14
EndSplineSet
EndChar

StartChar: sterling
Encoding: 163 163 88
Width: 575
Flags: HMW
HStem: 0 53<253 374 253 499> 277 33<41 95 41 95 300 423> 530 20G<300 387 300 300> 595 20G<287 371.5>
VStem: 95 205<200 251 251 277 200 277 310 364 364 489.5>
LayerCount: 2
Fore
SplineSet
499 0 m 1,0,-1
 41 0 l 1,1,-1
 41 33 l 1,2,-1
 95 33 l 1,3,-1
 95 277 l 1,4,-1
 41 277 l 1,5,-1
 41 310 l 1,6,-1
 95 310 l 1,7,-1
 95 364 l 2,8,9
 95 486.034482759 95 486.034482759 135.5 540.5 c 0,10,11
 150 560 150 560 162.5 572 c 128,-1,12
 175 584 175 584 195 593 c 128,-1,13
 215 602 215 602 229 606 c 128,-1,14
 243 610 243 610 266.5 612 c 0,15,16
 301.75 615 301.75 615 338 615 c 0,17,18
 432 615 432 615 516 585 c 1,19,-1
 471 419 l 1,20,-1
 387 419 l 1,21,-1
 387 550 l 1,22,-1
 300 550 l 1,23,-1
 300 310 l 1,24,-1
 423 310 l 1,25,-1
 423 277 l 1,26,-1
 300 277 l 1,27,-1
 300 251 l 2,28,29
 300 113 300 113 253 53 c 1,30,-1
 374 53 l 1,31,-1
 408 162 l 1,32,-1
 499 162 l 1,33,-1
 499 0 l 1,0,-1
EndSplineSet
EndChar

StartChar: ampersand
Encoding: 38 38 89
Width: 645
Flags: HMW
HStem: -15 21G<145.5 207> 0 21G<382 690 382 382> 292 72<484 564 484 484> 630 20G<314 404>
LayerCount: 2
Fore
SplineSet
690 0 m 1,0,-1
 382 0 l 1,1,-1
 230 286 l 1,2,-1
 161 286 l 1,3,-1
 297 28 l 1,4,5
 286.721153846 -2.83653846154 286.721153846 -2.83653846154 251.5 -9.5 c 0,6,7
 222.428571429 -15 222.428571429 -15 187.714285714 -15 c 128,-1,8
 153 -15 153 -15 137.5 -13.5 c 128,-1,9
 122 -12 122 -12 98 -2.5 c 128,-1,10
 74 7 74 7 61.5 26 c 0,11,12
 30 73.88 30 73.88 30 173 c 128,-1,13
 30 272 30 272 68.5 313 c 128,-1,14
 107 354 107 354 186 361 c 1,15,16
 150 430 150 430 150 489 c 128,-1,17
 150 548 150 548 168 579.5 c 128,-1,18
 186 611 186 611 220 625.5 c 0,19,20
 277.448275862 650 277.448275862 650 367.724137931 650 c 128,-1,21
 458 650 458 650 583 618 c 1,22,-1
 566 431 l 1,23,-1
 479 431 l 1,24,-1
 398 581 l 1,25,-1
 329 581 l 1,26,-1
 445 364 l 1,27,-1
 564 364 l 1,28,-1
 564 292 l 1,29,-1
 484 292 l 1,30,-1
 617 38 l 1,31,-1
 690 38 l 1,32,-1
 690 0 l 1,0,-1
EndSplineSet
EndChar

StartChar: dollar
Encoding: 36 36 90
Width: 575
Flags: HMW
HStem: -107 21G<272 306 272 272> -11 69<306 306> 542 69<288 288 288 338 248 288> 686 20G<288 322 322 322>
LayerCount: 2
Fore
SplineSet
523 138 m 0,0,1
 523 -5 523 -5 306 -11 c 1,2,-1
 306 -107 l 1,3,-1
 272 -107 l 1,4,-1
 272 -12 l 1,5,6
 169 -11 169 -11 72 15 c 1,7,-1
 80 189 l 1,8,-1
 150 189 l 1,9,-1
 256 58 l 1,10,-1
 346 58 l 1,11,-1
 172 275 l 2,12,13
 171 276 171 276 142 310.5 c 128,-1,14
 113 345 113 345 104 358 c 128,-1,15
 95 371 95 371 82 399.5 c 128,-1,16
 69 428 69 428 69 452 c 0,17,18
 69 605 69 605 288 611 c 1,19,-1
 288 706 l 1,20,-1
 322 706 l 1,21,-1
 322 612 l 1,22,23
 433 609 433 609 511 579 c 1,24,-1
 504 425 l 1,25,-1
 433 425 l 1,26,-1
 338 542 l 1,27,-1
 248 542 l 1,28,-1
 377 382 l 1,29,30
 492.908396947 251.603053435 492.908396947 251.603053435 514 189.5 c 0,31,32
 523 163 523 163 523 138 c 0,0,1
EndSplineSet
EndChar

StartChar: florin
Encoding: 402 402 91
Width: 575
Flags: HMW
HStem: -127 21G<95 141.5> 277 33<41 95 41 95 300 423> 530 20G<300 387 300 300> 595 20G<286.5 370.5>
VStem: 95 205<-1.5 124 124 277 -1.5 277 310 364 364 489.5>
LayerCount: 2
Fore
SplineSet
423 277 m 1,0,-1
 300 277 l 1,1,-1
 300 124 l 2,2,3
 300 -28 300 -28 248 -80 c 0,4,5
 230 -98 230 -98 215.5 -107 c 128,-1,6
 201 -116 201 -116 175.5 -121 c 0,7,8
 144.9 -127 144.9 -127 95 -127 c 1,9,-1
 95 277 l 1,10,-1
 41 277 l 1,11,-1
 41 310 l 1,12,-1
 95 310 l 1,13,-1
 95 364 l 2,14,15
 95 459 95 459 125 524 c 0,16,17
 145.09221902 567.53314121 145.09221902 567.53314121 198.5 595 c 0,18,19
 216 604 216 604 245.5 609 c 0,20,21
 280.9 615 280.9 615 354.45 615 c 128,-1,22
 428 615 428 615 516 585 c 1,23,-1
 471 419 l 1,24,-1
 387 419 l 1,25,-1
 387 550 l 1,26,-1
 300 550 l 1,27,-1
 300 310 l 1,28,-1
 423 310 l 1,29,-1
 423 277 l 1,0,-1
EndSplineSet
EndChar

StartChar: braceleft
Encoding: 123 123 92
Width: 308
Flags: HMW
HStem: -50 21G<221 288> 633 21G<260 288> 664 20G<221 288>
LayerCount: 2
Fore
SplineSet
0 295 m 1,0,-1
 0 339 l 1,1,-1
 62 357 l 1,2,-1
 62 415 l 2,3,4
 62 551.542857143 62 551.542857143 102.5 617.5 c 0,5,6
 120 646 120 646 151.5 661 c 128,-1,7
 183 676 183 676 212.5 680 c 128,-1,8
 242 684 242 684 288 684 c 1,9,-1
 288 633 l 1,10,11
 266 633 266 633 256 631 c 128,-1,12
 246 629 246 629 231.5 617.5 c 128,-1,13
 217 606 217 606 211 581 c 0,14,15
 195 514.333333333 195 514.333333333 195 391 c 0,16,17
 195 362 195 362 176 342.5 c 128,-1,18
 157 323 157 323 124 323 c 1,19,-1
 124 311 l 1,20,21
 158 311 158 311 177 291.5 c 128,-1,22
 196 272 196 272 196 243 c 0,23,24
 196 117.571428571 196 117.571428571 205.5 82.2857142857 c 128,-1,25
 215 47 215 47 221 31.5 c 128,-1,26
 227 16 227 16 240 9.5 c 128,-1,27
 253 3 253 3 261.5 2 c 128,-1,28
 270 1 270 1 288 1 c 1,29,-1
 288 -50 l 1,30,31
 242 -50 242 -50 212.5 -46 c 128,-1,32
 183 -42 183 -42 151.5 -27 c 128,-1,33
 120 -12 120 -12 102.5 16.5 c 0,34,35
 62 82.4571428571 62 82.4571428571 62 219 c 2,36,-1
 62 277 l 1,37,-1
 0 295 l 1,0,-1
EndSplineSet
EndChar

StartChar: braceright
Encoding: 125 125 93
Width: 308
Flags: HMW
HStem: -50 21G<20 87> 633 21G<20 47.5> 664 20G<20 87>
LayerCount: 2
Fore
SplineSet
308 339 m 1,0,-1
 308 295 l 1,1,-1
 246 277 l 1,2,-1
 246 219 l 2,3,4
 246 82.4571428571 246 82.4571428571 205.5 16.5 c 0,5,6
 188 -12 188 -12 156.5 -27 c 128,-1,7
 125 -42 125 -42 95.5 -46 c 128,-1,8
 66 -50 66 -50 20 -50 c 1,9,-1
 20 1 l 1,10,11
 42 1 42 1 52 3 c 128,-1,12
 62 5 62 5 76.5 16.5 c 128,-1,13
 91 28 91 28 97 53 c 0,14,15
 113 119.666666667 113 119.666666667 113 243 c 0,16,17
 113 272 113 272 132 291.5 c 128,-1,18
 151 311 151 311 184 311 c 1,19,-1
 184 323 l 1,20,21
 150 323 150 323 131 342.5 c 128,-1,22
 112 362 112 362 112 391 c 0,23,24
 112 516.428571429 112 516.428571429 102.5 551.714285714 c 128,-1,25
 93 587 93 587 87 602.5 c 128,-1,26
 81 618 81 618 68 624.5 c 128,-1,27
 55 631 55 631 46.5 632 c 128,-1,28
 38 633 38 633 20 633 c 1,29,-1
 20 684 l 1,30,31
 66 684 66 684 95.5 680 c 128,-1,32
 125 676 125 676 156.5 661 c 128,-1,33
 188 646 188 646 205.5 617.5 c 0,34,35
 246 551.542857143 246 551.542857143 246 415 c 2,36,-1
 246 357 l 1,37,-1
 308 339 l 1,0,-1
EndSplineSet
EndChar

StartChar: hyphen
Encoding: 45 45 94
Width: 372
Flags: HMW
HStem: 213 21G<30 30 30 342> 331 20G<30 342 342 342>
LayerCount: 2
Fore
SplineSet
30 213 m 1,0,-1
 30 351 l 1,1,-1
 342 351 l 1,2,-1
 342 213 l 1,3,-1
 30 213 l 1,0,-1
EndSplineSet
EndChar

StartChar: eight
Encoding: 56 56 95
Width: 570
Flags: HMW
HStem: -15 65<225 352 225 370.5> 550 65<217 344 217 217>
VStem: 40 185<75.5 159.5> 53 172 344 172<448.5 529.5 448.5 550 448.5 550> 344 185
LayerCount: 2
Fore
SplineSet
107 570.5 m 128,-1,1
 161 615 161 615 282.5 615 c 128,-1,2
 404 615 404 615 460 583.5 c 128,-1,3
 516 552 516 552 516 475.5 c 128,-1,4
 516 399 516 399 470 353 c 1,5,-1
 344 426 l 1,6,-1
 344 550 l 1,7,-1
 217 550 l 1,8,-1
 217 453 l 1,9,-1
 461 312 l 1,10,11
 529 265 529 265 529 169.5 c 128,-1,12
 529 74 529 74 472 29.5 c 128,-1,13
 415 -15 415 -15 286.5 -15 c 128,-1,14
 158 -15 158 -15 99 18 c 128,-1,15
 40 51 40 51 40 132.5 c 128,-1,16
 40 214 40 214 94 257 c 1,17,-1
 225 180 l 1,18,-1
 225 50 l 1,19,-1
 352 50 l 1,20,-1
 352 154 l 1,21,-1
 116 287 l 1,22,23
 53 328 53 328 53 427 c 128,-1,0
 53 526 53 526 107 570.5 c 128,-1,1
EndSplineSet
EndChar

StartChar: yen
Encoding: 165 165 96
Width: 567
Flags: HMW
HStem: 0 33<97 182 385 470 97 182> 204 33<43 171 43 182 43 171 396 524> 277 33<43 141 43 154 43 141 426 524> 580 20G<21 225 225 225 301 546 546 546>
VStem: 182 203<33 204 33 204>
LayerCount: 2
Fore
SplineSet
470 0 m 1,0,-1
 97 0 l 1,1,-1
 97 33 l 1,2,-1
 182 33 l 1,3,-1
 182 204 l 1,4,-1
 43 204 l 1,5,-1
 43 237 l 1,6,-1
 171 237 l 1,7,-1
 154 277 l 1,8,-1
 43 277 l 1,9,-1
 43 310 l 1,10,-1
 141 310 l 1,11,-1
 21 600 l 1,12,-1
 225 600 l 1,13,-1
 286 310 l 1,14,-1
 362 310 l 1,15,-1
 301 600 l 1,16,-1
 546 600 l 1,17,-1
 426 310 l 1,18,-1
 524 310 l 1,19,-1
 524 277 l 1,20,-1
 412 277 l 1,21,-1
 396 237 l 1,22,-1
 524 237 l 1,23,-1
 524 204 l 1,24,-1
 385 204 l 1,25,-1
 385 33 l 1,26,-1
 470 33 l 1,27,-1
 470 0 l 1,0,-1
EndSplineSet
EndChar

StartChar: semicolon
Encoding: 59 59 97
Width: 308
Flags: HMW
HStem: -113 21G<162 162> 168 20G<121.5 197.5> 327 21G<118.5 194.5> 505 20G<119 195>
VStem: 60 188<60.5 136.5 381 470>
LayerCount: 2
Fore
SplineSet
248 94 m 0,0,1
 248 -31 248 -31 162 -113 c 1,2,-1
 111 -105 l 1,3,-1
 126 12 l 1,4,5
 92 12 92 12 76 29 c 128,-1,6
 60 46 60 46 60 101 c 128,-1,7
 60 156 60 156 79 172 c 128,-1,8
 98 188 98 188 157.5 188 c 128,-1,9
 217 188 217 188 232.5 172 c 128,-1,10
 248 156 248 156 248 94 c 0,0,1
231.5 507.5 m 128,-1,12
 248 490 248 490 248 425.5 c 128,-1,13
 248 361 248 361 231 344 c 128,-1,14
 214 327 214 327 155 327 c 128,-1,15
 96 327 96 327 78 344 c 128,-1,16
 60 361 60 361 60 426 c 128,-1,17
 60 491 60 491 78.5 508 c 128,-1,18
 97 525 97 525 156 525 c 128,-1,11
 215 525 215 525 231.5 507.5 c 128,-1,12
EndSplineSet
EndChar

StartChar: colon
Encoding: 58 58 98
Width: 308
Flags: HMW
HStem: -10 21G<118.5 194.5> 208 20G 327 21G<118.5 194.5> 505 20G<119 195>
VStem: 40 243 60 188<44 133 381 470>
LayerCount: 2
Fore
SplineSet
231.5 507.5 m 128,-1,1
 248 490 248 490 248 425.5 c 128,-1,2
 248 361 248 361 231 344 c 128,-1,3
 214 327 214 327 155 327 c 128,-1,4
 96 327 96 327 78 344 c 128,-1,5
 60 361 60 361 60 426 c 128,-1,6
 60 491 60 491 78.5 508 c 128,-1,7
 97 525 97 525 156 525 c 128,-1,0
 215 525 215 525 231.5 507.5 c 128,-1,1
231.5 170.5 m 128,-1,9
 248 153 248 153 248 88.5 c 128,-1,10
 248 24 248 24 231 7 c 128,-1,11
 214 -10 214 -10 155 -10 c 128,-1,12
 96 -10 96 -10 78 7 c 128,-1,13
 60 24 60 24 60 89 c 128,-1,14
 60 154 60 154 78.5 171 c 128,-1,15
 97 188 97 188 156 188 c 128,-1,8
 215 188 215 188 231.5 170.5 c 128,-1,9
EndSplineSet
EndChar

StartChar: quotesinglbase
Encoding: 8218 8218 99
Width: 308
Flags: HMW
HStem: -113 21G<162 162> 168 20G<121.5 197.5>
VStem: 60 188<60.5 136.5>
LayerCount: 2
Fore
SplineSet
248 94 m 0,0,1
 248 -31 248 -31 162 -113 c 1,2,-1
 111 -105 l 1,3,-1
 126 12 l 1,4,5
 92 12 92 12 76 29 c 128,-1,6
 60 46 60 46 60 101 c 0,7,8
 60 156 60 156 79 172 c 128,-1,9
 98 188 98 188 157.5 188 c 0,10,11
 217 188 217 188 232.5 172 c 128,-1,12
 248 156 248 156 248 94 c 0,0,1
EndSplineSet
EndChar

StartChar: cent
Encoding: 162 162 100
Width: 547
Flags: HMW
HStem: -66 21G<272 306 272 272> 645 20G<271 305 305 305>
VStem: 60 185<182 419.5>
LayerCount: 2
Fore
SplineSet
305 665 m 1,0,-1
 305 556 l 1,1,2
 383 555 383 555 480 530 c 1,3,-1
 453 366 l 1,4,-1
 359 366 l 1,5,-1
 332 491 l 1,6,-1
 245 491 l 1,7,-1
 245 111 l 1,8,-1
 332 111 l 1,9,-1
 359 236 l 1,10,-1
 453 236 l 1,11,-1
 480 72 l 1,12,13
 397 46 397 46 306 46 c 1,14,-1
 306 -66 l 1,15,-1
 272 -66 l 1,16,-1
 272 46 l 1,17,18
 231 46 231 46 205 49.5 c 128,-1,19
 179 53 179 53 148.5 67.5 c 128,-1,20
 118 82 118 82 101 108.5 c 0,21,22
 60 172.411764706 60 172.411764706 60 301 c 0,23,24
 60 420.161290323 60 420.161290323 89.5 472.5 c 0,25,26
 105 500 105 500 122 517 c 128,-1,27
 139 534 139 534 166 542 c 0,28,29
 213.25 556 213.25 556 271 556 c 1,30,-1
 271 665 l 1,31,-1
 305 665 l 1,0,-1
EndSplineSet
EndChar

StartChar: paragraph
Encoding: 182 182 101
Width: 610
Flags: HMW
HStem: -165 21G<469 530> 0 21G<212 250 212 212> 630 20G<232 371>
VStem: 50 200<337 527> 330 200<86 424 -165 585 -165 585>
LayerCount: 2
Fore
SplineSet
530 424 m 2,0,-1
 530 -165 l 1,1,2
 445.666666667 -165 445.666666667 -165 429.333333333 -158 c 128,-1,3
 413 -151 413 -151 397 -143 c 128,-1,4
 381 -135 381 -135 373 -122 c 128,-1,5
 365 -109 365 -109 355 -90.5 c 128,-1,6
 345 -72 345 -72 340.5 -47 c 0,7,8
 330 11.3333333333 330 11.3333333333 330 86 c 2,9,-1
 330 585 l 1,10,-1
 250 585 l 1,11,-1
 250 0 l 1,12,-1
 212 0 l 1,13,-1
 212 207 l 1,14,15
 154 210 154 210 121.5 227 c 0,16,17
 50 264.4 50 264.4 50 424 c 0,18,19
 50 539.285714286 50 539.285714286 97 593 c 0,20,21
 135.995893224 637.566735113 135.995893224 637.566735113 221.5 646.5 c 0,22,23
 255 650 255 650 298.5 650 c 128,-1,24
 342 650 342 650 368 647.5 c 128,-1,25
 394 645 394 645 421.5 637.5 c 128,-1,26
 449 630 449 630 467 614.5 c 128,-1,27
 485 599 485 599 500.5 574.5 c 0,28,29
 530 527.870967742 530 527.870967742 530 424 c 2,0,-1
EndSplineSet
EndChar

StartChar: dagger
Encoding: 8224 8224 102
Width: 478
Flags: HMW
HStem: -150 21G<124 353 124 124> 366 68<25 159 25 159 318 453> 615 20G<124 353 353 353>
LayerCount: 2
Fore
SplineSet
453 366 m 1,0,-1
 318 366 l 1,1,-1
 353 200 l 1,2,-1
 353 -150 l 1,3,-1
 124 -150 l 1,4,-1
 124 200 l 1,5,-1
 159 366 l 1,6,-1
 25 366 l 1,7,-1
 25 434 l 1,8,-1
 159 434 l 1,9,-1
 124 578 l 1,10,-1
 124 635 l 1,11,-1
 353 635 l 1,12,-1
 353 578 l 1,13,-1
 318 434 l 1,14,-1
 453 434 l 1,15,-1
 453 366 l 1,0,-1
EndSplineSet
EndChar

StartChar: daggerdbl
Encoding: 8225 8225 103
Width: 478
Flags: HMW
HStem: -150 21G<124 353 124 124> 51 68<25 159 25 167 318 453 318 318> 366 68<25 159 25 167 25 159 318 453> 615 20G<124 353 353 353>
VStem: 131 215<189 296 189 296>
LayerCount: 2
Fore
SplineSet
124 635 m 1,0,-1
 353 635 l 1,1,-1
 353 578 l 1,2,-1
 318 434 l 1,3,-1
 453 434 l 1,4,-1
 453 366 l 1,5,-1
 310 366 l 1,6,-1
 346 296 l 1,7,-1
 346 189 l 1,8,-1
 310 119 l 1,9,-1
 453 119 l 1,10,-1
 453 51 l 1,11,-1
 318 51 l 1,12,-1
 353 -93 l 1,13,-1
 353 -150 l 1,14,-1
 124 -150 l 1,15,-1
 124 -93 l 1,16,-1
 159 51 l 1,17,-1
 25 51 l 1,18,-1
 25 119 l 1,19,-1
 167 119 l 1,20,-1
 131 189 l 1,21,-1
 131 296 l 1,22,-1
 167 366 l 1,23,-1
 25 366 l 1,24,-1
 25 434 l 1,25,-1
 159 434 l 1,26,-1
 124 578 l 1,27,-1
 124 635 l 1,0,-1
EndSplineSet
EndChar

StartChar: quotedblbase
Encoding: 8222 8222 104
Width: 546
Flags: HMW
HStem: -113 21G<162 162 400 400> 168 20G<121.5 197.5 359.5 435.5>
VStem: 60 188<60.5 136.5> 298 188<60.5 136.5>
LayerCount: 2
Fore
SplineSet
486 94 m 0,0,1
 486 -31 486 -31 400 -113 c 1,2,-1
 349 -105 l 1,3,-1
 364 12 l 1,4,5
 330 12 330 12 314 29 c 128,-1,6
 298 46 298 46 298 101 c 0,7,8
 298 156 298 156 317 172 c 128,-1,9
 336 188 336 188 395.5 188 c 0,10,11
 455 188 455 188 470.5 172 c 128,-1,12
 486 156 486 156 486 94 c 0,0,1
248 94 m 0,13,14
 248 -31 248 -31 162 -113 c 1,15,-1
 111 -105 l 1,16,-1
 126 12 l 1,17,18
 92 12 92 12 76 29 c 128,-1,19
 60 46 60 46 60 101 c 0,20,21
 60 156 60 156 79 172 c 128,-1,22
 98 188 98 188 157.5 188 c 0,23,24
 217 188 217 188 232.5 172 c 128,-1,25
 248 156 248 156 248 94 c 0,13,14
EndSplineSet
EndChar

StartChar: periodcentered
Encoding: 183 183 105
Width: 308
Flags: HMW
HStem: 176 21G<118.5 194.5> 354 20G<119 195>
VStem: 60 188<230 319>
LayerCount: 2
Fore
SplineSet
231.5 356.5 m 128,-1,1
 248 339 248 339 248 274.5 c 128,-1,2
 248 210 248 210 231 193 c 128,-1,3
 214 176 214 176 155 176 c 128,-1,4
 96 176 96 176 78 193 c 128,-1,5
 60 210 60 210 60 275 c 128,-1,6
 60 340 60 340 78.5 357 c 128,-1,7
 97 374 97 374 156 374 c 128,-1,0
 215 374 215 374 231.5 356.5 c 128,-1,1
EndSplineSet
EndChar

StartChar: quoteright
Encoding: 8217 8217 106
Width: 263
Flags: HMW
HStem: 339 21G<147 147> 620 20G<106.5 182.5>
VStem: 45 188<512.5 588.5>
LayerCount: 2
Fore
SplineSet
233 546 m 0,0,1
 233 421 233 421 147 339 c 1,2,-1
 96 347 l 1,3,-1
 111 464 l 1,4,5
 77 464 77 464 61 481 c 128,-1,6
 45 498 45 498 45 553 c 0,7,8
 45 608 45 608 64 624 c 128,-1,9
 83 640 83 640 142.5 640 c 0,10,11
 202 640 202 640 217.5 624 c 128,-1,12
 233 608 233 608 233 546 c 0,0,1
EndSplineSet
EndChar

StartChar: quoteleft
Encoding: 8216 8216 107
Width: 263
Flags: HMW
HStem: 335 21G<80.5 156.5> 616 20G<116 116>
VStem: 30 188<386.5 462.5 386.5 468.5>
LayerCount: 2
Fore
SplineSet
30 429 m 0,0,1
 30 554 30 554 116 636 c 1,2,-1
 167 628 l 1,3,-1
 152 511 l 1,4,5
 186 511 186 511 202 494 c 128,-1,6
 218 477 218 477 218 422 c 0,7,8
 218 367 218 367 199 351 c 128,-1,9
 180 335 180 335 120.5 335 c 0,10,11
 61 335 61 335 45.5 351 c 128,-1,12
 30 367 30 367 30 429 c 0,0,1
EndSplineSet
EndChar

StartChar: tilde
Encoding: 732 732 108
Width: 403
Flags: HMW
HStem: 583 21G<224.5 278> 624 20G<125 137 125 125> 745 20G<123.5 177>
LayerCount: 2
Fore
SplineSet
378 741 m 1,0,-1
 367 684 l 2,1,2
 348 583 348 583 249 583 c 0,3,4
 179 583 179 583 137 644 c 1,5,-1
 125 644 l 1,6,-1
 97 593 l 1,7,-1
 25 606 l 1,8,-1
 35 663 l 2,9,10
 53 765 53 765 152 765 c 0,11,12
 224 765 224 765 265 703 c 1,13,-1
 277 703 l 1,14,-1
 305 755 l 1,15,-1
 378 741 l 1,0,-1
EndSplineSet
EndChar

StartChar: ntilde
Encoding: 241 241 109
Width: 622
Flags: HMW
HStem: 0 21G<10 240 10 10 387 617 387 387> 530 20G<10 143 143 143> 545 20G<330 440.5> 583 21G<335.5 389> 624 20G<236 248 236 236> 745 20G<234.5 288>
VStem: 50 190<38 474 0 512 0 512> 387 190<38 415 38 474 38 474>
LayerCount: 2
Fore
SplineSet
617 0 m 1,0,-1
 387 0 l 1,1,-1
 387 474 l 1,2,-1
 240 474 l 1,3,-1
 240 0 l 1,4,-1
 10 0 l 1,5,-1
 10 38 l 1,6,-1
 50 38 l 1,7,-1
 50 512 l 1,8,-1
 10 512 l 1,9,-1
 10 550 l 1,10,-1
 143 550 l 1,11,-1
 178 474 l 1,12,-1
 191 474 l 1,13,14
 212 530 212 530 254.5 547.5 c 128,-1,15
 297 565 297 565 387 565 c 0,16,17
 477 565 477 565 527 531.5 c 128,-1,18
 577 498 577 498 577 415 c 2,19,-1
 577 38 l 1,20,-1
 617 38 l 1,21,-1
 617 0 l 1,0,-1
489 741 m 1,22,-1
 478 684 l 2,23,24
 459 583 459 583 360 583 c 0,25,26
 290 583 290 583 248 644 c 1,27,-1
 236 644 l 1,28,-1
 208 593 l 1,29,-1
 136 606 l 1,30,-1
 146 663 l 2,31,32
 164 765 164 765 263 765 c 0,33,34
 335 765 335 765 376 703 c 1,35,-1
 388 703 l 1,36,-1
 416 755 l 1,37,-1
 489 741 l 1,22,-1
EndSplineSet
EndChar

StartChar: Ntilde
Encoding: 209 209 110
Width: 727
Flags: HMW
HStem: 0 21G<30 221 30 30 322 663 322 322> 615 20G<30 415 415 415 516 707 707 707> 668 21G<387.5 441> 709 20G<288 300 288 288> 830 20G<286.5 340>
LayerCount: 2
Fore
SplineSet
30 597 m 1,0,-1
 30 635 l 1,1,-1
 415 635 l 1,2,-1
 556 60 l 1,3,-1
 597 60 l 1,4,-1
 516 635 l 1,5,-1
 707 635 l 1,6,-1
 707 597 l 1,7,-1
 663 597 l 1,8,-1
 663 0 l 1,9,-1
 322 0 l 1,10,-1
 193 575 l 1,11,-1
 152 575 l 1,12,-1
 221 0 l 1,13,-1
 30 0 l 1,14,-1
 30 38 l 1,15,-1
 74 38 l 1,16,-1
 74 597 l 1,17,-1
 30 597 l 1,0,-1
541 826 m 1,18,-1
 530 769 l 2,19,20
 511 668 511 668 412 668 c 0,21,22
 342 668 342 668 300 729 c 1,23,-1
 288 729 l 1,24,-1
 260 678 l 1,25,-1
 188 691 l 1,26,-1
 198 748 l 2,27,28
 216 850 216 850 315 850 c 0,29,30
 387 850 387 850 428 788 c 1,31,-1
 440 788 l 1,32,-1
 468 840 l 1,33,-1
 541 826 l 1,18,-1
EndSplineSet
EndChar

StartChar: Oacute
Encoding: 211 211 111
Width: 620
Flags: HMW
HStem: -15 72<235 375.5> 579 71<245 385 235 397.5> 671 21G<212 212> 845 20G<390 390>
VStem: 20 215<262 374 374 512> 385 215<123.5 262 262 374 123.5 579>
LayerCount: 2
Fore
SplineSet
600 374 m 2,0,-1
 600 262 l 2,1,2
 600 180.8125 600 180.8125 581 115.5 c 0,3,4
 569.307692308 75.3076923077 569.307692308 75.3076923077 526.5 32.5 c 0,5,6
 507.47826087 13.4782608696 507.47826087 13.4782608696 446.5 -5 c 0,7,8
 399.430594901 -19.2634560907 399.430594901 -19.2634560907 247 -14.5 c 0,9,10
 181.344827586 -12.4482758621 181.344827586 -12.4482758621 162.672413793 -6.22413793103 c 128,-1,11
 144 0 144 0 121.5 9.5 c 128,-1,12
 99 19 99 19 86.5 32.5 c 128,-1,13
 74 46 74 46 59.5 67 c 128,-1,14
 45 88 45 88 37.5 115.5 c 0,15,16
 20 179.666666667 20 179.666666667 20 262 c 2,17,-1
 20 374 l 2,18,19
 20 454 20 454 38 508.5 c 128,-1,20
 56 563 56 563 79 590.5 c 128,-1,21
 102 618 102 618 150 632 c 128,-1,22
 198 646 198 646 230 648 c 128,-1,23
 262 650 262 650 309.5 650 c 128,-1,24
 357 650 357 650 373 649.5 c 128,-1,25
 389 649 389 649 417.5 647 c 128,-1,26
 446 645 446 645 461 640 c 128,-1,27
 476 635 476 635 498.5 625.5 c 128,-1,28
 521 616 521 616 533.5 602.5 c 128,-1,29
 546 589 546 589 560.5 568 c 128,-1,30
 575 547 575 547 582.5 520 c 0,31,32
 600 457 600 457 600 374 c 2,0,-1
385 57 m 1,33,-1
 385 579 l 1,34,-1
 235 579 l 1,35,-1
 235 57 l 1,36,-1
 385 57 l 1,33,-1
179 763 m 1,37,-1
 390 865 l 1,38,-1
 439 730 l 1,39,-1
 212 671 l 1,40,-1
 179 763 l 1,37,-1
EndSplineSet
EndChar

StartChar: grave
Encoding: 96 96 112
Width: 311
Flags: HMW
HStem: 586 21G<227 227> 760 20G<49 49>
LayerCount: 2
Fore
SplineSet
49 780 m 1,0,-1
 260 678 l 1,1,-1
 227 586 l 1,2,-1
 0 645 l 1,3,-1
 49 780 l 1,0,-1
EndSplineSet
EndChar

StartChar: agrave
Encoding: 224 224 113
Width: 618
Flags: HMW
HStem: -15 21G<204.5 299> 0 21G<455 578 455 455> 240 75<247 348 247 348 211 348> 490 75<260.5 346.5 260.5 348 234 346.5> 586 21G<411 411> 760 20G<233 233>
VStem: 35 176<76 223> 348 190<76 240 240 240 315 415 38 490 38 490>
LayerCount: 2
Fore
SplineSet
92 379 m 1,0,-1
 68 535 l 1,1,2
 181 565 181 565 295 565 c 0,3,4
 424.129032258 565 424.129032258 565 482.5 526.5 c 0,5,6
 506 511 506 511 522 482.5 c 128,-1,7
 538 454 538 454 538 415 c 2,8,-1
 538 38 l 1,9,-1
 578 38 l 1,10,-1
 578 0 l 1,11,-1
 455 0 l 1,12,-1
 415 76 l 1,13,-1
 402 76 l 1,14,15
 382 18 382 18 353 1.5 c 128,-1,16
 324 -15 324 -15 272.5 -15 c 128,-1,17
 221 -15 221 -15 203 -14 c 128,-1,18
 185 -13 185 -13 154 -9 c 128,-1,19
 123 -5 123 -5 106 5.5 c 128,-1,20
 89 16 89 16 70.5 33.5 c 0,21,22
 35 67.0810810811 35 67.0810810811 35 150 c 0,23,24
 35 253.984375 35 253.984375 100 287.5 c 0,25,26
 132 304 132 304 165.5 309.5 c 128,-1,27
 199 315 199 315 247 315 c 2,28,-1
 348 315 l 1,29,-1
 348 490 l 1,30,-1
 234 490 l 1,31,-1
 207 379 l 1,32,-1
 92 379 l 1,0,-1
348 76 m 1,33,-1
 348 240 l 1,34,-1
 211 240 l 1,35,-1
 211 76 l 1,36,-1
 348 76 l 1,33,-1
233 780 m 1,37,-1
 444 678 l 1,38,-1
 411 586 l 1,39,-1
 184 645 l 1,40,-1
 233 780 l 1,37,-1
EndSplineSet
EndChar

StartChar: egrave
Encoding: 232 232 114
Width: 593
Flags: HMW
HStem: -15 75<250 340.5> 235 75<250 331 250 387> 490 75<250 387.5 261 387> 586 21G<409 409> 760 20G<231 231>
VStem: 60 190<184 235 310 314 314 439.5> 387 156<317.5 482.5 317.5 490 317.5 490>
LayerCount: 2
Fore
SplineSet
250 490 m 1,0,-1
 250 310 l 1,1,-1
 387 310 l 1,2,-1
 387 490 l 1,3,-1
 250 490 l 1,0,-1
250 60 m 1,4,-1
 375 60 l 1,5,-1
 401 171 l 1,6,-1
 508 171 l 1,7,-1
 531 15 l 1,8,9
 413 -15 413 -15 306 -15 c 0,10,11
 265 -15 265 -15 236 -12.5 c 128,-1,12
 207 -10 207 -10 171 1.5 c 128,-1,13
 135 13 135 13 113 33.5 c 128,-1,14
 91 54 91 54 75.5 92.5 c 128,-1,15
 60 131 60 131 60 184 c 2,16,-1
 60 314 l 2,17,18
 60 439.24137931 60 439.24137931 99.5 491 c 0,19,20
 114 510 114 510 126.5 522 c 128,-1,21
 139 534 139 534 161 542.5 c 128,-1,22
 183 551 183 551 198 555.5 c 128,-1,23
 213 560 213 560 241 562 c 0,24,25
 283 565 283 565 323 565 c 128,-1,26
 363 565 363 565 379 564.5 c 128,-1,27
 395 564 395 564 422 561 c 128,-1,28
 449 558 449 558 462.5 552 c 128,-1,29
 476 546 476 546 494.5 534 c 128,-1,30
 513 522 513 522 521.5 505 c 128,-1,31
 530 488 530 488 536.5 461.5 c 128,-1,32
 543 435 543 435 543 400 c 128,-1,33
 543 365 543 365 536.5 338.5 c 128,-1,34
 530 312 530 312 521.5 295 c 128,-1,35
 513 278 513 278 494.5 266 c 128,-1,36
 476 254 476 254 462.5 248 c 128,-1,37
 449 242 449 242 422 239 c 0,38,39
 386 235 386 235 331 235 c 2,40,-1
 250 235 l 1,41,-1
 250 60 l 1,4,-1
231 780 m 1,42,-1
 442 678 l 1,43,-1
 409 586 l 1,44,-1
 182 645 l 1,45,-1
 231 780 l 1,42,-1
EndSplineSet
EndChar

StartChar: igrave
Encoding: 236 236 115
Width: 355
Flags: HMW
HStem: 0 21G<45 315 45 45> 530 20G<45 275 275 275> 586 21G<275 275> 760 20G<97 97>
VStem: 85 190<38 512 512 512>
LayerCount: 2
Fore
SplineSet
315 0 m 1,0,-1
 45 0 l 1,1,-1
 45 38 l 1,2,-1
 85 38 l 1,3,-1
 85 512 l 1,4,-1
 45 512 l 1,5,-1
 45 550 l 1,6,-1
 275 550 l 1,7,-1
 275 38 l 1,8,-1
 315 38 l 1,9,-1
 315 0 l 1,0,-1
97 780 m 1,10,-1
 308 678 l 1,11,-1
 275 586 l 1,12,-1
 48 645 l 1,13,-1
 97 780 l 1,10,-1
EndSplineSet
EndChar

StartChar: ograve
Encoding: 242 242 116
Width: 647
Flags: HMW
HStem: -15 75<250 383> 490 75<264 397 250 403> 586 21G<441 441> 760 20G<263 263>
VStem: 60 190<236 314 314 439.5> 397 190<110.5 236 236 314 110.5 490>
LayerCount: 2
Fore
SplineSet
587 314 m 2,0,-1
 587 236 l 2,1,2
 587 109.666666667 587 109.666666667 547 59 c 0,3,4
 532 40 532 40 520 28 c 128,-1,5
 508 16 508 16 485 7.5 c 128,-1,6
 462 -1 462 -1 447 -5.5 c 128,-1,7
 432 -10 432 -10 403.5 -12 c 0,8,9
 310.678899083 -18.5137614679 310.678899083 -18.5137614679 255.339449541 -14.2568807339 c 128,-1,10
 200 -10 200 -10 186 -5.5 c 128,-1,11
 172 -1 172 -1 151.5 7.5 c 128,-1,12
 131 16 131 16 120 28 c 128,-1,13
 109 40 109 40 95.5 59 c 128,-1,14
 82 78 82 78 75.5 103 c 0,15,16
 60 162.615384615 60 162.615384615 60 236 c 2,17,-1
 60 314 l 2,18,19
 60 440.333333333 60 440.333333333 100 491 c 0,20,21
 115 510 115 510 127 522 c 128,-1,22
 139 534 139 534 162 542.5 c 128,-1,23
 185 551 185 551 200 555.5 c 128,-1,24
 215 560 215 560 243.5 562 c 0,25,26
 286.25 565 286.25 565 326.125 565 c 128,-1,27
 366 565 366 565 380.5 564.5 c 128,-1,28
 395 564 395 564 421 562 c 128,-1,29
 447 560 447 560 461 555.5 c 128,-1,30
 475 551 475 551 495.5 542.5 c 128,-1,31
 516 534 516 534 527 522 c 128,-1,32
 538 510 538 510 551.5 491 c 128,-1,33
 565 472 565 472 571.5 447 c 0,34,35
 587 387.384615385 587 387.384615385 587 314 c 2,0,-1
397 60 m 1,36,-1
 397 490 l 1,37,-1
 250 490 l 1,38,-1
 250 60 l 1,39,-1
 397 60 l 1,36,-1
263 780 m 1,40,-1
 474 678 l 1,41,-1
 441 586 l 1,42,-1
 214 645 l 1,43,-1
 263 780 l 1,40,-1
EndSplineSet
EndChar

StartChar: ugrave
Encoding: 249 249 117
Width: 692
Flags: HMW
HStem: -15 21G<263 363> 0 21G<524 647 524 524> 530 20G<40 270 270 270 417 607 607 607> 586 21G<443 443> 760 20G<265 265>
VStem: 80 190<150 512 512 512> 417 190<76 550 38 550>
LayerCount: 2
Fore
SplineSet
80 150 m 2,0,-1
 80 512 l 1,1,-1
 40 512 l 1,2,-1
 40 550 l 1,3,-1
 270 550 l 1,4,-1
 270 76 l 1,5,-1
 417 76 l 1,6,-1
 417 550 l 1,7,-1
 607 550 l 1,8,-1
 607 38 l 1,9,-1
 647 38 l 1,10,-1
 647 0 l 1,11,-1
 524 0 l 1,12,-1
 484 76 l 1,13,-1
 471 76 l 1,14,15
 471 23 471 23 432.5 4 c 128,-1,16
 394 -15 394 -15 316 -15 c 0,17,18
 213.25 -15 213.25 -15 177.5 -2 c 0,19,20
 126.829787234 16.4255319149 126.829787234 16.4255319149 107.5 45 c 0,21,22
 80 85.652173913 80 85.652173913 80 150 c 2,0,-1
265 780 m 1,23,-1
 476 678 l 1,24,-1
 443 586 l 1,25,-1
 216 645 l 1,26,-1
 265 780 l 1,23,-1
EndSplineSet
EndChar

StartChar: yacute
Encoding: 253 253 118
Width: 598
Flags: HMW
HStem: -195 21G<189 265> 530 20G<20 261 261 261 382 563 563 563> 586 21G<234 234> 760 20G<412 412>
LayerCount: 2
Fore
SplineSet
382 550 m 1,0,-1
 563 550 l 1,1,-1
 458 31 l 2,2,3
 435 -81 435 -81 367.5 -138 c 128,-1,4
 300 -195 300 -195 203 -195 c 0,5,6
 135 -195 135 -195 98 -187 c 1,7,-1
 118 -30 l 1,8,-1
 240 -30 l 1,9,-1
 240 23 l 2,10,11
 240 35 240 35 235 41 c 0,12,13
 228.333333333 49 228.333333333 49 210 49 c 2,14,-1
 125 49 l 1,15,-1
 59 512 l 1,16,-1
 20 512 l 1,17,-1
 20 550 l 1,18,-1
 261 550 l 1,19,-1
 309 49 l 1,20,-1
 382 49 l 1,21,-1
 382 550 l 1,0,-1
201 678 m 1,22,-1
 412 780 l 1,23,-1
 461 645 l 1,24,-1
 234 586 l 1,25,-1
 201 678 l 1,22,-1
EndSplineSet
EndChar

StartChar: atilde
Encoding: 227 227 119
Width: 618
Flags: HMW
HStem: -15 21G<204.5 299> 0 21G<455 578 455 455> 240 75<247 348 247 348 211 348> 490 75<260.5 346.5 260.5 348 234 346.5> 583 21G<335.5 389> 624 20G<236 248 236 236> 745 20G<234.5 288>
VStem: 35 176<76 223> 348 190<76 240 240 240 315 415 38 490 38 490>
LayerCount: 2
Fore
SplineSet
92 379 m 1,0,-1
 68 535 l 1,1,2
 181 565 181 565 295 565 c 0,3,4
 424.129032258 565 424.129032258 565 482.5 526.5 c 0,5,6
 506 511 506 511 522 482.5 c 128,-1,7
 538 454 538 454 538 415 c 2,8,-1
 538 38 l 1,9,-1
 578 38 l 1,10,-1
 578 0 l 1,11,-1
 455 0 l 1,12,-1
 415 76 l 1,13,-1
 402 76 l 1,14,15
 382 18 382 18 353 1.5 c 128,-1,16
 324 -15 324 -15 272.5 -15 c 128,-1,17
 221 -15 221 -15 203 -14 c 128,-1,18
 185 -13 185 -13 154 -9 c 128,-1,19
 123 -5 123 -5 106 5.5 c 128,-1,20
 89 16 89 16 70.5 33.5 c 0,21,22
 35 67.0810810811 35 67.0810810811 35 150 c 0,23,24
 35 253.984375 35 253.984375 100 287.5 c 0,25,26
 132 304 132 304 165.5 309.5 c 128,-1,27
 199 315 199 315 247 315 c 2,28,-1
 348 315 l 1,29,-1
 348 490 l 1,30,-1
 234 490 l 1,31,-1
 207 379 l 1,32,-1
 92 379 l 1,0,-1
348 76 m 1,33,-1
 348 240 l 1,34,-1
 211 240 l 1,35,-1
 211 76 l 1,36,-1
 348 76 l 1,33,-1
489 741 m 1,37,-1
 478 684 l 2,38,39
 459 583 459 583 360 583 c 0,40,41
 290 583 290 583 248 644 c 1,42,-1
 236 644 l 1,43,-1
 208 593 l 1,44,-1
 136 606 l 1,45,-1
 146 663 l 2,46,47
 164 765 164 765 263 765 c 0,48,49
 335 765 335 765 376 703 c 1,50,-1
 388 703 l 1,51,-1
 416 755 l 1,52,-1
 489 741 l 1,37,-1
EndSplineSet
EndChar

StartChar: otilde
Encoding: 245 245 120
Width: 647
Flags: HMW
HStem: -15 75<250 383> 490 75<264 397 250 403> 583 21G<346.5 400> 624 20G<247 259 247 247> 745 20G<245.5 299>
VStem: 60 190<236 314 314 439.5> 397 190<110.5 236 236 314 110.5 490>
LayerCount: 2
Fore
SplineSet
587 314 m 2,0,-1
 587 236 l 2,1,2
 587 109.666666667 587 109.666666667 547 59 c 0,3,4
 532 40 532 40 520 28 c 128,-1,5
 508 16 508 16 485 7.5 c 128,-1,6
 462 -1 462 -1 447 -5.5 c 128,-1,7
 432 -10 432 -10 403.5 -12 c 0,8,9
 310.678899083 -18.5137614679 310.678899083 -18.5137614679 255.339449541 -14.2568807339 c 128,-1,10
 200 -10 200 -10 186 -5.5 c 128,-1,11
 172 -1 172 -1 151.5 7.5 c 128,-1,12
 131 16 131 16 120 28 c 128,-1,13
 109 40 109 40 95.5 59 c 128,-1,14
 82 78 82 78 75.5 103 c 0,15,16
 60 162.615384615 60 162.615384615 60 236 c 2,17,-1
 60 314 l 2,18,19
 60 440.333333333 60 440.333333333 100 491 c 0,20,21
 115 510 115 510 127 522 c 128,-1,22
 139 534 139 534 162 542.5 c 128,-1,23
 185 551 185 551 200 555.5 c 128,-1,24
 215 560 215 560 243.5 562 c 0,25,26
 286.25 565 286.25 565 326.125 565 c 128,-1,27
 366 565 366 565 380.5 564.5 c 128,-1,28
 395 564 395 564 421 562 c 128,-1,29
 447 560 447 560 461 555.5 c 128,-1,30
 475 551 475 551 495.5 542.5 c 128,-1,31
 516 534 516 534 527 522 c 128,-1,32
 538 510 538 510 551.5 491 c 128,-1,33
 565 472 565 472 571.5 447 c 0,34,35
 587 387.384615385 587 387.384615385 587 314 c 2,0,-1
397 60 m 1,36,-1
 397 490 l 1,37,-1
 250 490 l 1,38,-1
 250 60 l 1,39,-1
 397 60 l 1,36,-1
500 741 m 1,40,-1
 489 684 l 2,41,42
 470 583 470 583 371 583 c 0,43,44
 301 583 301 583 259 644 c 1,45,-1
 247 644 l 1,46,-1
 219 593 l 1,47,-1
 147 606 l 1,48,-1
 157 663 l 2,49,50
 175 765 175 765 274 765 c 0,51,52
 346 765 346 765 387 703 c 1,53,-1
 399 703 l 1,54,-1
 427 755 l 1,55,-1
 500 741 l 1,40,-1
EndSplineSet
EndChar

StartChar: Atilde
Encoding: 195 195 121
Width: 582
Flags: HMW
HStem: 0 21G<-35 617 -35 -35 186 327 327 327> 150 55<186 308 186 313 186 308> 615 20G<31 483 483 483> 668 21G<313.5 367> 709 20G<214 226 214 214> 830 20G<212.5 266>
LayerCount: 2
Fore
SplineSet
31 597 m 1,0,-1
 31 635 l 1,1,-1
 483 635 l 1,2,-1
 575 38 l 1,3,-1
 617 38 l 1,4,-1
 617 0 l 1,5,-1
 -35 0 l 1,6,-1
 -35 38 l 1,7,-1
 6 38 l 1,8,-1
 93 597 l 1,9,-1
 31 597 l 1,0,-1
186 575 m 1,10,-1
 186 205 l 1,11,-1
 308 205 l 1,12,-1
 275 575 l 1,13,-1
 186 575 l 1,10,-1
186 0 m 1,14,-1
 327 0 l 1,15,-1
 313 150 l 1,16,-1
 186 150 l 1,17,-1
 186 0 l 1,14,-1
467 826 m 1,18,-1
 456 769 l 2,19,20
 437 668 437 668 338 668 c 0,21,22
 268 668 268 668 226 729 c 1,23,-1
 214 729 l 1,24,-1
 186 678 l 1,25,-1
 114 691 l 1,26,-1
 124 748 l 2,27,28
 142 850 142 850 241 850 c 0,29,30
 313 850 313 850 354 788 c 1,31,-1
 366 788 l 1,32,-1
 394 840 l 1,33,-1
 467 826 l 1,18,-1
EndSplineSet
EndChar

StartChar: Otilde
Encoding: 213 213 122
Width: 620
Flags: HMW
HStem: -15 72<235 375.5> 579 71<245 385 235 397.5> 668 21G<332.5 386> 709 20G<233 245 233 233> 830 20G<231.5 285>
VStem: 20 215<262 374 374 512> 385 215<123.5 262 262 374 123.5 579>
LayerCount: 2
Fore
SplineSet
600 374 m 2,0,-1
 600 262 l 2,1,2
 600 180.8125 600 180.8125 581 115.5 c 0,3,4
 569.307692308 75.3076923077 569.307692308 75.3076923077 526.5 32.5 c 0,5,6
 507.47826087 13.4782608696 507.47826087 13.4782608696 446.5 -5 c 0,7,8
 399.430594901 -19.2634560907 399.430594901 -19.2634560907 247 -14.5 c 0,9,10
 181.344827586 -12.4482758621 181.344827586 -12.4482758621 162.672413793 -6.22413793103 c 128,-1,11
 144 0 144 0 121.5 9.5 c 128,-1,12
 99 19 99 19 86.5 32.5 c 128,-1,13
 74 46 74 46 59.5 67 c 128,-1,14
 45 88 45 88 37.5 115.5 c 0,15,16
 20 179.666666667 20 179.666666667 20 262 c 2,17,-1
 20 374 l 2,18,19
 20 454 20 454 38 508.5 c 128,-1,20
 56 563 56 563 79 590.5 c 128,-1,21
 102 618 102 618 150 632 c 128,-1,22
 198 646 198 646 230 648 c 128,-1,23
 262 650 262 650 309.5 650 c 128,-1,24
 357 650 357 650 373 649.5 c 128,-1,25
 389 649 389 649 417.5 647 c 128,-1,26
 446 645 446 645 461 640 c 128,-1,27
 476 635 476 635 498.5 625.5 c 128,-1,28
 521 616 521 616 533.5 602.5 c 128,-1,29
 546 589 546 589 560.5 568 c 128,-1,30
 575 547 575 547 582.5 520 c 0,31,32
 600 457 600 457 600 374 c 2,0,-1
385 57 m 1,33,-1
 385 579 l 1,34,-1
 235 579 l 1,35,-1
 235 57 l 1,36,-1
 385 57 l 1,33,-1
486 826 m 1,37,-1
 475 769 l 2,38,39
 456 668 456 668 357 668 c 0,40,41
 287 668 287 668 245 729 c 1,42,-1
 233 729 l 1,43,-1
 205 678 l 1,44,-1
 133 691 l 1,45,-1
 143 748 l 2,46,47
 161 850 161 850 260 850 c 0,48,49
 332 850 332 850 373 788 c 1,50,-1
 385 788 l 1,51,-1
 413 840 l 1,52,-1
 486 826 l 1,37,-1
EndSplineSet
EndChar

StartChar: Ugrave
Encoding: 217 217 123
Width: 648
Flags: HMW
HStem: -15 72<274 403> 615 20G<10 274 274 274 424 638 638 638> 671 21G<441 441> 845 20G<263 263>
VStem: 54 220<234 597 597 597> 424 170<109.5 234 234 597>
LayerCount: 2
Fore
SplineSet
274 57 m 1,0,-1
 424 57 l 1,1,-1
 424 635 l 1,2,-1
 638 635 l 1,3,-1
 638 597 l 1,4,-1
 594 597 l 1,5,-1
 594 234 l 2,6,7
 594 164.692307692 594 164.692307692 582.5 121.346153846 c 128,-1,8
 571 78 571 78 557 59 c 128,-1,9
 543 40 543 40 531.5 27.5 c 128,-1,10
 520 15 520 15 498.5 6.5 c 128,-1,11
 477 -2 477 -2 463 -6 c 128,-1,12
 449 -10 449 -10 422 -12 c 0,13,14
 168.508356546 -30.7771587744 168.508356546 -30.7771587744 108.5 39 c 0,15,16
 87 64 87 64 70.5 113 c 128,-1,17
 54 162 54 162 54 234 c 2,18,-1
 54 597 l 1,19,-1
 10 597 l 1,20,-1
 10 635 l 1,21,-1
 274 635 l 1,22,-1
 274 57 l 1,0,-1
263 865 m 1,23,-1
 474 763 l 1,24,-1
 441 671 l 1,25,-1
 214 730 l 1,26,-1
 263 865 l 1,23,-1
EndSplineSet
EndChar

StartChar: Agrave
Encoding: 192 192 124
Width: 582
Flags: HMW
HStem: 0 21G<-35 617 -35 -35 186 327 327 327> 150 55<186 308 186 313 186 308> 615 20G<31 483 483 483> 671 21G<388 388> 845 20G<210 210>
LayerCount: 2
Fore
SplineSet
31 597 m 1,0,-1
 31 635 l 1,1,-1
 483 635 l 1,2,-1
 575 38 l 1,3,-1
 617 38 l 1,4,-1
 617 0 l 1,5,-1
 -35 0 l 1,6,-1
 -35 38 l 1,7,-1
 6 38 l 1,8,-1
 93 597 l 1,9,-1
 31 597 l 1,0,-1
186 575 m 1,10,-1
 186 205 l 1,11,-1
 308 205 l 1,12,-1
 275 575 l 1,13,-1
 186 575 l 1,10,-1
186 0 m 1,14,-1
 327 0 l 1,15,-1
 313 150 l 1,16,-1
 186 150 l 1,17,-1
 186 0 l 1,14,-1
210 865 m 1,18,-1
 421 763 l 1,19,-1
 388 671 l 1,20,-1
 161 730 l 1,21,-1
 210 865 l 1,18,-1
EndSplineSet
EndChar

StartChar: Egrave
Encoding: 200 200 125
Width: 591
Flags: HMW
HStem: 0 21G<30 30 30 536> 284 55<289 480 289 480> 615 20G<30 536 536 536> 671 21G<393 393> 845 20G<215 215>
VStem: 74 215<60 284 339 575>
LayerCount: 2
Fore
SplineSet
30 0 m 1,0,-1
 30 38 l 1,1,-1
 74 38 l 1,2,-1
 74 597 l 1,3,-1
 30 597 l 1,4,-1
 30 635 l 1,5,-1
 536 635 l 1,6,-1
 536 421 l 1,7,-1
 419 421 l 1,8,-1
 378 575 l 1,9,-1
 289 575 l 1,10,-1
 289 339 l 1,11,-1
 480 339 l 1,12,-1
 480 284 l 1,13,-1
 289 284 l 1,14,-1
 289 60 l 1,15,-1
 378 60 l 1,16,-1
 419 214 l 1,17,-1
 536 214 l 1,18,-1
 536 0 l 1,19,-1
 30 0 l 1,0,-1
215 865 m 1,20,-1
 426 763 l 1,21,-1
 393 671 l 1,22,-1
 166 730 l 1,23,-1
 215 865 l 1,20,-1
EndSplineSet
EndChar

StartChar: Igrave
Encoding: 204 204 126
Width: 423
Flags: HMW
HStem: 0 21G<60 363 60 60> 615 20G<60 363 363 363> 671 21G<309 309> 845 20G<131 131>
VStem: 104 215<38 597 38 597>
LayerCount: 2
Fore
SplineSet
363 597 m 1,0,-1
 319 597 l 1,1,-1
 319 38 l 1,2,-1
 363 38 l 1,3,-1
 363 0 l 1,4,-1
 60 0 l 1,5,-1
 60 38 l 1,6,-1
 104 38 l 1,7,-1
 104 597 l 1,8,-1
 60 597 l 1,9,-1
 60 635 l 1,10,-1
 363 635 l 1,11,-1
 363 597 l 1,0,-1
131 865 m 1,12,-1
 342 763 l 1,13,-1
 309 671 l 1,14,-1
 82 730 l 1,15,-1
 131 865 l 1,12,-1
EndSplineSet
EndChar

StartChar: Ograve
Encoding: 210 210 127
Width: 620
Flags: HMW
HStem: -15 72<235 375.5> 579 71<245 385 235 397.5> 671 21G<407 407> 845 20G<229 229>
VStem: 20 215<262 374 374 512> 385 215<123.5 262 262 374 123.5 579>
LayerCount: 2
Fore
SplineSet
600 374 m 2,0,-1
 600 262 l 2,1,2
 600 180.8125 600 180.8125 581 115.5 c 0,3,4
 569.307692308 75.3076923077 569.307692308 75.3076923077 526.5 32.5 c 0,5,6
 507.47826087 13.4782608696 507.47826087 13.4782608696 446.5 -5 c 0,7,8
 399.430594901 -19.2634560907 399.430594901 -19.2634560907 247 -14.5 c 0,9,10
 181.344827586 -12.4482758621 181.344827586 -12.4482758621 162.672413793 -6.22413793103 c 128,-1,11
 144 0 144 0 121.5 9.5 c 128,-1,12
 99 19 99 19 86.5 32.5 c 128,-1,13
 74 46 74 46 59.5 67 c 128,-1,14
 45 88 45 88 37.5 115.5 c 0,15,16
 20 179.666666667 20 179.666666667 20 262 c 2,17,-1
 20 374 l 2,18,19
 20 454 20 454 38 508.5 c 128,-1,20
 56 563 56 563 79 590.5 c 128,-1,21
 102 618 102 618 150 632 c 128,-1,22
 198 646 198 646 230 648 c 128,-1,23
 262 650 262 650 309.5 650 c 128,-1,24
 357 650 357 650 373 649.5 c 128,-1,25
 389 649 389 649 417.5 647 c 128,-1,26
 446 645 446 645 461 640 c 128,-1,27
 476 635 476 635 498.5 625.5 c 128,-1,28
 521 616 521 616 533.5 602.5 c 128,-1,29
 546 589 546 589 560.5 568 c 128,-1,30
 575 547 575 547 582.5 520 c 0,31,32
 600 457 600 457 600 374 c 2,0,-1
385 57 m 1,33,-1
 385 579 l 1,34,-1
 235 579 l 1,35,-1
 235 57 l 1,36,-1
 385 57 l 1,33,-1
229 865 m 1,37,-1
 440 763 l 1,38,-1
 407 671 l 1,39,-1
 180 730 l 1,40,-1
 229 865 l 1,37,-1
EndSplineSet
EndChar

StartChar: circumflex
Encoding: 710 710 128
Width: 402
Flags: HMW
HStem: 586 21G<94 94 308 308> 767 20G<153 249 249 249>
LayerCount: 2
Fore
SplineSet
249 787 m 1,0,-1
 367 657 l 1,1,-1
 308 586 l 1,2,-1
 201 662 l 1,3,-1
 94 586 l 1,4,-1
 35 657 l 1,5,-1
 153 787 l 1,6,-1
 249 787 l 1,0,-1
EndSplineSet
EndChar

StartChar: acircumflex
Encoding: 226 226 129
Width: 618
Flags: HMW
HStem: -15 21G<204.5 299> 0 21G<455 578 455 455> 240 75<247 348 247 348 211 348> 490 75<260.5 346.5 260.5 348 234 346.5> 586 21G<207 207 421 421> 767 20G<266 362 362 362>
VStem: 35 176<76 223> 348 190<76 240 240 240 315 415 38 490 38 490>
LayerCount: 2
Fore
SplineSet
92 379 m 1,0,-1
 68 535 l 1,1,2
 181 565 181 565 295 565 c 0,3,4
 424.129032258 565 424.129032258 565 482.5 526.5 c 0,5,6
 506 511 506 511 522 482.5 c 128,-1,7
 538 454 538 454 538 415 c 2,8,-1
 538 38 l 1,9,-1
 578 38 l 1,10,-1
 578 0 l 1,11,-1
 455 0 l 1,12,-1
 415 76 l 1,13,-1
 402 76 l 1,14,15
 382 18 382 18 353 1.5 c 128,-1,16
 324 -15 324 -15 272.5 -15 c 128,-1,17
 221 -15 221 -15 203 -14 c 128,-1,18
 185 -13 185 -13 154 -9 c 128,-1,19
 123 -5 123 -5 106 5.5 c 128,-1,20
 89 16 89 16 70.5 33.5 c 0,21,22
 35 67.0810810811 35 67.0810810811 35 150 c 0,23,24
 35 253.984375 35 253.984375 100 287.5 c 0,25,26
 132 304 132 304 165.5 309.5 c 128,-1,27
 199 315 199 315 247 315 c 2,28,-1
 348 315 l 1,29,-1
 348 490 l 1,30,-1
 234 490 l 1,31,-1
 207 379 l 1,32,-1
 92 379 l 1,0,-1
348 76 m 1,33,-1
 348 240 l 1,34,-1
 211 240 l 1,35,-1
 211 76 l 1,36,-1
 348 76 l 1,33,-1
362 787 m 1,37,-1
 480 657 l 1,38,-1
 421 586 l 1,39,-1
 314 662 l 1,40,-1
 207 586 l 1,41,-1
 148 657 l 1,42,-1
 266 787 l 1,43,-1
 362 787 l 1,37,-1
EndSplineSet
EndChar

StartChar: ecircumflex
Encoding: 234 234 130
Width: 593
Flags: HMW
HStem: -15 75<250 340.5> 235 75<250 331 250 387> 490 75<250 387.5 261 387> 586 21G<204 204 418 418> 767 20G<263 359 359 359>
VStem: 60 190<184 235 310 314 314 439.5> 387 156<317.5 482.5 317.5 490 317.5 490>
LayerCount: 2
Fore
SplineSet
250 490 m 1,0,-1
 250 310 l 1,1,-1
 387 310 l 1,2,-1
 387 490 l 1,3,-1
 250 490 l 1,0,-1
250 60 m 1,4,-1
 375 60 l 1,5,-1
 401 171 l 1,6,-1
 508 171 l 1,7,-1
 531 15 l 1,8,9
 413 -15 413 -15 306 -15 c 0,10,11
 265 -15 265 -15 236 -12.5 c 128,-1,12
 207 -10 207 -10 171 1.5 c 128,-1,13
 135 13 135 13 113 33.5 c 128,-1,14
 91 54 91 54 75.5 92.5 c 128,-1,15
 60 131 60 131 60 184 c 2,16,-1
 60 314 l 2,17,18
 60 439.24137931 60 439.24137931 99.5 491 c 0,19,20
 114 510 114 510 126.5 522 c 128,-1,21
 139 534 139 534 161 542.5 c 128,-1,22
 183 551 183 551 198 555.5 c 128,-1,23
 213 560 213 560 241 562 c 0,24,25
 283 565 283 565 323 565 c 128,-1,26
 363 565 363 565 379 564.5 c 128,-1,27
 395 564 395 564 422 561 c 128,-1,28
 449 558 449 558 462.5 552 c 128,-1,29
 476 546 476 546 494.5 534 c 128,-1,30
 513 522 513 522 521.5 505 c 128,-1,31
 530 488 530 488 536.5 461.5 c 128,-1,32
 543 435 543 435 543 400 c 128,-1,33
 543 365 543 365 536.5 338.5 c 128,-1,34
 530 312 530 312 521.5 295 c 128,-1,35
 513 278 513 278 494.5 266 c 128,-1,36
 476 254 476 254 462.5 248 c 128,-1,37
 449 242 449 242 422 239 c 0,38,39
 386 235 386 235 331 235 c 2,40,-1
 250 235 l 1,41,-1
 250 60 l 1,4,-1
359 787 m 1,42,-1
 477 657 l 1,43,-1
 418 586 l 1,44,-1
 311 662 l 1,45,-1
 204 586 l 1,46,-1
 145 657 l 1,47,-1
 263 787 l 1,48,-1
 359 787 l 1,42,-1
EndSplineSet
EndChar

StartChar: icircumflex
Encoding: 238 238 131
Width: 355
Flags: HMW
HStem: 0 21G<45 315 45 45> 530 20G<45 275 275 275> 586 21G<71 71 285 285> 767 20G<130 226 226 226>
VStem: 85 190<38 512 512 512>
LayerCount: 2
Fore
SplineSet
315 0 m 1,0,-1
 45 0 l 1,1,-1
 45 38 l 1,2,-1
 85 38 l 1,3,-1
 85 512 l 1,4,-1
 45 512 l 1,5,-1
 45 550 l 1,6,-1
 275 550 l 1,7,-1
 275 38 l 1,8,-1
 315 38 l 1,9,-1
 315 0 l 1,0,-1
226 787 m 1,10,-1
 344 657 l 1,11,-1
 285 586 l 1,12,-1
 178 662 l 1,13,-1
 71 586 l 1,14,-1
 12 657 l 1,15,-1
 130 787 l 1,16,-1
 226 787 l 1,10,-1
EndSplineSet
EndChar

StartChar: ocircumflex
Encoding: 244 244 132
Width: 647
Flags: HMW
HStem: -15 75<250 383> 490 75<264 397 250 403> 586 21G<216 216 430 430> 767 20G<275 371 371 371>
VStem: 60 190<236 314 314 439.5> 397 190<110.5 236 236 314 110.5 490>
LayerCount: 2
Fore
SplineSet
587 314 m 2,0,-1
 587 236 l 2,1,2
 587 109.666666667 587 109.666666667 547 59 c 0,3,4
 532 40 532 40 520 28 c 128,-1,5
 508 16 508 16 485 7.5 c 128,-1,6
 462 -1 462 -1 447 -5.5 c 128,-1,7
 432 -10 432 -10 403.5 -12 c 0,8,9
 310.678899083 -18.5137614679 310.678899083 -18.5137614679 255.339449541 -14.2568807339 c 128,-1,10
 200 -10 200 -10 186 -5.5 c 128,-1,11
 172 -1 172 -1 151.5 7.5 c 128,-1,12
 131 16 131 16 120 28 c 128,-1,13
 109 40 109 40 95.5 59 c 128,-1,14
 82 78 82 78 75.5 103 c 0,15,16
 60 162.615384615 60 162.615384615 60 236 c 2,17,-1
 60 314 l 2,18,19
 60 440.333333333 60 440.333333333 100 491 c 0,20,21
 115 510 115 510 127 522 c 128,-1,22
 139 534 139 534 162 542.5 c 128,-1,23
 185 551 185 551 200 555.5 c 128,-1,24
 215 560 215 560 243.5 562 c 0,25,26
 286.25 565 286.25 565 326.125 565 c 128,-1,27
 366 565 366 565 380.5 564.5 c 128,-1,28
 395 564 395 564 421 562 c 128,-1,29
 447 560 447 560 461 555.5 c 128,-1,30
 475 551 475 551 495.5 542.5 c 128,-1,31
 516 534 516 534 527 522 c 128,-1,32
 538 510 538 510 551.5 491 c 128,-1,33
 565 472 565 472 571.5 447 c 0,34,35
 587 387.384615385 587 387.384615385 587 314 c 2,0,-1
397 60 m 1,36,-1
 397 490 l 1,37,-1
 250 490 l 1,38,-1
 250 60 l 1,39,-1
 397 60 l 1,36,-1
371 787 m 1,40,-1
 489 657 l 1,41,-1
 430 586 l 1,42,-1
 323 662 l 1,43,-1
 216 586 l 1,44,-1
 157 657 l 1,45,-1
 275 787 l 1,46,-1
 371 787 l 1,40,-1
EndSplineSet
EndChar

StartChar: ucircumflex
Encoding: 251 251 133
Width: 692
Flags: HMW
HStem: -15 21G<263 363> 0 21G<524 647 524 524> 530 20G<40 270 270 270 417 607 607 607> 586 21G<239 239 453 453> 767 20G<298 394 394 394>
VStem: 80 190<150 512 512 512> 417 190<76 550 38 550>
LayerCount: 2
Fore
SplineSet
80 150 m 2,0,-1
 80 512 l 1,1,-1
 40 512 l 1,2,-1
 40 550 l 1,3,-1
 270 550 l 1,4,-1
 270 76 l 1,5,-1
 417 76 l 1,6,-1
 417 550 l 1,7,-1
 607 550 l 1,8,-1
 607 38 l 1,9,-1
 647 38 l 1,10,-1
 647 0 l 1,11,-1
 524 0 l 1,12,-1
 484 76 l 1,13,-1
 471 76 l 1,14,15
 471 23 471 23 432.5 4 c 128,-1,16
 394 -15 394 -15 316 -15 c 0,17,18
 213.25 -15 213.25 -15 177.5 -2 c 0,19,20
 126.829787234 16.4255319149 126.829787234 16.4255319149 107.5 45 c 0,21,22
 80 85.652173913 80 85.652173913 80 150 c 2,0,-1
394 787 m 1,23,-1
 512 657 l 1,24,-1
 453 586 l 1,25,-1
 346 662 l 1,26,-1
 239 586 l 1,27,-1
 180 657 l 1,28,-1
 298 787 l 1,29,-1
 394 787 l 1,23,-1
EndSplineSet
EndChar

StartChar: Acircumflex
Encoding: 194 194 134
Width: 582
Flags: HMW
HStem: 0 21G<-35 186 -35 -35 327 327 327 617> 150 55<186 308 186 313 186 308> 615 20G<31 483 483 483> 671 21G<184 184 398 398> 852 20G<243 339 339 339>
LayerCount: 2
Fore
SplineSet
186 0 m 1,0,-1
 -35 0 l 1,1,-1
 -35 38 l 1,2,-1
 6 38 l 1,3,-1
 93 597 l 1,4,-1
 31 597 l 1,5,-1
 31 635 l 1,6,-1
 483 635 l 1,7,-1
 575 38 l 1,8,-1
 617 38 l 1,9,-1
 617 0 l 1,10,-1
 327 0 l 1,11,-1
 313 150 l 1,12,-1
 186 150 l 1,13,-1
 186 0 l 1,0,-1
339 872 m 1,14,-1
 457 742 l 1,15,-1
 398 671 l 1,16,-1
 291 747 l 1,17,-1
 184 671 l 1,18,-1
 125 742 l 1,19,-1
 243 872 l 1,20,-1
 339 872 l 1,14,-1
186 575 m 1,21,-1
 186 205 l 1,22,-1
 308 205 l 1,23,-1
 275 575 l 1,24,-1
 186 575 l 1,21,-1
EndSplineSet
EndChar

StartChar: Ecircumflex
Encoding: 202 202 135
Width: 591
Flags: HMW
HStem: 0 21G<30 30 30 536> 284 55<289 480 289 480> 615 20G<30 536 536 536> 671 21G<188 188 402 402> 852 20G<247 343 343 343>
VStem: 74 215<60 284 339 575>
LayerCount: 2
Fore
SplineSet
30 0 m 1,0,-1
 30 38 l 1,1,-1
 74 38 l 1,2,-1
 74 597 l 1,3,-1
 30 597 l 1,4,-1
 30 635 l 1,5,-1
 536 635 l 1,6,-1
 536 421 l 1,7,-1
 419 421 l 1,8,-1
 378 575 l 1,9,-1
 289 575 l 1,10,-1
 289 339 l 1,11,-1
 480 339 l 1,12,-1
 480 284 l 1,13,-1
 289 284 l 1,14,-1
 289 60 l 1,15,-1
 378 60 l 1,16,-1
 419 214 l 1,17,-1
 536 214 l 1,18,-1
 536 0 l 1,19,-1
 30 0 l 1,0,-1
343 872 m 1,20,-1
 461 742 l 1,21,-1
 402 671 l 1,22,-1
 295 747 l 1,23,-1
 188 671 l 1,24,-1
 129 742 l 1,25,-1
 247 872 l 1,26,-1
 343 872 l 1,20,-1
EndSplineSet
EndChar

StartChar: Icircumflex
Encoding: 206 206 136
Width: 423
Flags: HMW
HStem: 0 21G<60 363 60 60> 615 20G<60 363 363 363> 671 21G<104 104 318 318> 852 20G<163 259 259 259>
VStem: 104 215<38 597 38 597 38 671>
LayerCount: 2
Fore
SplineSet
363 597 m 1,0,-1
 319 597 l 1,1,-1
 319 38 l 1,2,-1
 363 38 l 1,3,-1
 363 0 l 1,4,-1
 60 0 l 1,5,-1
 60 38 l 1,6,-1
 104 38 l 1,7,-1
 104 597 l 1,8,-1
 60 597 l 1,9,-1
 60 635 l 1,10,-1
 363 635 l 1,11,-1
 363 597 l 1,0,-1
259 872 m 1,12,-1
 377 742 l 1,13,-1
 318 671 l 1,14,-1
 211 747 l 1,15,-1
 104 671 l 1,16,-1
 45 742 l 1,17,-1
 163 872 l 1,18,-1
 259 872 l 1,12,-1
EndSplineSet
EndChar

StartChar: Ocircumflex
Encoding: 212 212 137
Width: 620
Flags: HMW
HStem: -15 72<235 375.5> 579 71<245 385 235 397.5> 671 21G<203 203 417 417> 852 20G<262 358 358 358>
VStem: 20 215<262 374 374 512> 385 215<123.5 262 262 374 123.5 579>
LayerCount: 2
Fore
SplineSet
600 374 m 2,0,-1
 600 262 l 2,1,2
 600 180.8125 600 180.8125 581 115.5 c 0,3,4
 569.307692308 75.3076923077 569.307692308 75.3076923077 526.5 32.5 c 0,5,6
 507.47826087 13.4782608696 507.47826087 13.4782608696 446.5 -5 c 0,7,8
 399.430594901 -19.2634560907 399.430594901 -19.2634560907 247 -14.5 c 0,9,10
 181.344827586 -12.4482758621 181.344827586 -12.4482758621 162.672413793 -6.22413793103 c 128,-1,11
 144 0 144 0 121.5 9.5 c 128,-1,12
 99 19 99 19 86.5 32.5 c 128,-1,13
 74 46 74 46 59.5 67 c 128,-1,14
 45 88 45 88 37.5 115.5 c 0,15,16
 20 179.666666667 20 179.666666667 20 262 c 2,17,-1
 20 374 l 2,18,19
 20 454 20 454 38 508.5 c 128,-1,20
 56 563 56 563 79 590.5 c 128,-1,21
 102 618 102 618 150 632 c 128,-1,22
 198 646 198 646 230 648 c 128,-1,23
 262 650 262 650 309.5 650 c 128,-1,24
 357 650 357 650 373 649.5 c 128,-1,25
 389 649 389 649 417.5 647 c 128,-1,26
 446 645 446 645 461 640 c 128,-1,27
 476 635 476 635 498.5 625.5 c 128,-1,28
 521 616 521 616 533.5 602.5 c 128,-1,29
 546 589 546 589 560.5 568 c 128,-1,30
 575 547 575 547 582.5 520 c 0,31,32
 600 457 600 457 600 374 c 2,0,-1
385 57 m 1,33,-1
 385 579 l 1,34,-1
 235 579 l 1,35,-1
 235 57 l 1,36,-1
 385 57 l 1,33,-1
358 872 m 1,37,-1
 476 742 l 1,38,-1
 417 671 l 1,39,-1
 310 747 l 1,40,-1
 203 671 l 1,41,-1
 144 742 l 1,42,-1
 262 872 l 1,43,-1
 358 872 l 1,37,-1
EndSplineSet
EndChar

StartChar: Ucircumflex
Encoding: 219 219 138
Width: 648
Flags: HMW
HStem: -15 72<274 403> 615 20G<10 274 274 274 424 638 638 638> 671 21G<237 237 451 451> 852 20G<296 392 392 392>
VStem: 54 220<234 597 597 597> 424 170<109.5 234 234 597>
LayerCount: 2
Fore
SplineSet
274 57 m 1,0,-1
 424 57 l 1,1,-1
 424 635 l 1,2,-1
 638 635 l 1,3,-1
 638 597 l 1,4,-1
 594 597 l 1,5,-1
 594 234 l 2,6,7
 594 164.692307692 594 164.692307692 582.5 121.346153846 c 128,-1,8
 571 78 571 78 557 59 c 128,-1,9
 543 40 543 40 531.5 27.5 c 128,-1,10
 520 15 520 15 498.5 6.5 c 128,-1,11
 477 -2 477 -2 463 -6 c 128,-1,12
 449 -10 449 -10 422 -12 c 0,13,14
 168.508356546 -30.7771587744 168.508356546 -30.7771587744 108.5 39 c 0,15,16
 87 64 87 64 70.5 113 c 128,-1,17
 54 162 54 162 54 234 c 2,18,-1
 54 597 l 1,19,-1
 10 597 l 1,20,-1
 10 635 l 1,21,-1
 274 635 l 1,22,-1
 274 57 l 1,0,-1
392 872 m 1,23,-1
 510 742 l 1,24,-1
 451 671 l 1,25,-1
 344 747 l 1,26,-1
 237 671 l 1,27,-1
 178 742 l 1,28,-1
 296 872 l 1,29,-1
 392 872 l 1,23,-1
EndSplineSet
EndChar

StartChar: Yacute
Encoding: 221 221 139
Width: 626
Flags: HMW
HStem: 0 38<92 176 451 535 92 176> 615 20G<0 266 266 266 405 626 626 626> 671 21G<215 215> 845 20G<393 393>
LayerCount: 2
Fore
SplineSet
626 597 m 1,0,-1
 584 597 l 1,1,-1
 451 146 l 1,2,-1
 451 38 l 1,3,-1
 535 38 l 1,4,-1
 535 0 l 1,5,-1
 92 0 l 1,6,-1
 92 38 l 1,7,-1
 176 38 l 1,8,-1
 176 146 l 1,9,-1
 43 597 l 1,10,-1
 0 597 l 1,11,-1
 0 635 l 1,12,-1
 266 635 l 1,13,-1
 348 300 l 1,14,-1
 405 300 l 1,15,-1
 405 635 l 1,16,-1
 626 635 l 1,17,-1
 626 597 l 1,0,-1
182 763 m 1,18,-1
 393 865 l 1,19,-1
 442 730 l 1,20,-1
 215 671 l 1,21,-1
 182 763 l 1,18,-1
EndSplineSet
EndChar

StartChar: dieresis
Encoding: 168 168 140
Width: 432
Flags: HMW
HStem: 599 21G<92 146.5 290 344.5> 745 20G<92 146.5 290 344.5>
LayerCount: 2
Fore
SplineSet
184 682 m 128,-1,1
 184 627 184 627 172.5 613 c 128,-1,2
 161 599 161 599 118.5 599 c 0,3,4
 76 599 76 599 63 613 c 128,-1,5
 50 627 50 627 50 682 c 128,-1,6
 50 737 50 737 63 751 c 128,-1,7
 76 765 76 765 118.5 765 c 0,8,9
 161 765 161 765 172.5 751 c 128,-1,0
 184 737 184 737 184 682 c 128,-1,1
382 682 m 128,-1,11
 382 627 382 627 370.5 613 c 128,-1,12
 359 599 359 599 316.5 599 c 0,13,14
 274 599 274 599 261 613 c 128,-1,15
 248 627 248 627 248 682 c 128,-1,16
 248 737 248 737 261 751 c 128,-1,17
 274 765 274 765 316.5 765 c 0,18,19
 359 765 359 765 370.5 751 c 128,-1,10
 382 737 382 737 382 682 c 128,-1,11
EndSplineSet
EndChar

StartChar: adieresis
Encoding: 228 228 141
Width: 618
Flags: HMW
HStem: -15 21G<204.5 299> 0 21G<455 578 455 455> 240 75<247 348 247 348 211 348> 490 75<260.5 346.5 260.5 348 234 346.5> 599 21G<175 229.5 373 427.5> 745 20G<175 229.5 373 427.5>
VStem: 35 176<76 223> 348 190<76 240 240 240 315 415 38 490 38 490>
LayerCount: 2
Fore
SplineSet
92 379 m 1,0,-1
 68 535 l 1,1,2
 181 565 181 565 295 565 c 0,3,4
 424.129032258 565 424.129032258 565 482.5 526.5 c 0,5,6
 506 511 506 511 522 482.5 c 128,-1,7
 538 454 538 454 538 415 c 2,8,-1
 538 38 l 1,9,-1
 578 38 l 1,10,-1
 578 0 l 1,11,-1
 455 0 l 1,12,-1
 415 76 l 1,13,-1
 402 76 l 1,14,15
 382 18 382 18 353 1.5 c 128,-1,16
 324 -15 324 -15 272.5 -15 c 128,-1,17
 221 -15 221 -15 203 -14 c 128,-1,18
 185 -13 185 -13 154 -9 c 128,-1,19
 123 -5 123 -5 106 5.5 c 128,-1,20
 89 16 89 16 70.5 33.5 c 0,21,22
 35 67.0810810811 35 67.0810810811 35 150 c 0,23,24
 35 253.984375 35 253.984375 100 287.5 c 0,25,26
 132 304 132 304 165.5 309.5 c 128,-1,27
 199 315 199 315 247 315 c 2,28,-1
 348 315 l 1,29,-1
 348 490 l 1,30,-1
 234 490 l 1,31,-1
 207 379 l 1,32,-1
 92 379 l 1,0,-1
348 76 m 1,33,-1
 348 240 l 1,34,-1
 211 240 l 1,35,-1
 211 76 l 1,36,-1
 348 76 l 1,33,-1
267 682 m 128,-1,38
 267 627 267 627 255.5 613 c 128,-1,39
 244 599 244 599 201.5 599 c 128,-1,40
 159 599 159 599 146 613 c 128,-1,41
 133 627 133 627 133 682 c 128,-1,42
 133 737 133 737 146 751 c 128,-1,43
 159 765 159 765 201.5 765 c 128,-1,44
 244 765 244 765 255.5 751 c 128,-1,37
 267 737 267 737 267 682 c 128,-1,38
465 682 m 128,-1,46
 465 627 465 627 453.5 613 c 128,-1,47
 442 599 442 599 399.5 599 c 128,-1,48
 357 599 357 599 344 613 c 128,-1,49
 331 627 331 627 331 682 c 128,-1,50
 331 737 331 737 344 751 c 128,-1,51
 357 765 357 765 399.5 765 c 128,-1,52
 442 765 442 765 453.5 751 c 128,-1,45
 465 737 465 737 465 682 c 128,-1,46
EndSplineSet
EndChar

StartChar: edieresis
Encoding: 235 235 142
Width: 593
Flags: HMW
HStem: -15 75<250 340.5> 235 75<250 331 250 387> 490 75<250 387.5 261 387> 599 21G<172 226.5 370 424.5> 745 20G<172 226.5 370 424.5>
VStem: 60 190<184 235 310 314 314 439.5> 387 156<317.5 482.5 317.5 490 317.5 490>
LayerCount: 2
Fore
SplineSet
250 490 m 1,0,-1
 250 310 l 1,1,-1
 387 310 l 1,2,-1
 387 490 l 1,3,-1
 250 490 l 1,0,-1
250 60 m 1,4,-1
 375 60 l 1,5,-1
 401 171 l 1,6,-1
 508 171 l 1,7,-1
 531 15 l 1,8,9
 413 -15 413 -15 306 -15 c 0,10,11
 265 -15 265 -15 236 -12.5 c 128,-1,12
 207 -10 207 -10 171 1.5 c 128,-1,13
 135 13 135 13 113 33.5 c 128,-1,14
 91 54 91 54 75.5 92.5 c 128,-1,15
 60 131 60 131 60 184 c 2,16,-1
 60 314 l 2,17,18
 60 439.24137931 60 439.24137931 99.5 491 c 0,19,20
 114 510 114 510 126.5 522 c 128,-1,21
 139 534 139 534 161 542.5 c 128,-1,22
 183 551 183 551 198 555.5 c 128,-1,23
 213 560 213 560 241 562 c 0,24,25
 283 565 283 565 323 565 c 128,-1,26
 363 565 363 565 379 564.5 c 128,-1,27
 395 564 395 564 422 561 c 128,-1,28
 449 558 449 558 462.5 552 c 128,-1,29
 476 546 476 546 494.5 534 c 128,-1,30
 513 522 513 522 521.5 505 c 128,-1,31
 530 488 530 488 536.5 461.5 c 128,-1,32
 543 435 543 435 543 400 c 128,-1,33
 543 365 543 365 536.5 338.5 c 128,-1,34
 530 312 530 312 521.5 295 c 128,-1,35
 513 278 513 278 494.5 266 c 128,-1,36
 476 254 476 254 462.5 248 c 128,-1,37
 449 242 449 242 422 239 c 0,38,39
 386 235 386 235 331 235 c 2,40,-1
 250 235 l 1,41,-1
 250 60 l 1,4,-1
264 682 m 128,-1,43
 264 627 264 627 252.5 613 c 128,-1,44
 241 599 241 599 198.5 599 c 128,-1,45
 156 599 156 599 143 613 c 128,-1,46
 130 627 130 627 130 682 c 128,-1,47
 130 737 130 737 143 751 c 128,-1,48
 156 765 156 765 198.5 765 c 128,-1,49
 241 765 241 765 252.5 751 c 128,-1,42
 264 737 264 737 264 682 c 128,-1,43
462 682 m 128,-1,51
 462 627 462 627 450.5 613 c 128,-1,52
 439 599 439 599 396.5 599 c 128,-1,53
 354 599 354 599 341 613 c 128,-1,54
 328 627 328 627 328 682 c 128,-1,55
 328 737 328 737 341 751 c 128,-1,56
 354 765 354 765 396.5 765 c 128,-1,57
 439 765 439 765 450.5 751 c 128,-1,50
 462 737 462 737 462 682 c 128,-1,51
EndSplineSet
EndChar

StartChar: idieresis
Encoding: 239 239 143
Width: 355
Flags: HMW
HStem: 0 21G<45 315 45 45> 530 20G<45 275 275 275> 599 21G<39 93.5 237 291.5> 745 20G<39 93.5 237 291.5>
VStem: 85 190<38 512 512 512>
LayerCount: 2
Fore
SplineSet
315 0 m 1,0,-1
 45 0 l 1,1,-1
 45 38 l 1,2,-1
 85 38 l 1,3,-1
 85 512 l 1,4,-1
 45 512 l 1,5,-1
 45 550 l 1,6,-1
 275 550 l 1,7,-1
 275 38 l 1,8,-1
 315 38 l 1,9,-1
 315 0 l 1,0,-1
131 682 m 128,-1,11
 131 627 131 627 119.5 613 c 128,-1,12
 108 599 108 599 65.5 599 c 0,13,14
 23 599 23 599 10 613 c 128,-1,15
 -3 627 -3 627 -3 682 c 128,-1,16
 -3 737 -3 737 10 751 c 128,-1,17
 23 765 23 765 65.5 765 c 0,18,19
 108 765 108 765 119.5 751 c 128,-1,10
 131 737 131 737 131 682 c 128,-1,11
329 682 m 128,-1,21
 329 627 329 627 317.5 613 c 128,-1,22
 306 599 306 599 263.5 599 c 0,23,24
 221 599 221 599 208 613 c 128,-1,25
 195 627 195 627 195 682 c 128,-1,26
 195 737 195 737 208 751 c 128,-1,27
 221 765 221 765 263.5 765 c 0,28,29
 306 765 306 765 317.5 751 c 128,-1,20
 329 737 329 737 329 682 c 128,-1,21
EndSplineSet
EndChar

StartChar: odieresis
Encoding: 246 246 144
Width: 647
Flags: HMW
HStem: -15 75<250 383> 490 75<264 397 250 403> 599 21G<204 258.5 402 456.5> 745 20G<204 258.5 402 456.5>
VStem: 60 190<236 314 314 439.5> 397 190<110.5 236 236 314 110.5 490>
LayerCount: 2
Fore
SplineSet
587 314 m 2,0,-1
 587 236 l 2,1,2
 587 109.666666667 587 109.666666667 547 59 c 0,3,4
 532 40 532 40 520 28 c 128,-1,5
 508 16 508 16 485 7.5 c 128,-1,6
 462 -1 462 -1 447 -5.5 c 128,-1,7
 432 -10 432 -10 403.5 -12 c 0,8,9
 310.678899083 -18.5137614679 310.678899083 -18.5137614679 255.339449541 -14.2568807339 c 128,-1,10
 200 -10 200 -10 186 -5.5 c 128,-1,11
 172 -1 172 -1 151.5 7.5 c 128,-1,12
 131 16 131 16 120 28 c 128,-1,13
 109 40 109 40 95.5 59 c 128,-1,14
 82 78 82 78 75.5 103 c 0,15,16
 60 162.615384615 60 162.615384615 60 236 c 2,17,-1
 60 314 l 2,18,19
 60 440.333333333 60 440.333333333 100 491 c 0,20,21
 115 510 115 510 127 522 c 128,-1,22
 139 534 139 534 162 542.5 c 128,-1,23
 185 551 185 551 200 555.5 c 128,-1,24
 215 560 215 560 243.5 562 c 0,25,26
 286.25 565 286.25 565 326.125 565 c 128,-1,27
 366 565 366 565 380.5 564.5 c 128,-1,28
 395 564 395 564 421 562 c 128,-1,29
 447 560 447 560 461 555.5 c 128,-1,30
 475 551 475 551 495.5 542.5 c 128,-1,31
 516 534 516 534 527 522 c 128,-1,32
 538 510 538 510 551.5 491 c 128,-1,33
 565 472 565 472 571.5 447 c 0,34,35
 587 387.384615385 587 387.384615385 587 314 c 2,0,-1
397 60 m 1,36,-1
 397 490 l 1,37,-1
 250 490 l 1,38,-1
 250 60 l 1,39,-1
 397 60 l 1,36,-1
296 682 m 128,-1,41
 296 627 296 627 284.5 613 c 128,-1,42
 273 599 273 599 230.5 599 c 128,-1,43
 188 599 188 599 175 613 c 128,-1,44
 162 627 162 627 162 682 c 128,-1,45
 162 737 162 737 175 751 c 128,-1,46
 188 765 188 765 230.5 765 c 128,-1,47
 273 765 273 765 284.5 751 c 128,-1,40
 296 737 296 737 296 682 c 128,-1,41
494 682 m 128,-1,49
 494 627 494 627 482.5 613 c 128,-1,50
 471 599 471 599 428.5 599 c 128,-1,51
 386 599 386 599 373 613 c 128,-1,52
 360 627 360 627 360 682 c 128,-1,53
 360 737 360 737 373 751 c 128,-1,54
 386 765 386 765 428.5 765 c 128,-1,55
 471 765 471 765 482.5 751 c 128,-1,48
 494 737 494 737 494 682 c 128,-1,49
EndSplineSet
EndChar

StartChar: ydieresis
Encoding: 255 255 145
Width: 598
Flags: HMW
HStem: -195 21G<189 265> 530 20G<20 261 261 261 382 563 563 563> 599 21G<191 245.5 389 443.5> 745 20G<191 245.5 389 443.5>
LayerCount: 2
Fore
SplineSet
382 550 m 1,0,-1
 563 550 l 1,1,-1
 458 31 l 2,2,3
 435 -81 435 -81 367.5 -138 c 128,-1,4
 300 -195 300 -195 203 -195 c 0,5,6
 135 -195 135 -195 98 -187 c 1,7,-1
 118 -30 l 1,8,-1
 240 -30 l 1,9,-1
 240 23 l 2,10,11
 240 35 240 35 235 41 c 0,12,13
 228.333333333 49 228.333333333 49 210 49 c 2,14,-1
 125 49 l 1,15,-1
 59 512 l 1,16,-1
 20 512 l 1,17,-1
 20 550 l 1,18,-1
 261 550 l 1,19,-1
 309 49 l 1,20,-1
 382 49 l 1,21,-1
 382 550 l 1,0,-1
283 682 m 128,-1,23
 283 627 283 627 271.5 613 c 128,-1,24
 260 599 260 599 217.5 599 c 128,-1,25
 175 599 175 599 162 613 c 128,-1,26
 149 627 149 627 149 682 c 128,-1,27
 149 737 149 737 162 751 c 128,-1,28
 175 765 175 765 217.5 765 c 128,-1,29
 260 765 260 765 271.5 751 c 128,-1,22
 283 737 283 737 283 682 c 128,-1,23
481 682 m 128,-1,31
 481 627 481 627 469.5 613 c 128,-1,32
 458 599 458 599 415.5 599 c 128,-1,33
 373 599 373 599 360 613 c 128,-1,34
 347 627 347 627 347 682 c 128,-1,35
 347 737 347 737 360 751 c 128,-1,36
 373 765 373 765 415.5 765 c 128,-1,37
 458 765 458 765 469.5 751 c 128,-1,30
 481 737 481 737 481 682 c 128,-1,31
EndSplineSet
EndChar

StartChar: udieresis
Encoding: 252 252 146
Width: 692
Flags: HMW
HStem: -15 21G<263 363> 0 21G<524 647 524 524> 530 20G<40 270 270 270 417 607 607 607> 599 21G<221 275.5 419 473.5> 745 20G<221 275.5 419 473.5>
VStem: 80 190<150 512 512 512> 417 190<76 550 38 550>
LayerCount: 2
Fore
SplineSet
80 150 m 2,0,-1
 80 512 l 1,1,-1
 40 512 l 1,2,-1
 40 550 l 1,3,-1
 270 550 l 1,4,-1
 270 76 l 1,5,-1
 417 76 l 1,6,-1
 417 550 l 1,7,-1
 607 550 l 1,8,-1
 607 38 l 1,9,-1
 647 38 l 1,10,-1
 647 0 l 1,11,-1
 524 0 l 1,12,-1
 484 76 l 1,13,-1
 471 76 l 1,14,15
 471 23 471 23 432.5 4 c 128,-1,16
 394 -15 394 -15 316 -15 c 0,17,18
 213.25 -15 213.25 -15 177.5 -2 c 0,19,20
 126.829787234 16.4255319149 126.829787234 16.4255319149 107.5 45 c 0,21,22
 80 85.652173913 80 85.652173913 80 150 c 2,0,-1
313 682 m 128,-1,24
 313 627 313 627 301.5 613 c 128,-1,25
 290 599 290 599 247.5 599 c 128,-1,26
 205 599 205 599 192 613 c 128,-1,27
 179 627 179 627 179 682 c 128,-1,28
 179 737 179 737 192 751 c 128,-1,29
 205 765 205 765 247.5 765 c 128,-1,30
 290 765 290 765 301.5 751 c 128,-1,23
 313 737 313 737 313 682 c 128,-1,24
511 682 m 128,-1,32
 511 627 511 627 499.5 613 c 128,-1,33
 488 599 488 599 445.5 599 c 128,-1,34
 403 599 403 599 390 613 c 128,-1,35
 377 627 377 627 377 682 c 128,-1,36
 377 737 377 737 390 751 c 128,-1,37
 403 765 403 765 445.5 765 c 128,-1,38
 488 765 488 765 499.5 751 c 128,-1,31
 511 737 511 737 511 682 c 128,-1,32
EndSplineSet
EndChar

StartChar: Ydieresis
Encoding: 376 376 147
Width: 626
Flags: HMW
HStem: 0 38<92 176 451 535 92 176> 615 20G<0 266 266 266 405 626 626 626> 684 21G<189 243.5 387 441.5> 830 20G<189 243.5 387 441.5>
LayerCount: 2
Fore
SplineSet
626 597 m 1,0,-1
 584 597 l 1,1,-1
 451 146 l 1,2,-1
 451 38 l 1,3,-1
 535 38 l 1,4,-1
 535 0 l 1,5,-1
 92 0 l 1,6,-1
 92 38 l 1,7,-1
 176 38 l 1,8,-1
 176 146 l 1,9,-1
 43 597 l 1,10,-1
 0 597 l 1,11,-1
 0 635 l 1,12,-1
 266 635 l 1,13,-1
 348 300 l 1,14,-1
 405 300 l 1,15,-1
 405 635 l 1,16,-1
 626 635 l 1,17,-1
 626 597 l 1,0,-1
281 767 m 128,-1,19
 281 712 281 712 269.5 698 c 128,-1,20
 258 684 258 684 215.5 684 c 0,21,22
 173 684 173 684 160 698 c 128,-1,23
 147 712 147 712 147 767 c 128,-1,24
 147 822 147 822 160 836 c 128,-1,25
 173 850 173 850 215.5 850 c 0,26,27
 258 850 258 850 269.5 836 c 128,-1,18
 281 822 281 822 281 767 c 128,-1,19
479 767 m 128,-1,29
 479 712 479 712 467.5 698 c 128,-1,30
 456 684 456 684 413.5 684 c 0,31,32
 371 684 371 684 358 698 c 128,-1,33
 345 712 345 712 345 767 c 128,-1,34
 345 822 345 822 358 836 c 128,-1,35
 371 850 371 850 413.5 850 c 0,36,37
 456 850 456 850 467.5 836 c 128,-1,28
 479 822 479 822 479 767 c 128,-1,29
EndSplineSet
EndChar

StartChar: Udieresis
Encoding: 220 220 148
Width: 648
Flags: HMW
HStem: -15 72<274 403> 615 20G<10 274 274 274 424 638 638 638> 684 21G<205 259.5 403 457.5> 830 20G<205 259.5 403 457.5>
VStem: 54 220<234 597 597 597> 424 170<109.5 234 234 597>
LayerCount: 2
Fore
SplineSet
274 57 m 1,0,-1
 424 57 l 1,1,-1
 424 635 l 1,2,-1
 638 635 l 1,3,-1
 638 597 l 1,4,-1
 594 597 l 1,5,-1
 594 234 l 2,6,7
 594 164.692307692 594 164.692307692 582.5 121.346153846 c 128,-1,8
 571 78 571 78 557 59 c 128,-1,9
 543 40 543 40 531.5 27.5 c 128,-1,10
 520 15 520 15 498.5 6.5 c 128,-1,11
 477 -2 477 -2 463 -6 c 128,-1,12
 449 -10 449 -10 422 -12 c 0,13,14
 168.508356546 -30.7771587744 168.508356546 -30.7771587744 108.5 39 c 0,15,16
 87 64 87 64 70.5 113 c 128,-1,17
 54 162 54 162 54 234 c 2,18,-1
 54 597 l 1,19,-1
 10 597 l 1,20,-1
 10 635 l 1,21,-1
 274 635 l 1,22,-1
 274 57 l 1,0,-1
297 767 m 128,-1,24
 297 712 297 712 285.5 698 c 128,-1,25
 274 684 274 684 231.5 684 c 128,-1,26
 189 684 189 684 176 698 c 128,-1,27
 163 712 163 712 163 767 c 128,-1,28
 163 822 163 822 176 836 c 128,-1,29
 189 850 189 850 231.5 850 c 128,-1,30
 274 850 274 850 285.5 836 c 128,-1,23
 297 822 297 822 297 767 c 128,-1,24
495 767 m 128,-1,32
 495 712 495 712 483.5 698 c 128,-1,33
 472 684 472 684 429.5 684 c 128,-1,34
 387 684 387 684 374 698 c 128,-1,35
 361 712 361 712 361 767 c 128,-1,36
 361 822 361 822 374 836 c 128,-1,37
 387 850 387 850 429.5 850 c 128,-1,38
 472 850 472 850 483.5 836 c 128,-1,31
 495 822 495 822 495 767 c 128,-1,32
EndSplineSet
EndChar

StartChar: Adieresis
Encoding: 196 196 149
Width: 582
Flags: HMW
HStem: 0 21G<-35 186 -35 -35 327 327 327 617> 150 55<186 308 186 313 186 308> 615 20G<31 483 483 483> 684 21G<152 206.5 350 404.5> 830 20G<152 206.5 350 404.5>
LayerCount: 2
Fore
SplineSet
186 0 m 1,0,-1
 -35 0 l 1,1,-1
 -35 38 l 1,2,-1
 6 38 l 1,3,-1
 93 597 l 1,4,-1
 31 597 l 1,5,-1
 31 635 l 1,6,-1
 483 635 l 1,7,-1
 575 38 l 1,8,-1
 617 38 l 1,9,-1
 617 0 l 1,10,-1
 327 0 l 1,11,-1
 313 150 l 1,12,-1
 186 150 l 1,13,-1
 186 0 l 1,0,-1
186 575 m 1,14,-1
 186 205 l 1,15,-1
 308 205 l 1,16,-1
 275 575 l 1,17,-1
 186 575 l 1,14,-1
244 767 m 128,-1,19
 244 712 244 712 232.5 698 c 128,-1,20
 221 684 221 684 178.5 684 c 0,21,22
 136 684 136 684 123 698 c 128,-1,23
 110 712 110 712 110 767 c 128,-1,24
 110 822 110 822 123 836 c 128,-1,25
 136 850 136 850 178.5 850 c 0,26,27
 221 850 221 850 232.5 836 c 128,-1,18
 244 822 244 822 244 767 c 128,-1,19
442 767 m 128,-1,29
 442 712 442 712 430.5 698 c 128,-1,30
 419 684 419 684 376.5 684 c 0,31,32
 334 684 334 684 321 698 c 128,-1,33
 308 712 308 712 308 767 c 128,-1,34
 308 822 308 822 321 836 c 128,-1,35
 334 850 334 850 376.5 850 c 0,36,37
 419 850 419 850 430.5 836 c 128,-1,28
 442 822 442 822 442 767 c 128,-1,29
EndSplineSet
EndChar

StartChar: Edieresis
Encoding: 203 203 150
Width: 591
Flags: HMW
HStem: 0 21G<30 30 30 536> 284 55<289 480 289 480> 615 20G<30 536 536 536> 684 21G<156 210.5 354 408.5> 830 20G<156 210.5 354 408.5>
VStem: 74 215<60 284 339 575>
LayerCount: 2
Fore
SplineSet
30 0 m 1,0,-1
 30 38 l 1,1,-1
 74 38 l 1,2,-1
 74 597 l 1,3,-1
 30 597 l 1,4,-1
 30 635 l 1,5,-1
 536 635 l 1,6,-1
 536 421 l 1,7,-1
 419 421 l 1,8,-1
 378 575 l 1,9,-1
 289 575 l 1,10,-1
 289 339 l 1,11,-1
 480 339 l 1,12,-1
 480 284 l 1,13,-1
 289 284 l 1,14,-1
 289 60 l 1,15,-1
 378 60 l 1,16,-1
 419 214 l 1,17,-1
 536 214 l 1,18,-1
 536 0 l 1,19,-1
 30 0 l 1,0,-1
248 767 m 128,-1,21
 248 712 248 712 236.5 698 c 128,-1,22
 225 684 225 684 182.5 684 c 0,23,24
 140 684 140 684 127 698 c 128,-1,25
 114 712 114 712 114 767 c 128,-1,26
 114 822 114 822 127 836 c 128,-1,27
 140 850 140 850 182.5 850 c 0,28,29
 225 850 225 850 236.5 836 c 128,-1,20
 248 822 248 822 248 767 c 128,-1,21
446 767 m 128,-1,31
 446 712 446 712 434.5 698 c 128,-1,32
 423 684 423 684 380.5 684 c 0,33,34
 338 684 338 684 325 698 c 128,-1,35
 312 712 312 712 312 767 c 128,-1,36
 312 822 312 822 325 836 c 128,-1,37
 338 850 338 850 380.5 850 c 0,38,39
 423 850 423 850 434.5 836 c 128,-1,30
 446 822 446 822 446 767 c 128,-1,31
EndSplineSet
EndChar

StartChar: Idieresis
Encoding: 207 207 151
Width: 423
Flags: HMW
HStem: 0 21G<60 363 60 60> 615 20G<60 363 363 363> 684 21G<87 141.5 285 339.5> 830 20G<87 141.5 285 339.5>
VStem: 104 215<38 597 38 597>
LayerCount: 2
Fore
SplineSet
363 597 m 1,0,-1
 319 597 l 1,1,-1
 319 38 l 1,2,-1
 363 38 l 1,3,-1
 363 0 l 1,4,-1
 60 0 l 1,5,-1
 60 38 l 1,6,-1
 104 38 l 1,7,-1
 104 597 l 1,8,-1
 60 597 l 1,9,-1
 60 635 l 1,10,-1
 363 635 l 1,11,-1
 363 597 l 1,0,-1
179 767 m 128,-1,13
 179 712 179 712 167.5 698 c 128,-1,14
 156 684 156 684 113.5 684 c 0,15,16
 71 684 71 684 58 698 c 128,-1,17
 45 712 45 712 45 767 c 128,-1,18
 45 822 45 822 58 836 c 128,-1,19
 71 850 71 850 113.5 850 c 0,20,21
 156 850 156 850 167.5 836 c 128,-1,12
 179 822 179 822 179 767 c 128,-1,13
377 767 m 128,-1,23
 377 712 377 712 365.5 698 c 128,-1,24
 354 684 354 684 311.5 684 c 0,25,26
 269 684 269 684 256 698 c 128,-1,27
 243 712 243 712 243 767 c 128,-1,28
 243 822 243 822 256 836 c 128,-1,29
 269 850 269 850 311.5 850 c 0,30,31
 354 850 354 850 365.5 836 c 128,-1,22
 377 822 377 822 377 767 c 128,-1,23
EndSplineSet
EndChar

StartChar: Odieresis
Encoding: 214 214 152
Width: 620
Flags: HMW
HStem: -15 72<235 375.5> 579 71<245 385 235 397.5> 684 21G<186 240.5 384 438.5> 830 20G<186 240.5 384 438.5>
VStem: 20 215<262 374 374 512> 385 215<123.5 262 262 374 123.5 579>
LayerCount: 2
Fore
SplineSet
600 374 m 2,0,-1
 600 262 l 2,1,2
 600 180.8125 600 180.8125 581 115.5 c 0,3,4
 569.307692308 75.3076923077 569.307692308 75.3076923077 526.5 32.5 c 0,5,6
 507.47826087 13.4782608696 507.47826087 13.4782608696 446.5 -5 c 0,7,8
 399.430594901 -19.2634560907 399.430594901 -19.2634560907 247 -14.5 c 0,9,10
 181.344827586 -12.4482758621 181.344827586 -12.4482758621 162.672413793 -6.22413793103 c 128,-1,11
 144 0 144 0 121.5 9.5 c 128,-1,12
 99 19 99 19 86.5 32.5 c 128,-1,13
 74 46 74 46 59.5 67 c 128,-1,14
 45 88 45 88 37.5 115.5 c 0,15,16
 20 179.666666667 20 179.666666667 20 262 c 2,17,-1
 20 374 l 2,18,19
 20 454 20 454 38 508.5 c 128,-1,20
 56 563 56 563 79 590.5 c 128,-1,21
 102 618 102 618 150 632 c 128,-1,22
 198 646 198 646 230 648 c 128,-1,23
 262 650 262 650 309.5 650 c 128,-1,24
 357 650 357 650 373 649.5 c 128,-1,25
 389 649 389 649 417.5 647 c 128,-1,26
 446 645 446 645 461 640 c 128,-1,27
 476 635 476 635 498.5 625.5 c 128,-1,28
 521 616 521 616 533.5 602.5 c 128,-1,29
 546 589 546 589 560.5 568 c 128,-1,30
 575 547 575 547 582.5 520 c 0,31,32
 600 457 600 457 600 374 c 2,0,-1
385 57 m 1,33,-1
 385 579 l 1,34,-1
 235 579 l 1,35,-1
 235 57 l 1,36,-1
 385 57 l 1,33,-1
278 767 m 128,-1,38
 278 712 278 712 266.5 698 c 128,-1,39
 255 684 255 684 212.5 684 c 128,-1,40
 170 684 170 684 157 698 c 128,-1,41
 144 712 144 712 144 767 c 128,-1,42
 144 822 144 822 157 836 c 128,-1,43
 170 850 170 850 212.5 850 c 128,-1,44
 255 850 255 850 266.5 836 c 128,-1,37
 278 822 278 822 278 767 c 128,-1,38
476 767 m 128,-1,46
 476 712 476 712 464.5 698 c 128,-1,47
 453 684 453 684 410.5 684 c 128,-1,48
 368 684 368 684 355 698 c 128,-1,49
 342 712 342 712 342 767 c 128,-1,50
 342 822 342 822 355 836 c 128,-1,51
 368 850 368 850 410.5 850 c 128,-1,52
 453 850 453 850 464.5 836 c 128,-1,45
 476 822 476 822 476 767 c 128,-1,46
EndSplineSet
EndChar

StartChar: slash
Encoding: 47 47 153
Width: 238
Flags: HMW
HStem: -129 21G<-17 33 -17 -17> 709 20G<204 255 255 255>
LayerCount: 2
Fore
SplineSet
33 -129 m 1,0,-1
 -17 -129 l 1,1,-1
 204 729 l 1,2,-1
 255 729 l 1,3,-1
 33 -129 l 1,0,-1
EndSplineSet
EndChar

StartChar: oslash
Encoding: 248 248 154
Width: 647
Flags: HMW
HStem: -152 21G<187 237 187 187> -15 75<292 310 272 397> 490 75<337 352> 686 20G<408 459 459 459>
VStem: 60 190<236 314 314 439.5> 397 190<110.5 236 236 314 110.5 466>
LayerCount: 2
Fore
SplineSet
237 -152 m 1,0,-1
 187 -152 l 1,1,-1
 223 -12 l 1,2,3
 185 -8 185 -8 158 4 c 128,-1,4
 131 16 131 16 107.5 42.5 c 0,5,6
 60 96.0638297872 60 96.0638297872 60 236 c 2,7,-1
 60 314 l 2,8,9
 60 440.333333333 60 440.333333333 100 491 c 0,10,11
 115 510 115 510 127 522 c 128,-1,12
 139 534 139 534 162 542.5 c 128,-1,13
 185 551 185 551 200 555.5 c 128,-1,14
 215 560 215 560 243.5 562 c 0,15,16
 286.25 565 286.25 565 337 565 c 2,17,-1
 371 565 l 1,18,-1
 408 706 l 1,19,-1
 459 706 l 1,20,-1
 422 562 l 1,21,22
 461 558 461 558 488 546 c 128,-1,23
 515 534 515 534 539 508 c 0,24,25
 587 456 587 456 587 314 c 2,26,-1
 587 236 l 2,27,28
 587 109.666666667 587 109.666666667 547 59 c 0,29,30
 532 40 532 40 520 28 c 128,-1,31
 508 16 508 16 485 7.5 c 128,-1,32
 462 -1 462 -1 447 -5.5 c 128,-1,33
 432 -10 432 -10 403.5 -12 c 0,34,35
 360.75 -15 360.75 -15 310 -15 c 2,36,-1
 272 -15 l 1,37,-1
 237 -152 l 1,0,-1
397 60 m 1,38,-1
 397 466 l 1,39,-1
 292 60 l 1,40,-1
 397 60 l 1,38,-1
250 490 m 1,41,-1
 250 93 l 1,42,-1
 352 490 l 1,43,-1
 250 490 l 1,41,-1
EndSplineSet
EndChar

StartChar: Oslash
Encoding: 216 216 155
Width: 620
Flags: HMW
HStem: -112 21G<174 224 174 174> -15 72<287 375.5> 579 71<235 332.5 245 332.5 245 352> 726 20G<395 446 446 446>
VStem: 20 215<262 374 374 512> 385 215<123.5 262 262 374 123.5 510>
LayerCount: 2
Fore
SplineSet
224 -112 m 1,0,-1
 174 -112 l 1,1,-1
 200 -12 l 1,2,3
 158 -7 158 -7 128 6 c 128,-1,4
 98 19 98 19 72 48 c 0,5,6
 20 106 20 106 20 262 c 2,7,-1
 20 374 l 2,8,9
 20 454 20 454 38 508.5 c 128,-1,10
 56 563 56 563 79 590.5 c 128,-1,11
 102 618 102 618 150 632 c 128,-1,12
 198 646 198 646 230 648 c 128,-1,13
 262 650 262 650 308.5 650 c 128,-1,14
 355 650 355 650 370 649 c 1,15,-1
 395 746 l 1,16,-1
 446 746 l 1,17,-1
 420 647 l 1,18,19
 507 638 507 638 553.5 580 c 128,-1,20
 600 522 600 522 600 374 c 2,21,-1
 600 262 l 2,22,23
 600 180.8125 600 180.8125 581 115.5 c 0,24,25
 569.307692308 75.3076923077 569.307692308 75.3076923077 526.5 32.5 c 0,26,27
 507.47826087 13.4782608696 507.47826087 13.4782608696 446.5 -5 c 0,28,29
 413.5 -15 413.5 -15 338.75 -15 c 128,-1,30
 264 -15 264 -15 249 -14 c 1,31,-1
 224 -112 l 1,0,-1
385 57 m 1,32,-1
 385 510 l 1,33,-1
 267 57 l 1,34,-1
 385 57 l 1,32,-1
235 579 m 1,35,-1
 235 124 l 1,36,-1
 352 579 l 1,37,-1
 235 579 l 1,35,-1
EndSplineSet
EndChar

StartChar: guillemotleft
Encoding: 171 171 156
Width: 488
Flags: HMW
HStem: 82 21G<160 160 391 391> 459 20G<160 160 391 391>
LayerCount: 2
Fore
SplineSet
246 324 m 1,0,-1
 391 479 l 1,1,-1
 467 415 l 1,2,-1
 385 281 l 1,3,-1
 468 146 l 1,4,-1
 391 82 l 1,5,-1
 246 238 l 1,6,-1
 246 324 l 1,0,-1
15 324 m 1,7,-1
 160 479 l 1,8,-1
 236 415 l 1,9,-1
 154 281 l 1,10,-1
 237 146 l 1,11,-1
 160 82 l 1,12,-1
 15 238 l 1,13,-1
 15 324 l 1,7,-1
EndSplineSet
EndChar

StartChar: guillemotright
Encoding: 187 187 157
Width: 488
Flags: HMW
HStem: 82 21G<97 97 328 328> 459 20G<97 97 328 328>
LayerCount: 2
Fore
SplineSet
97 479 m 1,0,-1
 242 324 l 1,1,-1
 242 238 l 1,2,-1
 97 82 l 1,3,-1
 20 146 l 1,4,-1
 103 281 l 1,5,-1
 21 415 l 1,6,-1
 97 479 l 1,0,-1
328 479 m 1,7,-1
 473 324 l 1,8,-1
 473 238 l 1,9,-1
 328 82 l 1,10,-1
 251 146 l 1,11,-1
 334 281 l 1,12,-1
 252 415 l 1,13,-1
 328 479 l 1,7,-1
EndSplineSet
EndChar

StartChar: caron
Encoding: 711 711 158
Width: 402
Flags: HMW
HStem: 587 21G<153 249 153 153> 768 20G<94 94 308 308>
LayerCount: 2
Fore
SplineSet
367 717 m 1,0,-1
 249 587 l 1,1,-1
 153 587 l 1,2,-1
 35 717 l 1,3,-1
 94 788 l 1,4,-1
 201 712 l 1,5,-1
 308 788 l 1,6,-1
 367 717 l 1,0,-1
EndSplineSet
EndChar

StartChar: Scaron
Encoding: 352 352 159
Width: 555
Flags: HMW
HStem: -15 86<232.5 312 201 340.5> 565 86<252 327.5 223 352 252 252> 672 21G<223 319 223 223> 853 20G<164 164 378 378>
LayerCount: 2
Fore
SplineSet
15 19 m 1,0,-1
 42 199 l 1,1,-1
 170 199 l 1,2,-1
 201 71 l 1,3,-1
 312 71 l 1,4,-1
 312 146 l 1,5,-1
 115 292 l 2,6,7
 71 324 71 324 50 368 c 128,-1,8
 29 412 29 412 29 464.5 c 128,-1,9
 29 517 29 517 38.5 545.5 c 128,-1,10
 48 574 48 574 67 592.5 c 128,-1,11
 86 611 86 611 108 623 c 128,-1,12
 130 635 130 635 162.5 641 c 0,13,14
 216.666666667 651 216.666666667 651 310.833333333 651 c 128,-1,15
 405 651 405 651 522 617 c 1,16,-1
 495 437 l 1,17,-1
 379 437 l 1,18,-1
 352 565 l 1,19,-1
 252 565 l 1,20,-1
 252 490 l 1,21,-1
 449 344 l 2,22,23
 493 312 493 312 514 268 c 128,-1,24
 535 224 535 224 535 168 c 128,-1,25
 535 112 535 112 520 79.5 c 128,-1,26
 505 47 505 47 482.5 29 c 128,-1,27
 460 11 460 11 423 1 c 0,28,29
 363.8 -15 363.8 -15 252.9 -15 c 128,-1,30
 142 -15 142 -15 15 19 c 1,0,-1
437 802 m 1,31,-1
 319 672 l 1,32,-1
 223 672 l 1,33,-1
 105 802 l 1,34,-1
 164 873 l 1,35,-1
 271 797 l 1,36,-1
 378 873 l 1,37,-1
 437 802 l 1,31,-1
EndSplineSet
EndChar

StartChar: Zcaron
Encoding: 381 381 160
Width: 587
Flags: HMW
HStem: 0 84<274 402 274 562> 552 84<200 307 200 200> 672 21G<276 372 276 276> 853 20G<217 217 431 431>
LayerCount: 2
Fore
SplineSet
402 84 m 1,0,-1
 431 215 l 1,1,-1
 549 215 l 1,2,-1
 562 0 l 1,3,-1
 0 0 l 1,4,-1
 307 552 l 1,5,-1
 200 552 l 1,6,-1
 170 421 l 1,7,-1
 52 421 l 1,8,-1
 40 636 l 1,9,-1
 527 636 l 1,10,-1
 559 569 l 1,11,-1
 274 84 l 1,12,-1
 402 84 l 1,0,-1
490 802 m 1,13,-1
 372 672 l 1,14,-1
 276 672 l 1,15,-1
 158 802 l 1,16,-1
 217 873 l 1,17,-1
 324 797 l 1,18,-1
 431 873 l 1,19,-1
 490 802 l 1,13,-1
EndSplineSet
EndChar

StartChar: zcaron
Encoding: 382 382 161
Width: 564
Flags: HMW
HStem: 0 73<265 371 265 518> 477 73<196 302 196 196> 587 21G<260 356 260 260> 768 20G<201 201 415 415>
LayerCount: 2
Fore
SplineSet
371 73 m 1,0,-1
 405 186 l 1,1,-1
 507 186 l 1,2,-1
 518 0 l 1,3,-1
 15 0 l 1,4,-1
 302 477 l 1,5,-1
 196 477 l 1,6,-1
 162 364 l 1,7,-1
 60 364 l 1,8,-1
 49 550 l 1,9,-1
 488 550 l 1,10,-1
 515 492 l 1,11,-1
 265 73 l 1,12,-1
 371 73 l 1,0,-1
474 717 m 1,13,-1
 356 587 l 1,14,-1
 260 587 l 1,15,-1
 142 717 l 1,16,-1
 201 788 l 1,17,-1
 308 712 l 1,18,-1
 415 788 l 1,19,-1
 474 717 l 1,13,-1
EndSplineSet
EndChar

StartChar: scaron
Encoding: 353 353 162
Width: 570
Flags: HMW
HStem: -15 75<246.5 330 216 344.5> 490 75<252 332.5 237.5 356 252 252> 587 21G<242 338 242 242> 768 20G<183 183 397 397>
LayerCount: 2
Fore
SplineSet
50 15 m 1,0,-1
 74 171 l 1,1,-1
 189 171 l 1,2,-1
 216 60 l 1,3,-1
 330 60 l 1,4,-1
 330 132 l 1,5,-1
 143 261 l 2,6,7
 100 290 100 290 81 323.5 c 128,-1,8
 62 357 62 357 62 405.5 c 128,-1,9
 62 454 62 454 75.5 482 c 128,-1,10
 89 510 89 510 109 526 c 128,-1,11
 129 542 129 542 162.5 551 c 0,12,13
 214.611111111 565 214.611111111 565 310.305555556 565 c 128,-1,14
 406 565 406 565 509 535 c 1,15,-1
 485 379 l 1,16,-1
 380 379 l 1,17,-1
 356 490 l 1,18,-1
 252 490 l 1,19,-1
 252 418 l 1,20,-1
 439 289 l 2,21,22
 482 260 482 260 501 226.5 c 128,-1,23
 520 193 520 193 520 144.5 c 128,-1,24
 520 96 520 96 506.5 68 c 128,-1,25
 493 40 493 40 473 24 c 128,-1,26
 453 8 453 8 419.5 -1 c 0,27,28
 367.388888889 -15 367.388888889 -15 265.194444444 -15 c 128,-1,29
 163 -15 163 -15 50 15 c 1,0,-1
456 717 m 1,30,-1
 338 587 l 1,31,-1
 242 587 l 1,32,-1
 124 717 l 1,33,-1
 183 788 l 1,34,-1
 290 712 l 1,35,-1
 397 788 l 1,36,-1
 456 717 l 1,30,-1
EndSplineSet
EndChar

StartChar: ring
Encoding: 730 730 163
Width: 364
Flags: HMW
HStem: 560 72<164.5 199.5 164.5 233> 718 72<164.5 199.5>
LayerCount: 2
Fore
SplineSet
182 790 m 128,-1,1
 256 790 256 790 280 765.5 c 128,-1,2
 304 741 304 741 304 675 c 128,-1,3
 304 609 304 609 280 584.5 c 128,-1,4
 256 560 256 560 182 560 c 128,-1,5
 108 560 108 560 84 584.5 c 128,-1,6
 60 609 60 609 60 675 c 128,-1,7
 60 741 60 741 84 765.5 c 128,-1,0
 108 790 108 790 182 790 c 128,-1,1
182 718 m 128,-1,9
 155 718 155 718 148 711 c 128,-1,10
 141 704 141 704 141 674.5 c 0,11,12
 141 645 141 645 148 638.5 c 128,-1,13
 155 632 155 632 182 632 c 128,-1,14
 209 632 209 632 216 638.5 c 128,-1,15
 223 645 223 645 223 674.5 c 0,16,17
 223 704 223 704 216 711 c 128,-1,8
 209 718 209 718 182 718 c 128,-1,9
EndSplineSet
EndChar

StartChar: aring
Encoding: 229 229 164
Width: 618
Flags: HMW
HStem: -15 21G<204.5 299> 0 21G<455 578 455 455> 240 75<247 348 247 348 211 348> 490 75 560 72<296.5 378> 718 72<296.5 331.5>
VStem: 35 176<76 223> 348 190<76 240 240 240 315 415 38 490 38 490>
LayerCount: 2
Fore
SplineSet
314 790 m 128,-1,1
 388 790 388 790 412 765.5 c 128,-1,2
 436 741 436 741 436 683.5 c 128,-1,3
 436 626 436 626 424 600.5 c 128,-1,4
 412 575 412 575 378 566 c 1,5,-1
 378 560 l 1,6,7
 538 539 538 539 538 415 c 2,8,-1
 538 38 l 1,9,-1
 578 38 l 1,10,-1
 578 0 l 1,11,-1
 455 0 l 1,12,-1
 415 76 l 1,13,-1
 402 76 l 1,14,15
 382 18 382 18 353 1.5 c 128,-1,16
 324 -15 324 -15 272.5 -15 c 128,-1,17
 221 -15 221 -15 203 -14 c 128,-1,18
 185 -13 185 -13 154 -9 c 128,-1,19
 123 -5 123 -5 106 5.5 c 128,-1,20
 89 16 89 16 70.5 33.5 c 0,21,22
 35 67.0810810811 35 67.0810810811 35 150 c 0,23,24
 35 253.984375 35 253.984375 100 287.5 c 0,25,26
 132 304 132 304 165.5 309.5 c 128,-1,27
 199 315 199 315 247 315 c 2,28,-1
 348 315 l 1,29,-1
 348 490 l 1,30,-1
 234 490 l 1,31,-1
 207 379 l 1,32,-1
 92 379 l 1,33,-1
 68 535 l 1,34,35
 154 557 154 557 241 563 c 1,36,-1
 241 569 l 1,37,38
 212 579 212 579 202 603.5 c 128,-1,39
 192 628 192 628 192 684.5 c 128,-1,40
 192 741 192 741 216 765.5 c 128,-1,0
 240 790 240 790 314 790 c 128,-1,1
348 76 m 1,41,-1
 348 240 l 1,42,-1
 211 240 l 1,43,-1
 211 76 l 1,44,-1
 348 76 l 1,41,-1
314 718 m 128,-1,46
 287 718 287 718 280 711 c 128,-1,47
 273 704 273 704 273 674.5 c 128,-1,48
 273 645 273 645 280 638.5 c 128,-1,49
 287 632 287 632 314 632 c 128,-1,50
 341 632 341 632 348 638.5 c 128,-1,51
 355 645 355 645 355 674.5 c 128,-1,52
 355 704 355 704 348 711 c 128,-1,45
 341 718 341 718 314 718 c 128,-1,46
EndSplineSet
EndChar

StartChar: Aring
Encoding: 197 197 165
Width: 582
Flags: HMW
HStem: 0 21G<-35 186 -35 -35 327 327 327 617> 150 55<186 308 186 313 186 308> 615 20G<31 202 202 202 331 483 483 483> 635 72<31 284.5 202 284.5 249.5 483> 793 72<249.5 284.5>
LayerCount: 2
Fore
SplineSet
186 0 m 1,0,-1
 -35 0 l 1,1,-1
 -35 38 l 1,2,-1
 6 38 l 1,3,-1
 93 597 l 1,4,-1
 31 597 l 1,5,-1
 31 635 l 1,6,-1
 202 635 l 1,7,-1
 202 641 l 1,8,9
 168 650 168 650 156.5 675 c 128,-1,10
 145 700 145 700 145 758 c 0,11,12
 145 816 145 816 169 840.5 c 128,-1,13
 193 865 193 865 267 865 c 128,-1,14
 341 865 341 865 365 840.5 c 128,-1,15
 389 816 389 816 389 758.5 c 0,16,17
 389 701 389 701 377 675.5 c 128,-1,18
 365 650 365 650 331 641 c 1,19,-1
 331 635 l 1,20,-1
 483 635 l 1,21,-1
 575 38 l 1,22,-1
 617 38 l 1,23,-1
 617 0 l 1,24,-1
 327 0 l 1,25,-1
 313 150 l 1,26,-1
 186 150 l 1,27,-1
 186 0 l 1,0,-1
186 575 m 1,28,-1
 186 205 l 1,29,-1
 308 205 l 1,30,-1
 275 575 l 1,31,-1
 186 575 l 1,28,-1
267 793 m 128,-1,33
 240 793 240 793 233 786 c 128,-1,34
 226 779 226 779 226 749.5 c 0,35,36
 226 720 226 720 233 713.5 c 128,-1,37
 240 707 240 707 267 707 c 128,-1,38
 294 707 294 707 301 713.5 c 128,-1,39
 308 720 308 720 308 749.5 c 0,40,41
 308 779 308 779 301 786 c 128,-1,32
 294 793 294 793 267 793 c 128,-1,33
EndSplineSet
EndChar

StartChar: bullet
Encoding: 8226 8226 166
Width: 355
Flags: HMW
HStem: 146 27 369 25
VStem: 60 235<214 325>
LayerCount: 2
Fore
SplineSet
274 372 m 128,-1,1
 295 350 295 350 295 269.5 c 128,-1,2
 295 189 295 189 274 167.5 c 128,-1,3
 253 146 253 146 179 146 c 128,-1,4
 105 146 105 146 82.5 167 c 128,-1,5
 60 188 60 188 60 269.5 c 128,-1,6
 60 351 60 351 83 372.5 c 128,-1,7
 106 394 106 394 179.5 394 c 128,-1,0
 253 394 253 394 274 372 c 128,-1,1
EndSplineSet
EndChar

StartChar: lslash
Encoding: 322 322 167
Width: 355
Flags: HMW
HStem: 0 21G<45 315 45 45> 237 21G 470 20G 709 20G<45 275 275 275>
VStem: 85 190<38 292 292 292 354 375 437 691 691 691>
LayerCount: 2
Fore
SplineSet
45 729 m 1,0,-1
 275 729 l 1,1,-1
 275 437 l 1,2,-1
 350 470 l 1,3,-1
 350 408 l 1,4,-1
 275 375 l 1,5,-1
 275 38 l 1,6,-1
 315 38 l 1,7,-1
 315 0 l 1,8,-1
 45 0 l 1,9,-1
 45 38 l 1,10,-1
 85 38 l 1,11,-1
 85 292 l 1,12,-1
 5 257 l 1,13,-1
 5 319 l 1,14,-1
 85 354 l 1,15,-1
 85 691 l 1,16,-1
 45 691 l 1,17,-1
 45 729 l 1,0,-1
EndSplineSet
EndChar

StartChar: Lslash
Encoding: 321 321 168
Width: 531
Flags: HMW
HStem: 0 21G<30 526 30 30> 237 21G<17 17> 451 20G<410 410> 615 20G<30 333 333 333>
VStem: 74 215<60 262 262 262 324 356 418 597>
LayerCount: 2
Fore
SplineSet
17 237 m 1,0,-1
 17 299 l 1,1,-1
 74 324 l 1,2,-1
 74 597 l 1,3,-1
 30 597 l 1,4,-1
 30 635 l 1,5,-1
 333 635 l 1,6,-1
 333 597 l 1,7,-1
 289 597 l 1,8,-1
 289 418 l 1,9,-1
 410 471 l 1,10,-1
 410 409 l 1,11,-1
 289 356 l 1,12,-1
 289 60 l 1,13,-1
 368 60 l 1,14,-1
 409 214 l 1,15,-1
 526 214 l 1,16,-1
 526 0 l 1,17,-1
 30 0 l 1,18,-1
 30 38 l 1,19,-1
 74 38 l 1,20,-1
 74 262 l 1,21,-1
 17 237 l 1,0,-1
EndSplineSet
EndChar

StartChar: dotaccent
Encoding: 729 729 169
Width: 304
Flags: HMW
HStem: 584 21G<111.5 192.5> 745 20G<111.5 192.5>
VStem: 55 194<641.5 708.5>
LayerCount: 2
Fore
SplineSet
152 765 m 128,-1,1
 211 765 211 765 230 746 c 128,-1,2
 249 727 249 727 249 675 c 128,-1,3
 249 623 249 623 230 603.5 c 128,-1,4
 211 584 211 584 152 584 c 128,-1,5
 93 584 93 584 74 603.5 c 128,-1,6
 55 623 55 623 55 675 c 128,-1,7
 55 727 55 727 74 746 c 128,-1,0
 93 765 93 765 152 765 c 128,-1,1
EndSplineSet
EndChar

StartChar: copyright
Encoding: 169 169 170
Width: 528
Flags: HMW
HStem: 208 33<183.5 344 183.5 352.5> 609 21G<237 284 237 237> 628 20G<232 310.5> 690 33<183.5 344>
VStem: 20 217<358 573>
LayerCount: 2
Fore
SplineSet
508 465 m 128,-1,1
 508 384 508 384 495.5 334.5 c 128,-1,2
 483 285 483 285 452 256.5 c 128,-1,3
 421 228 421 228 377.5 218 c 128,-1,4
 334 208 334 208 263.5 208 c 128,-1,5
 193 208 193 208 149.5 218 c 128,-1,6
 106 228 106 228 75.5 256.5 c 128,-1,7
 45 285 45 285 32.5 334.5 c 128,-1,8
 20 384 20 384 20 465 c 128,-1,9
 20 546 20 546 32.5 596.5 c 128,-1,10
 45 647 45 647 76 675 c 128,-1,11
 107 703 107 703 150 713 c 128,-1,12
 193 723 193 723 263.5 723 c 128,-1,13
 334 723 334 723 377.5 713 c 128,-1,14
 421 703 421 703 452 675 c 128,-1,15
 483 647 483 647 495.5 596.5 c 128,-1,0
 508 546 508 546 508 465 c 128,-1,1
284 322 m 1,16,-1
 284 440 l 1,17,-1
 415 440 l 1,18,-1
 415 435 l 2,19,20
 415 356.8 415 356.8 392.5 328 c 0,21,22
 380 312 380 312 368.5 302 c 128,-1,23
 357 292 357 292 335 288.5 c 0,24,25
 300.428571429 283 300.428571429 283 266.714285714 283 c 128,-1,26
 233 283 233 283 220.5 284 c 128,-1,27
 208 285 208 285 188 288.5 c 128,-1,28
 168 292 168 292 158 302 c 128,-1,29
 148 312 148 312 136.5 328 c 0,30,31
 116 356.52173913 116 356.52173913 116 435 c 2,32,-1
 116 497 l 2,33,34
 116 575.458333333 116 575.458333333 147 615.5 c 0,35,36
 159 631 159 631 183.5 638.5 c 128,-1,37
 208 646 208 646 224 647 c 128,-1,38
 240 648 240 648 267 648 c 128,-1,39
 294 648 294 648 305 647.5 c 128,-1,40
 316 647 316 647 334 644.5 c 128,-1,41
 352 642 352 642 361 636.5 c 128,-1,42
 370 631 370 631 382 620 c 128,-1,43
 394 609 394 609 400 593 c 0,44,45
 415 553 415 553 415 497 c 2,46,-1
 415 487 l 1,47,-1
 284 487 l 1,48,-1
 284 609 l 1,49,-1
 237 609 l 1,50,-1
 237 322 l 1,51,-1
 284 322 l 1,16,-1
473 465 m 0,52,53
 473 559 473 559 453 607 c 128,-1,54
 433 655 433 655 390.5 672.5 c 128,-1,55
 348 690 348 690 264 690 c 128,-1,56
 180 690 180 690 137 672.5 c 128,-1,57
 94 655 94 655 74.5 607.5 c 128,-1,58
 55 560 55 560 55 465.5 c 128,-1,59
 55 371 55 371 74.5 323.5 c 128,-1,60
 94 276 94 276 137 258.5 c 128,-1,61
 180 241 180 241 264 241 c 0,62,63
 387 241 387 241 430 285 c 128,-1,64
 473 329 473 329 473 465 c 0,52,53
EndSplineSet
EndChar

StartChar: registered
Encoding: 174 174 171
Width: 528
Flags: HMW
HStem: 208 33<183.5 344 183.5 352.5> 602 21G<245 292 245 245> 620 20G<124 273 273 313> 690 33<183.5 344>
VStem: 292 216<358 405 405 405 436 573 358 602 358 602>
LayerCount: 2
Fore
SplineSet
508 465 m 128,-1,1
 508 384 508 384 495.5 334.5 c 128,-1,2
 483 285 483 285 452 256.5 c 128,-1,3
 421 228 421 228 377.5 218 c 128,-1,4
 334 208 334 208 263.5 208 c 128,-1,5
 193 208 193 208 149.5 218 c 128,-1,6
 106 228 106 228 75.5 256.5 c 128,-1,7
 45 285 45 285 32.5 334.5 c 128,-1,8
 20 384 20 384 20 465 c 128,-1,9
 20 546 20 546 32.5 596.5 c 128,-1,10
 45 647 45 647 76 675 c 128,-1,11
 107 703 107 703 150 713 c 128,-1,12
 193 723 193 723 263.5 723 c 128,-1,13
 334 723 334 723 377.5 713 c 128,-1,14
 421 703 421 703 452 675 c 128,-1,15
 483 647 483 647 495.5 596.5 c 128,-1,0
 508 546 508 546 508 465 c 128,-1,1
245 291 m 1,16,-1
 124 291 l 1,17,-1
 124 640 l 1,18,-1
 273 640 l 2,19,20
 369.761904762 640 369.761904762 640 395.5 616.5 c 0,21,22
 425 589.565217391 425 589.565217391 425 535.282608696 c 128,-1,23
 425 481 425 481 404.5 462 c 128,-1,24
 384 443 384 443 344 438 c 1,25,-1
 344 431 l 1,26,-1
 368 431 l 2,27,28
 387 431 387 431 394.5 424.5 c 128,-1,29
 402 418 402 418 404 398 c 2,30,-1
 415 291 l 1,31,-1
 292 291 l 1,32,-1
 292 405 l 1,33,-1
 245 405 l 1,34,-1
 245 291 l 1,16,-1
292 436 m 1,35,-1
 292 602 l 1,36,-1
 245 602 l 1,37,-1
 245 436 l 1,38,-1
 292 436 l 1,35,-1
473 465 m 0,39,40
 473 559 473 559 453 607 c 128,-1,41
 433 655 433 655 390.5 672.5 c 128,-1,42
 348 690 348 690 264 690 c 128,-1,43
 180 690 180 690 137 672.5 c 128,-1,44
 94 655 94 655 74.5 607.5 c 128,-1,45
 55 560 55 560 55 465.5 c 128,-1,46
 55 371 55 371 74.5 323.5 c 128,-1,47
 94 276 94 276 137 258.5 c 128,-1,48
 180 241 180 241 264 241 c 0,49,50
 387 241 387 241 430 285 c 128,-1,51
 473 329 473 329 473 465 c 0,39,40
EndSplineSet
EndChar

StartChar: Eth
Encoding: 208 208 172
Width: 674
Flags: HMW
HStem: 0 60<289 379> 286 62<27 74 27 74 289 363> 579 56<289 379 379 439 289 289>
VStem: 74 215<60 286 60 286 60 286 348 579> 439 215<139 277 277 359 139 579>
LayerCount: 2
Fore
SplineSet
27 286 m 1,0,-1
 27 348 l 1,1,-1
 74 348 l 1,2,-1
 74 597 l 1,3,-1
 30 597 l 1,4,-1
 30 635 l 1,5,-1
 379 635 l 2,6,7
 485 635 485 635 507.5 627.5 c 128,-1,8
 530 620 530 620 552.5 610.5 c 128,-1,9
 575 601 575 601 587.5 587.5 c 128,-1,10
 600 574 600 574 614.5 553 c 128,-1,11
 629 532 629 532 636.5 505 c 0,12,13
 654 442 654 442 654 359 c 2,14,-1
 654 277 l 2,15,16
 654 140.206896552 654 140.206896552 614.5 83 c 0,17,18
 600 62 600 62 587.5 48 c 128,-1,19
 575 34 575 34 553 24.5 c 128,-1,20
 531 15 531 15 515.5 10.5 c 128,-1,21
 500 6 500 6 472 3.5 c 0,22,23
 432.8 9.99200722163e-16 432.8 9.99200722163e-16 379 0 c 2,24,-1
 30 0 l 1,25,-1
 30 38 l 1,26,-1
 74 38 l 1,27,-1
 74 286 l 1,28,-1
 27 286 l 1,0,-1
439 60 m 1,29,-1
 439 579 l 1,30,-1
 289 579 l 1,31,-1
 289 348 l 1,32,-1
 363 348 l 1,33,-1
 363 286 l 1,34,-1
 289 286 l 1,35,-1
 289 60 l 1,36,-1
 439 60 l 1,29,-1
EndSplineSet
EndChar

StartChar: cedilla
Encoding: 184 184 173
Width: 249
Flags: HMW
HStem: -165 21G<103.5 151> -14 20G<133 154.5>
VStem: 16 220
LayerCount: 2
Fore
SplineSet
236 -76 m 0,0,1
 236 -124 236 -124 203.5 -144.5 c 128,-1,2
 171 -165 171 -165 121 -165 c 0,3,4
 71 -165 71 -165 13 -149 c 1,5,-1
 20 -52 l 1,6,-1
 72 -52 l 1,7,-1
 106 -104 l 1,8,-1
 133 -104 l 1,9,-1
 133 6 l 1,10,11
 236 6 236 6 236 -76 c 0,0,1
EndSplineSet
EndChar

StartChar: ccedilla
Encoding: 231 231 174
Width: 555
Flags: HMW
HStem: -165 21G<255.5 303> -15 65<285 285> -14 20G 500 65<251.5 354 250 354.5>
VStem: 60 190<236 314 314 439.5> 168 220
LayerCount: 2
Fore
SplineSet
362 -14 m 1,0,1
 388 -35 388 -35 388 -79.5 c 128,-1,2
 388 -124 388 -124 355.5 -144.5 c 128,-1,3
 323 -165 323 -165 273 -165 c 128,-1,4
 223 -165 223 -165 165 -149 c 1,5,-1
 172 -52 l 1,6,-1
 224 -52 l 1,7,-1
 258 -104 l 1,8,-1
 285 -104 l 1,9,-1
 285 -15 l 1,10,11
 242 -14 242 -14 214 -10 c 128,-1,12
 186 -6 186 -6 154 8.5 c 128,-1,13
 122 23 122 23 103.5 49 c 0,14,15
 60 110.135135135 60 110.135135135 60 236 c 2,16,-1
 60 314 l 2,17,18
 60 383.538461538 60 383.538461538 71.5 427.769230769 c 128,-1,19
 83 472 83 472 97 491 c 128,-1,20
 111 510 111 510 122.5 522 c 128,-1,21
 134 534 134 534 155.5 542.5 c 128,-1,22
 177 551 177 551 191 555.5 c 128,-1,23
 205 560 205 560 232 562 c 0,24,25
 272.5 565 272.5 565 320 565 c 0,26,27
 416 565 416 565 520 535 c 1,28,-1
 496 379 l 1,29,-1
 381 379 l 1,30,-1
 354 500 l 1,31,-1
 250 500 l 1,32,-1
 250 50 l 1,33,-1
 354 50 l 1,34,-1
 381 171 l 1,35,-1
 496 171 l 1,36,-1
 520 15 l 1,37,38
 451 -11 451 -11 362 -14 c 1,0,1
EndSplineSet
EndChar

StartChar: Ccedilla
Encoding: 199 199 175
Width: 590
Flags: HMW
HStem: -165 21G<269.5 317> -15 72<235 286 286 299> -14 20G 579 71<235 365 235 235>
VStem: 20 215<262 374 374 512> 182 220 365 215<135 227 227 239 135 239 389 408 135 579>
LayerCount: 2
Fore
SplineSet
373 -12 m 1,0,1
 402 -32 402 -32 402 -78 c 128,-1,2
 402 -124 402 -124 369.5 -144.5 c 128,-1,3
 337 -165 337 -165 287 -165 c 128,-1,4
 237 -165 237 -165 179 -149 c 1,5,-1
 186 -52 l 1,6,-1
 238 -52 l 1,7,-1
 272 -104 l 1,8,-1
 299 -104 l 1,9,-1
 299 -15 l 1,10,-1
 286 -15 l 2,11,12
 183.5 -15 183.5 -15 161.75 -7.5 c 128,-1,13
 140 0 140 0 118 9.5 c 128,-1,14
 96 19 96 19 84.5 32.5 c 128,-1,15
 73 46 73 46 58.5 67 c 128,-1,16
 44 88 44 88 37 115.5 c 0,17,18
 20 182.285714286 20 182.285714286 20 262 c 2,19,-1
 20 374 l 2,20,21
 20 453.4 20 453.4 38.5 520 c 0,22,23
 49.8288288288 560.783783784 49.8288288288 560.783783784 90 602.5 c 0,24,25
 108.362218371 621.568457539 108.362218371 621.568457539 165.5 640 c 0,26,27
 196.5 650 196.5 650 275.25 650 c 128,-1,28
 354 650 354 650 384.5 647.5 c 128,-1,29
 415 645 415 645 449 637 c 128,-1,30
 483 629 483 629 504.5 613 c 128,-1,31
 526 597 526 597 544.5 570.5 c 0,32,33
 580 519.648648649 580 519.648648649 580 408 c 2,34,-1
 580 389 l 1,35,-1
 365 389 l 1,36,-1
 365 579 l 1,37,-1
 235 579 l 1,38,-1
 235 57 l 1,39,-1
 365 57 l 1,40,-1
 365 239 l 1,41,-1
 580 239 l 1,42,-1
 580 227 l 2,43,44
 580 98 580 98 528.5 47 c 128,-1,45
 477 -4 477 -4 373 -12 c 1,0,1
EndSplineSet
EndChar

StartChar: endash
Encoding: 8211 8211 176
Width: 608
Flags: HMW
HStem: 213 21G<30 30 30 578> 331 20G<30 578 578 578>
LayerCount: 2
Fore
SplineSet
30 213 m 1,0,-1
 30 351 l 1,1,-1
 578 351 l 1,2,-1
 578 213 l 1,3,-1
 30 213 l 1,0,-1
EndSplineSet
EndChar

StartChar: emdash
Encoding: 8212 8212 177
Width: 880
Flags: HMW
HStem: 213 21G<30 30 30 850> 331 20G<30 850 850 850>
LayerCount: 2
Fore
SplineSet
30 213 m 1,0,-1
 30 351 l 1,1,-1
 850 351 l 1,2,-1
 850 213 l 1,3,-1
 30 213 l 1,0,-1
EndSplineSet
EndChar

StartChar: ordmasculine
Encoding: 186 186 178
Width: 362
Flags: HMW
HStem: 341 21G<135.5 215.5> 623 20G<146 216 146 146> 674 20G<147 226.5>
LayerCount: 2
Fore
SplineSet
332 540 m 2,0,-1
 332 495 l 2,1,2
 332 415.608695652 332 415.608695652 301.5 374.5 c 0,3,4
 290 359 290 359 265 351 c 128,-1,5
 240 343 240 343 223.5 342 c 128,-1,6
 207 341 207 341 175 341 c 128,-1,7
 143 341 143 341 128.5 342 c 128,-1,8
 114 343 114 343 91.5 351 c 128,-1,9
 69 359 69 359 58 374.5 c 0,10,11
 30 413.954545455 30 413.954545455 30 495 c 2,12,-1
 30 540 l 2,13,14
 30 620.458333333 30 620.458333333 61 660.5 c 0,15,16
 73 676 73 676 98 684 c 128,-1,17
 123 692 123 692 139.5 693 c 128,-1,18
 156 694 156 694 187.5 694 c 128,-1,19
 219 694 219 694 233.5 693 c 128,-1,20
 248 692 248 692 270.5 684 c 128,-1,21
 293 676 293 676 304 660.5 c 0,22,23
 332 621.045454545 332 621.045454545 332 540 c 2,0,-1
216 393 m 1,24,-1
 216 643 l 1,25,-1
 146 643 l 1,26,-1
 146 393 l 1,27,-1
 216 393 l 1,24,-1
EndSplineSet
EndChar

StartChar: ordfeminine
Encoding: 170 170 179
Width: 367
Flags: HMW
HStem: 341 21G<105.5 154> 540 20G<52 127 52 52> 623 20G<148 205 148 148> 674 20G<155.5 211.5>
LayerCount: 2
Fore
SplineSet
133 536 m 2,0,-1
 205 536 l 1,1,-1
 205 643 l 1,2,-1
 148 643 l 1,3,-1
 127 560 l 1,4,-1
 52 560 l 1,5,-1
 40 676 l 1,6,7
 139 694 139 694 173 694 c 128,-1,8
 207 694 207 694 229 691 c 128,-1,9
 251 688 251 688 274 679 c 0,10,11
 321 660.608695652 321 660.608695652 321 600 c 2,12,-1
 321 386 l 1,13,-1
 344 386 l 1,14,-1
 344 350 l 1,15,-1
 261 350 l 1,16,-1
 238 403 l 1,17,-1
 232 403 l 1,18,19
 232 372 232 372 201.5 356.5 c 128,-1,20
 171 341 171 341 141 341 c 128,-1,21
 111 341 111 341 100.5 341.5 c 128,-1,22
 90 342 90 342 74 347 c 128,-1,23
 58 352 58 352 50.5 362 c 0,24,25
 31 388 31 388 31 443 c 128,-1,26
 31 498 31 498 55.5 517 c 128,-1,27
 80 536 80 536 133 536 c 2,0,-1
205 403 m 1,28,-1
 205 501 l 1,29,-1
 135 501 l 1,30,-1
 135 403 l 1,31,-1
 205 403 l 1,28,-1
EndSplineSet
EndChar

StartChar: macron
Encoding: 175 175 180
Width: 372
Flags: HMW
HStem: 610 21G<40 40 40 332> 714 20G<40 332 332 332>
LayerCount: 2
Fore
SplineSet
40 610 m 1,0,-1
 40 734 l 1,1,-1
 332 734 l 1,2,-1
 332 610 l 1,3,-1
 40 610 l 1,0,-1
EndSplineSet
EndChar

StartChar: breve
Encoding: 728 728 181
Width: 402
Flags: HMW
HStem: 588 21G<164 234> 729 20G
LayerCount: 2
Fore
SplineSet
33 674 m 1,0,1
 48 697.333333333 48 697.333333333 79 749 c 1,2,3
 136 710 136 710 199 710 c 128,-1,4
 262 710 262 710 319 749 c 1,5,-1
 365 674 l 1,6,7
 309 588 309 588 199 588 c 128,-1,8
 89 588 89 588 33 674 c 1,0,1
EndSplineSet
EndChar

StartChar: ogonek
Encoding: 731 731 182
Width: 249
Flags: HMW
HStem: -165 21G<89 138.5> 18 20G<193 193>
LayerCount: 2
Fore
SplineSet
23 -87 m 0,0,1
 23 13 23 13 193 38 c 1,2,-1
 193 11 l 1,3,4
 133 3 133 3 133 -40 c 0,5,6
 133 -55 133 -55 143 -63.5 c 128,-1,7
 153 -72 153 -72 176.5 -72 c 0,8,9
 200 -72 200 -72 230 -53 c 1,10,-1
 240 -110 l 1,11,12
 219 -132 219 -132 183.5 -148.5 c 128,-1,13
 148 -165 148 -165 111 -165 c 0,14,15
 74 -165 74 -165 48.5 -145.5 c 128,-1,16
 23 -126 23 -126 23 -87 c 0,0,1
EndSplineSet
EndChar

StartChar: hungarumlaut
Encoding: 733 733 183
Width: 495
Flags: HMW
HStem: 580 21G<88 88 320 320> 784 20G<147 147 379 379>
LayerCount: 2
Fore
SplineSet
20 650 m 1,0,-1
 147 804 l 1,1,-1
 243 701 l 1,2,-1
 88 580 l 1,3,-1
 20 650 l 1,0,-1
252 650 m 1,4,-1
 379 804 l 1,5,-1
 475 701 l 1,6,-1
 320 580 l 1,7,-1
 252 650 l 1,4,-1
EndSplineSet
EndChar

StartChar: fraction
Encoding: 8260 8260 184
Width: 238
Flags: HMW
HStem: -48 21G<20 70 20 20> 628 20G<167 218 218 218>
LayerCount: 2
Fore
SplineSet
70 -48 m 1,0,-1
 20 -48 l 1,1,-1
 167 648 l 1,2,-1
 218 648 l 1,3,-1
 70 -48 l 1,0,-1
EndSplineSet
EndChar

StartChar: backslash
Encoding: 92 92 185
Width: 238
Flags: HMW
HStem: -129 21G<205 255 205 205> 709 20G<-17 34 34 34>
LayerCount: 2
Fore
SplineSet
255 -129 m 1,0,-1
 205 -129 l 1,1,-1
 -17 729 l 1,2,-1
 34 729 l 1,3,-1
 255 -129 l 1,0,-1
EndSplineSet
EndChar

StartChar: at
Encoding: 64 64 186
Width: 787
Flags: HMW
HStem: -101 48<278.5 439.5 278.5 439.5> 588 47<278.5 507.5>
VStem: 426 165<139 269 269 269 316 401 117 458 117 458>
LayerCount: 2
Fore
SplineSet
426 139 m 1,0,-1
 426 269 l 1,1,-1
 346 269 l 1,2,-1
 346 139 l 1,3,-1
 426 139 l 1,0,-1
720 69 m 1,4,-1
 492 69 l 1,5,-1
 461 139 l 1,6,-1
 453 139 l 1,7,8
 453 57 453 57 349 57 c 0,9,10
 255.269230769 57 255.269230769 57 230.5 85 c 0,11,12
 200 119.47826087 200 119.47826087 200 192.239130435 c 128,-1,13
 200 265 200 265 238.5 290.5 c 128,-1,14
 277 316 277 316 349 316 c 2,15,-1
 426 316 l 1,16,-1
 426 458 l 1,17,-1
 353 458 l 1,18,-1
 336 365 l 1,19,-1
 234 365 l 1,20,-1
 217 501 l 1,21,22
 322 526 322 526 408 526 c 0,23,24
 541.961538462 526 541.961538462 526 576 467 c 0,25,26
 591 441 591 441 591 401 c 2,27,-1
 591 117 l 1,28,-1
 680 117 l 1,29,30
 692 177 692 177 692 263 c 128,-1,31
 692 349 692 349 682.5 403.5 c 128,-1,32
 673 458 673 458 653.5 495 c 128,-1,33
 634 532 634 532 597 552 c 128,-1,34
 560 572 560 572 512.5 580 c 128,-1,35
 465 588 465 588 393 588 c 128,-1,36
 321 588 321 588 273.5 580 c 128,-1,37
 226 572 226 572 189.5 552 c 128,-1,38
 153 532 153 532 133.5 495 c 0,39,40
 95 421.948717949 95 421.948717949 95 277.474358974 c 128,-1,41
 95 133 95 133 123 65 c 128,-1,42
 151 -3 151 -3 212 -28 c 128,-1,43
 273 -53 273 -53 399 -53 c 128,-1,44
 525 -53 525 -53 691 -15 c 1,45,-1
 691 -62 l 1,46,47
 520 -101 520 -101 406 -101 c 128,-1,48
 292 -101 292 -101 230 -86.5 c 128,-1,49
 168 -72 168 -72 124 -31.5 c 128,-1,50
 80 9 80 9 62.5 80.5 c 128,-1,51
 45 152 45 152 45 267.5 c 128,-1,52
 45 383 45 383 62.5 454.5 c 128,-1,53
 80 526 80 526 124.5 566.5 c 128,-1,54
 169 607 169 607 230.5 621 c 128,-1,55
 292 635 292 635 393 635 c 128,-1,56
 494 635 494 635 555.5 621 c 128,-1,57
 617 607 617 607 661.5 566.5 c 128,-1,58
 706 526 706 526 724 454.5 c 128,-1,59
 742 383 742 383 742 263.5 c 128,-1,60
 742 144 742 144 720 69 c 1,4,-1
EndSplineSet
EndChar

StartChar: percent
Encoding: 37 37 187
Width: 928
Flags: HMW
HStem: -48 21G<365 415 365 365> -6 21G<673 750> 202 21G<165 242> 382 20G<686.5 763.5> 590 20G<178.5 255.5> 628 20G<512 563 563 563>
LayerCount: 2
Fore
SplineSet
380 448 m 2,0,-1
 380 364 l 2,1,2
 380 317 380 317 368 285 c 128,-1,3
 356 253 356 253 341.5 237 c 128,-1,4
 327 221 327 221 298.5 212.5 c 128,-1,5
 270 204 270 204 252.5 203 c 128,-1,6
 235 202 235 202 203.5 202 c 128,-1,7
 172 202 172 202 156 203 c 128,-1,8
 140 204 140 204 114 212.5 c 128,-1,9
 88 221 88 221 74.5 237 c 0,10,11
 40 277.888888889 40 277.888888889 40 364 c 2,12,-1
 40 448 l 2,13,14
 40 495 40 495 52 527 c 128,-1,15
 64 559 64 559 79 575 c 128,-1,16
 94 591 94 591 122.5 599.5 c 128,-1,17
 151 608 151 608 168.5 609 c 128,-1,18
 186 610 186 610 217.5 610 c 128,-1,19
 249 610 249 610 265 609 c 128,-1,20
 281 608 281 608 306.5 599.5 c 128,-1,21
 332 591 332 591 345.5 575 c 0,22,23
 380 534.111111111 380 534.111111111 380 448 c 2,0,-1
166 239 m 1,24,-1
 224 239 l 1,25,-1
 258 571 l 1,26,-1
 200 571 l 1,27,-1
 166 239 l 1,24,-1
415 -48 m 1,28,-1
 365 -48 l 1,29,-1
 512 648 l 1,30,-1
 563 648 l 1,31,-1
 415 -48 l 1,28,-1
888 240 m 2,32,-1
 888 156 l 2,33,34
 888 109 888 109 876 77 c 128,-1,35
 864 45 864 45 849.5 29 c 128,-1,36
 835 13 835 13 806.5 4.5 c 128,-1,37
 778 -4 778 -4 760.5 -5 c 128,-1,38
 743 -6 743 -6 711.5 -6 c 128,-1,39
 680 -6 680 -6 664 -5 c 128,-1,40
 648 -4 648 -4 622 4.5 c 128,-1,41
 596 13 596 13 582.5 29 c 0,42,43
 548 69.8888888889 548 69.8888888889 548 156 c 2,44,-1
 548 240 l 2,45,46
 548 287 548 287 560 319 c 128,-1,47
 572 351 572 351 587 367 c 128,-1,48
 602 383 602 383 630.5 391.5 c 128,-1,49
 659 400 659 400 676.5 401 c 128,-1,50
 694 402 694 402 725.5 402 c 128,-1,51
 757 402 757 402 773 401 c 128,-1,52
 789 400 789 400 814.5 391.5 c 128,-1,53
 840 383 840 383 853.5 367 c 0,54,55
 888 326.111111111 888 326.111111111 888 240 c 2,32,-1
674 31 m 1,56,-1
 732 31 l 1,57,-1
 766 363 l 1,58,-1
 708 363 l 1,59,-1
 674 31 l 1,56,-1
EndSplineSet
EndChar

StartChar: underscore
Encoding: 95 95 188
Width: 486
Flags: HMW
HStem: -153 21G<24 24 24 462> -35 20G<24 462 462 462>
LayerCount: 2
Fore
SplineSet
24 -153 m 1,0,-1
 24 -15 l 1,1,-1
 462 -15 l 1,2,-1
 462 -153 l 1,3,-1
 24 -153 l 1,0,-1
EndSplineSet
EndChar

StartChar: OE
Encoding: 338 338 189
Width: 882
Flags: HMW
HStem: 0 60<235 295 295 385 600 689> 284 55<600 791 600 791> 575 60<325 385 600 689 600 600>
VStem: 20 215<262 374 374 504.5> 385 215<60 284 339 575>
LayerCount: 2
Fore
SplineSet
847 0 m 1,0,-1
 295 0 l 2,1,2
 190.666666667 0 190.666666667 0 167.333333333 7 c 128,-1,3
 144 14 144 14 121.5 23 c 128,-1,4
 99 32 99 32 86.5 45 c 128,-1,5
 74 58 74 58 59.5 77.5 c 128,-1,6
 45 97 45 97 37.5 123 c 0,7,8
 20 183.666666667 20 183.666666667 20 262 c 2,9,-1
 20 374 l 2,10,11
 20 507.142857143 20 507.142857143 64.5 558 c 0,12,13
 89 586 89 586 111 602.5 c 128,-1,14
 133 619 133 619 176 625.5 c 0,15,16
 238.846153846 635 238.846153846 635 325 635 c 2,17,-1
 847 635 l 1,18,-1
 847 421 l 1,19,-1
 730 421 l 1,20,-1
 689 575 l 1,21,-1
 600 575 l 1,22,-1
 600 339 l 1,23,-1
 791 339 l 1,24,-1
 791 284 l 1,25,-1
 600 284 l 1,26,-1
 600 60 l 1,27,-1
 689 60 l 1,28,-1
 730 214 l 1,29,-1
 847 214 l 1,30,-1
 847 0 l 1,0,-1
385 60 m 1,31,-1
 385 575 l 1,32,-1
 235 575 l 1,33,-1
 235 60 l 1,34,-1
 385 60 l 1,31,-1
EndSplineSet
EndChar

StartChar: perthousand
Encoding: 8240 8240 190
Width: 1177
Flags: HMW
HStem: -48 21G<365 415 365 365> -6 21G<673 732 938.5 999> 202 21G<165 242> 382 20G<686.5 747 953.5 1012.5> 590 20G<178.5 255.5> 628 20G<512 563 563 563>
LayerCount: 2
Fore
SplineSet
1137 240 m 2,0,-1
 1137 156 l 2,1,2
 1137 109 1137 109 1125 77 c 128,-1,3
 1113 45 1113 45 1098.5 29 c 128,-1,4
 1084 13 1084 13 1055.5 4.5 c 128,-1,5
 1027 -4 1027 -4 1009.5 -5 c 128,-1,6
 992 -6 992 -6 959 -6 c 0,7,8
 872 -6 872 -6 840 22 c 1,9,10
 804 -6 804 -6 710 -6 c 0,11,12
 680 -6 680 -6 664 -5 c 128,-1,13
 648 -4 648 -4 622 4.5 c 128,-1,14
 596 13 596 13 582.5 29 c 0,15,16
 548 69.8888888889 548 69.8888888889 548 156 c 2,17,-1
 548 240 l 2,18,19
 548 287 548 287 560 319 c 128,-1,20
 572 351 572 351 587 367 c 128,-1,21
 602 383 602 383 630.5 391.5 c 128,-1,22
 659 400 659 400 676.5 401 c 128,-1,23
 694 402 694 402 727 402 c 0,24,25
 813 402 813 402 845 374 c 1,26,27
 881 402 881 402 976 402 c 0,28,29
 1006 402 1006 402 1022 401 c 128,-1,30
 1038 400 1038 400 1063.5 391.5 c 128,-1,31
 1089 383 1089 383 1102.5 367 c 0,32,33
 1137 326.111111111 1137 326.111111111 1137 240 c 2,0,-1
380 448 m 2,34,-1
 380 364 l 2,35,36
 380 317 380 317 368 285 c 128,-1,37
 356 253 356 253 341.5 237 c 128,-1,38
 327 221 327 221 298.5 212.5 c 128,-1,39
 270 204 270 204 252.5 203 c 128,-1,40
 235 202 235 202 203.5 202 c 128,-1,41
 172 202 172 202 156 203 c 128,-1,42
 140 204 140 204 114 212.5 c 128,-1,43
 88 221 88 221 74.5 237 c 0,44,45
 40 277.888888889 40 277.888888889 40 364 c 2,46,-1
 40 448 l 2,47,48
 40 495 40 495 52 527 c 128,-1,49
 64 559 64 559 79 575 c 128,-1,50
 94 591 94 591 122.5 599.5 c 128,-1,51
 151 608 151 608 168.5 609 c 128,-1,52
 186 610 186 610 217.5 610 c 128,-1,53
 249 610 249 610 265 609 c 128,-1,54
 281 608 281 608 306.5 599.5 c 128,-1,55
 332 591 332 591 345.5 575 c 0,56,57
 380 534.111111111 380 534.111111111 380 448 c 2,34,-1
415 -48 m 1,58,-1
 365 -48 l 1,59,-1
 512 648 l 1,60,-1
 563 648 l 1,61,-1
 415 -48 l 1,58,-1
166 239 m 1,62,-1
 224 239 l 1,63,-1
 258 571 l 1,64,-1
 200 571 l 1,65,-1
 166 239 l 1,62,-1
674 31 m 1,66,-1
 732 31 l 1,67,-1
 766 363 l 1,68,-1
 708 363 l 1,69,-1
 674 31 l 1,66,-1
923 31 m 1,70,-1
 981 31 l 1,71,-1
 1015 363 l 1,72,-1
 957 363 l 1,73,-1
 923 31 l 1,70,-1
EndSplineSet
EndChar

StartChar: fi
Encoding: 64257 64257 191
Width: 715
Flags: HMW
HStem: 0 21G<45 345 45 45 405 405 405 675> 444 48<45 85 45 85 275 275 275 352> 530 20G<405 635 635 635> 724 20G<205 283> 745 20G<500.5 586>
VStem: 85 190<38 444 38 444 38 540 38 616> 445 190<38 512 512 512>
LayerCount: 2
Fore
SplineSet
45 444 m 1,0,-1
 45 492 l 1,1,-1
 85 492 l 1,2,-1
 85 540 l 2,3,4
 85 652 85 652 128.5 698 c 128,-1,5
 172 744 172 744 267 744 c 0,6,7
 309 744 309 744 369 731 c 1,8,-1
 352 578 l 1,9,-1
 200 578 l 1,10,-1
 200 518 l 2,11,12
 200 506 200 506 205 500 c 0,13,14
 211.666666667 492 211.666666667 492 230 492 c 2,15,-1
 352 492 l 1,16,-1
 352 444 l 1,17,-1
 275 444 l 1,18,-1
 275 38 l 1,19,-1
 345 38 l 1,20,-1
 345 0 l 1,21,-1
 45 0 l 1,22,-1
 45 38 l 1,23,-1
 85 38 l 1,24,-1
 85 444 l 1,25,-1
 45 444 l 1,0,-1
675 0 m 1,26,-1
 405 0 l 1,27,-1
 405 38 l 1,28,-1
 445 38 l 1,29,-1
 445 512 l 1,30,-1
 405 512 l 1,31,-1
 405 550 l 1,32,-1
 635 550 l 1,33,-1
 635 38 l 1,34,-1
 675 38 l 1,35,-1
 675 0 l 1,26,-1
644 682 m 128,-1,37
 644 627 644 627 626 613 c 128,-1,38
 608 599 608 599 542 599 c 128,-1,39
 476 599 476 599 455.5 613 c 128,-1,40
 435 627 435 627 435 682 c 128,-1,41
 435 737 435 737 455.5 751 c 128,-1,42
 476 765 476 765 542 765 c 128,-1,43
 608 765 608 765 626 751 c 128,-1,36
 644 737 644 737 644 682 c 128,-1,37
EndSplineSet
EndChar

StartChar: fl
Encoding: 64258 64258 192
Width: 715
Flags: HMW
HStem: 0 21G<45 345 45 45 405 405 405 675> 444 48<45 85 45 85 275 275 275 352> 709 20G<405 635 635 635> 724 20G<205 283>
VStem: 85 190<38 444 38 444 38 540 38 616> 445 190<38 691 691 691>
LayerCount: 2
Fore
SplineSet
45 444 m 1,0,-1
 45 492 l 1,1,-1
 85 492 l 1,2,-1
 85 540 l 2,3,4
 85 652 85 652 128.5 698 c 128,-1,5
 172 744 172 744 267 744 c 0,6,7
 309 744 309 744 369 731 c 1,8,-1
 352 578 l 1,9,-1
 200 578 l 1,10,-1
 200 518 l 2,11,12
 200 506 200 506 205 500 c 0,13,14
 211.666666667 492 211.666666667 492 230 492 c 2,15,-1
 352 492 l 1,16,-1
 352 444 l 1,17,-1
 275 444 l 1,18,-1
 275 38 l 1,19,-1
 345 38 l 1,20,-1
 345 0 l 1,21,-1
 45 0 l 1,22,-1
 45 38 l 1,23,-1
 85 38 l 1,24,-1
 85 444 l 1,25,-1
 45 444 l 1,0,-1
405 729 m 1,26,-1
 635 729 l 1,27,-1
 635 38 l 1,28,-1
 675 38 l 1,29,-1
 675 0 l 1,30,-1
 405 0 l 1,31,-1
 405 38 l 1,32,-1
 445 38 l 1,33,-1
 445 691 l 1,34,-1
 405 691 l 1,35,-1
 405 729 l 1,26,-1
EndSplineSet
EndChar

StartChar: ae
Encoding: 230 230 193
Width: 891
Flags: HMW
HStem: -15 75<551 628.5> 235 80 490 75<260.5 324 260.5 348 234 324 583.5 675>
VStem: 35 176<76 223> 348 190<76 235 60 240 60 240 315 490> 675 156<317.5 482.5 317.5 490 317.5 490>
CounterMasks: 1 e0
LayerCount: 2
Fore
SplineSet
538 60 m 1,0,-1
 663 60 l 1,1,-1
 689 171 l 1,2,-1
 796 171 l 1,3,-1
 819 15 l 1,4,5
 701 -15 701 -15 594 -15 c 0,6,7
 521.888888889 -15 521.888888889 -15 489.944444444 -3.5 c 128,-1,8
 458 8 458 8 441 27 c 128,-1,9
 424 46 424 46 414 76 c 1,10,-1
 402 76 l 1,11,12
 382 18 382 18 353 1.5 c 128,-1,13
 324 -15 324 -15 272.5 -15 c 128,-1,14
 221 -15 221 -15 203 -14 c 128,-1,15
 185 -13 185 -13 154 -9 c 128,-1,16
 123 -5 123 -5 106 5.5 c 128,-1,17
 89 16 89 16 70.5 33.5 c 0,18,19
 35 67.0810810811 35 67.0810810811 35 150 c 0,20,21
 35 253.984375 35 253.984375 100 287.5 c 0,22,23
 132 304 132 304 165.5 309.5 c 128,-1,24
 199 315 199 315 247 315 c 2,25,-1
 348 315 l 1,26,-1
 348 490 l 1,27,-1
 234 490 l 1,28,-1
 207 379 l 1,29,-1
 92 379 l 1,30,-1
 68 535 l 1,31,32
 181 565 181 565 292 565 c 128,-1,33
 403 565 403 565 449 532 c 1,34,35
 483.570200573 561.111747851 483.570200573 561.111747851 550 564 c 0,36,37
 573 565 573 565 612 565 c 128,-1,38
 651 565 651 565 667 564.5 c 128,-1,39
 683 564 683 564 710 561 c 128,-1,40
 737 558 737 558 750.5 552 c 128,-1,41
 764 546 764 546 782.5 534 c 128,-1,42
 801 522 801 522 809.5 505 c 128,-1,43
 818 488 818 488 824.5 461.5 c 128,-1,44
 831 435 831 435 831 400 c 128,-1,45
 831 365 831 365 824.5 338.5 c 128,-1,46
 818 312 818 312 809.5 295 c 128,-1,47
 801 278 801 278 782.5 266 c 128,-1,48
 764 254 764 254 750.5 248 c 128,-1,49
 737 242 737 242 710 239 c 0,50,51
 674 235 674 235 619 235 c 2,52,-1
 538 235 l 1,53,-1
 538 60 l 1,0,-1
538 490 m 1,54,-1
 538 310 l 1,55,-1
 675 310 l 1,56,-1
 675 490 l 1,57,-1
 538 490 l 1,54,-1
348 76 m 1,58,-1
 348 240 l 1,59,-1
 211 240 l 1,60,-1
 211 76 l 1,61,-1
 348 76 l 1,58,-1
EndSplineSet
EndChar

StartChar: thorn
Encoding: 254 254 194
Width: 668
Flags: HMW
HStem: -180 21G<80 325 80 80> -15 75<327 406.5> 535 20G<338 434.5> 709 20G<40 270 270 270>
VStem: 80 190<-142 -9 -142 60 60 464 595 691 691 691> 417 190<110.5 236 236 304 110.5 464>
LayerCount: 2
Fore
SplineSet
325 -180 m 1,0,-1
 80 -180 l 1,1,-1
 80 691 l 1,2,-1
 40 691 l 1,3,-1
 40 729 l 1,4,-1
 270 729 l 1,5,-1
 270 595 l 1,6,-1
 229 580 l 2,7,8
 212 574 212 574 207.5 568.5 c 128,-1,9
 203 563 203 563 203 550 c 2,10,-1
 203 464 l 1,11,-1
 221 464 l 1,12,13
 242 519 242 519 277.5 537 c 128,-1,14
 313 555 313 555 356.5 555 c 128,-1,15
 400 555 400 555 413.5 554.5 c 128,-1,16
 427 554 427 554 451.5 552 c 128,-1,17
 476 550 476 550 489 545.5 c 128,-1,18
 502 541 502 541 521 532.5 c 128,-1,19
 540 524 540 524 550.5 512 c 128,-1,20
 561 500 561 500 573.5 481 c 128,-1,21
 586 462 586 462 592 437 c 0,22,23
 607 374.5 607 374.5 607 304 c 2,24,-1
 607 236 l 2,25,26
 607 138.44 607 138.44 583.5 90.5 c 0,27,28
 571 65 571 65 558.5 46.5 c 128,-1,29
 546 28 546 28 523 16.5 c 128,-1,30
 500 5 500 5 484 -1.5 c 128,-1,31
 468 -8 468 -8 437.5 -11 c 0,32,33
 396.833333333 -15 396.833333333 -15 356.416666667 -15 c 128,-1,34
 316 -15 316 -15 270 -9 c 1,35,-1
 270 -142 l 1,36,-1
 325 -142 l 1,37,-1
 325 -180 l 1,0,-1
417 60 m 1,38,-1
 417 464 l 1,39,-1
 270 464 l 1,40,-1
 270 60 l 1,41,-1
 417 60 l 1,38,-1
EndSplineSet
EndChar

StartChar: Thorn
Encoding: 222 222 195
Width: 669
Flags: HMW
HStem: 0 21G<30 333 30 30> 92 72<289 379 289 439> 514 70<289 382 382 439 289 382> 615 20G<30 289 289 289>
VStem: 74 215<38 92 38 164 164 514 584 597 597 597> 439 215<216 461 216 514 216 514>
LayerCount: 2
Fore
SplineSet
654 339 m 128,-1,1
 654 299 654 299 649 266 c 128,-1,2
 644 233 644 233 636.5 208.5 c 128,-1,3
 629 184 629 184 614.5 165.5 c 128,-1,4
 600 147 600 147 587.5 134.5 c 128,-1,5
 575 122 575 122 553 114 c 128,-1,6
 531 106 531 106 515.5 101.5 c 128,-1,7
 500 97 500 97 472 95 c 0,8,9
 430 92 430 92 379 92 c 2,10,-1
 289 92 l 1,11,-1
 289 38 l 1,12,-1
 333 38 l 1,13,-1
 333 0 l 1,14,-1
 30 0 l 1,15,-1
 30 38 l 1,16,-1
 74 38 l 1,17,-1
 74 597 l 1,18,-1
 30 597 l 1,19,-1
 30 635 l 1,20,-1
 289 635 l 1,21,-1
 289 584 l 1,22,-1
 382 584 l 2,23,24
 485.333333333 584 485.333333333 584 508.666666667 577 c 128,-1,25
 532 570 532 570 554 562 c 128,-1,26
 576 554 576 554 588.5 541.5 c 128,-1,27
 601 529 601 529 615.5 510.5 c 128,-1,28
 630 492 630 492 637 468 c 128,-1,29
 644 444 644 444 649 411.5 c 128,-1,0
 654 379 654 379 654 339 c 128,-1,1
439 164 m 1,30,-1
 439 514 l 1,31,-1
 289 514 l 1,32,-1
 289 164 l 1,33,-1
 439 164 l 1,30,-1
EndSplineSet
EndChar

StartChar: minus
Encoding: 8722 8722 196
Width: 540
Flags: HMW
HStem: 261 21G<60 60 60 480> 343 20G<60 480 480 480>
LayerCount: 2
Fore
SplineSet
60 261 m 1,0,-1
 60 363 l 1,1,-1
 480 363 l 1,2,-1
 480 261 l 1,3,-1
 60 261 l 1,0,-1
EndSplineSet
EndChar

StartChar: plus
Encoding: 43 43 197
Width: 540
Flags: HMW
HStem: 102 21G<219 321 219 219> 502 20G<219 321 321 321>
LayerCount: 2
Fore
SplineSet
60 261 m 1,0,-1
 60 363 l 1,1,-1
 219 363 l 1,2,-1
 219 522 l 1,3,-1
 321 522 l 1,4,-1
 321 363 l 1,5,-1
 480 363 l 1,6,-1
 480 261 l 1,7,-1
 321 261 l 1,8,-1
 321 102 l 1,9,-1
 219 102 l 1,10,-1
 219 261 l 1,11,-1
 60 261 l 1,0,-1
EndSplineSet
EndChar

StartChar: ellipsis
Encoding: 8230 8230 198
Width: 924
Flags: HMW
HStem: -10 21G<118.5 194.5 426.5 502.5 734.5 810.5> 168 20G<119 195 427 503 735 811>
VStem: 60 188<44 133> 368 188<44 133> 676 188<44 133>
CounterMasks: 1 38
LayerCount: 2
Fore
SplineSet
231.5 170.5 m 128,-1,1
 248 153 248 153 248 88.5 c 128,-1,2
 248 24 248 24 231 7 c 128,-1,3
 214 -10 214 -10 155 -10 c 128,-1,4
 96 -10 96 -10 78 7 c 128,-1,5
 60 24 60 24 60 89 c 128,-1,6
 60 154 60 154 78.5 171 c 128,-1,7
 97 188 97 188 156 188 c 128,-1,0
 215 188 215 188 231.5 170.5 c 128,-1,1
539.5 170.5 m 128,-1,9
 556 153 556 153 556 88.5 c 128,-1,10
 556 24 556 24 539 7 c 128,-1,11
 522 -10 522 -10 463 -10 c 128,-1,12
 404 -10 404 -10 386 7 c 128,-1,13
 368 24 368 24 368 89 c 128,-1,14
 368 154 368 154 386.5 171 c 128,-1,15
 405 188 405 188 464 188 c 128,-1,8
 523 188 523 188 539.5 170.5 c 128,-1,9
847.5 170.5 m 128,-1,17
 864 153 864 153 864 88.5 c 128,-1,18
 864 24 864 24 847 7 c 128,-1,19
 830 -10 830 -10 771 -10 c 128,-1,20
 712 -10 712 -10 694 7 c 128,-1,21
 676 24 676 24 676 89 c 128,-1,22
 676 154 676 154 694.5 171 c 128,-1,23
 713 188 713 188 772 188 c 128,-1,16
 831 188 831 188 847.5 170.5 c 128,-1,17
EndSplineSet
EndChar

StartChar: equal
Encoding: 61 61 199
Width: 540
Flags: HMW
HStem: 161 21G<60 60 60 480> 243 20G<60 480 480 480> 361 21G<60 60 60 480> 443 20G<60 480 480 480>
LayerCount: 2
Fore
SplineSet
60 361 m 1,0,-1
 60 463 l 1,1,-1
 480 463 l 1,2,-1
 480 361 l 1,3,-1
 60 361 l 1,0,-1
60 161 m 1,4,-1
 60 263 l 1,5,-1
 480 263 l 1,6,-1
 480 161 l 1,7,-1
 60 161 l 1,4,-1
EndSplineSet
EndChar

StartChar: notequal
Encoding: 8800 8800 200
Width: 540
Flags: HMW
HStem: -122 21G<134 184 134 134> 161 21G<60 207 60 60 257 480 257 257> 243 20G<60 233 233 233 283 480 480 480> 361 21G<60 60 60 258 309 309 309 480> 443 20G<60 284 284 284 335 480 480 480> 716 20G<355 406 406 406>
LayerCount: 2
Fore
SplineSet
60 361 m 1,0,-1
 60 463 l 1,1,-1
 284 463 l 1,2,-1
 355 736 l 1,3,-1
 406 736 l 1,4,-1
 335 463 l 1,5,-1
 480 463 l 1,6,-1
 480 361 l 1,7,-1
 309 361 l 1,8,-1
 283 263 l 1,9,-1
 480 263 l 1,10,-1
 480 161 l 1,11,-1
 257 161 l 1,12,-1
 184 -122 l 1,13,-1
 134 -122 l 1,14,-1
 207 161 l 1,15,-1
 60 161 l 1,16,-1
 60 263 l 1,17,-1
 233 263 l 1,18,-1
 258 361 l 1,19,-1
 60 361 l 1,0,-1
EndSplineSet
EndChar

StartChar: divide
Encoding: 247 247 201
Width: 540
Flags: HMW
HStem: 52 17 194 16 261 21G<60 60 60 480> 343 20G<60 480 480 480> 413 17 555 16
VStem: 195 150<95 166 456 527>
LayerCount: 2
Fore
SplineSet
332 557 m 128,-1,1
 345 543 345 543 345 491.5 c 128,-1,2
 345 440 345 440 331.5 426.5 c 128,-1,3
 318 413 318 413 271 413 c 128,-1,4
 224 413 224 413 209.5 426.5 c 128,-1,5
 195 440 195 440 195 492 c 128,-1,6
 195 544 195 544 209.5 557.5 c 128,-1,7
 224 571 224 571 271.5 571 c 128,-1,0
 319 571 319 571 332 557 c 128,-1,1
60 261 m 1,8,-1
 60 363 l 1,9,-1
 480 363 l 1,10,-1
 480 261 l 1,11,-1
 60 261 l 1,8,-1
332 196 m 128,-1,13
 345 182 345 182 345 130.5 c 128,-1,14
 345 79 345 79 331.5 65.5 c 128,-1,15
 318 52 318 52 271 52 c 128,-1,16
 224 52 224 52 209.5 65.5 c 128,-1,17
 195 79 195 79 195 131 c 128,-1,18
 195 183 195 183 209.5 196.5 c 128,-1,19
 224 210 224 210 271.5 210 c 128,-1,12
 319 210 319 210 332 196 c 128,-1,13
EndSplineSet
EndChar

StartChar: logicalnot
Encoding: 172 172 202
Width: 540
Flags: HMW
HStem: 121 21G<399 480 399 399> 261 21G<60 399 60 60> 343 20G<60 480 480 480>
LayerCount: 2
Fore
SplineSet
480 121 m 1,0,-1
 399 121 l 1,1,-1
 399 261 l 1,2,-1
 60 261 l 1,3,-1
 60 363 l 1,4,-1
 480 363 l 1,5,-1
 480 121 l 1,0,-1
EndSplineSet
EndChar

StartChar: multiply
Encoding: 215 215 203
Width: 540
Flags: HMW
HStem: 119 21G<145 145 395 395> 485 20G<145 145 395 395>
LayerCount: 2
Fore
SplineSet
145 119 m 1,0,-1
 77 187 l 1,1,-1
 202 312 l 1,2,-1
 77 437 l 1,3,-1
 145 505 l 1,4,-1
 270 380 l 1,5,-1
 395 505 l 1,6,-1
 463 437 l 1,7,-1
 338 312 l 1,8,-1
 463 187 l 1,9,-1
 395 119 l 1,10,-1
 270 244 l 1,11,-1
 145 119 l 1,0,-1
EndSplineSet
EndChar

StartChar: plusminus
Encoding: 177 177 204
Width: 540
Flags: HMW
HStem: 0 21G<60 60 60 480> 82 20G<60 480 480 480> 204 21G<219 321 219 219> 604 20G<219 321 321 321>
LayerCount: 2
Fore
SplineSet
60 363 m 1,0,-1
 60 465 l 1,1,-1
 219 465 l 1,2,-1
 219 624 l 1,3,-1
 321 624 l 1,4,-1
 321 465 l 1,5,-1
 480 465 l 1,6,-1
 480 363 l 1,7,-1
 321 363 l 1,8,-1
 321 204 l 1,9,-1
 219 204 l 1,10,-1
 219 363 l 1,11,-1
 60 363 l 1,0,-1
60 0 m 1,12,-1
 60 102 l 1,13,-1
 480 102 l 1,14,-1
 480 0 l 1,15,-1
 60 0 l 1,12,-1
EndSplineSet
EndChar

StartChar: less
Encoding: 60 60 205
Width: 540
Flags: HMW
HStem: 86 21G<480 480> 523 20G<480 480>
LayerCount: 2
Fore
SplineSet
60 266 m 1,0,-1
 60 363 l 1,1,-1
 480 543 l 1,2,-1
 480 441 l 1,3,-1
 168 314 l 1,4,-1
 480 188 l 1,5,-1
 480 86 l 1,6,-1
 60 266 l 1,0,-1
EndSplineSet
EndChar

StartChar: greater
Encoding: 62 62 206
Width: 540
Flags: HMW
HStem: 86 21G<60 60> 523 20G<60 60>
LayerCount: 2
Fore
SplineSet
480 363 m 1,0,-1
 480 266 l 1,1,-1
 60 86 l 1,2,-1
 60 188 l 1,3,-1
 372 314 l 1,4,-1
 60 441 l 1,5,-1
 60 543 l 1,6,-1
 480 363 l 1,0,-1
EndSplineSet
EndChar

StartChar: lessequal
Encoding: 8804 8804 207
Width: 540
Flags: HMW
HStem: 0 21G<60 60 60 480> 82 20G<60 480 480 480> 188 21G<480 480> 625 20G<480 480>
LayerCount: 2
Fore
SplineSet
60 368 m 1,0,-1
 60 465 l 1,1,-1
 480 645 l 1,2,-1
 480 543 l 1,3,-1
 168 416 l 1,4,-1
 480 290 l 1,5,-1
 480 188 l 1,6,-1
 60 368 l 1,0,-1
60 0 m 1,7,-1
 60 102 l 1,8,-1
 480 102 l 1,9,-1
 480 0 l 1,10,-1
 60 0 l 1,7,-1
EndSplineSet
EndChar

StartChar: greaterequal
Encoding: 8805 8805 208
Width: 540
Flags: HMW
HStem: 0 21G<60 60 60 480> 82 20G<60 480 480 480> 188 21G<60 60> 625 20G<60 60>
LayerCount: 2
Fore
SplineSet
480 465 m 1,0,-1
 480 368 l 1,1,-1
 60 188 l 1,2,-1
 60 290 l 1,3,-1
 372 416 l 1,4,-1
 60 543 l 1,5,-1
 60 645 l 1,6,-1
 480 465 l 1,0,-1
60 0 m 1,7,-1
 60 102 l 1,8,-1
 480 102 l 1,9,-1
 480 0 l 1,10,-1
 60 0 l 1,7,-1
EndSplineSet
EndChar

StartChar: oe
Encoding: 339 339 209
Width: 930
Flags: HMW
HStem: -15 75<250 343 617 677.5> 235 75<587 668 587 724> 490 75<250 366.5 264 366.5 264 436 636.5 724>
VStem: 60 190<236 314 314 439.5> 397 190<184 235 310 314 314 355.5> 724 156<317.5 482.5 317.5 490 317.5 490>
LayerCount: 2
Fore
SplineSet
587 60 m 1,0,-1
 712 60 l 1,1,-1
 738 171 l 1,2,-1
 845 171 l 1,3,-1
 868 15 l 1,4,5
 750 -15 750 -15 646 -15 c 128,-1,6
 542 -15 542 -15 489 9 c 1,7,8
 440 -15 440 -15 310 -15 c 0,9,10
 215.555555556 -15 215.555555556 -15 193.777777778 -8 c 128,-1,11
 172 -1 172 -1 151.5 7.5 c 128,-1,12
 131 16 131 16 120 28 c 128,-1,13
 109 40 109 40 95.5 59 c 128,-1,14
 82 78 82 78 75.5 103 c 0,15,16
 60 162.615384615 60 162.615384615 60 236 c 2,17,-1
 60 314 l 2,18,19
 60 440.333333333 60 440.333333333 100 491 c 0,20,21
 115 510 115 510 127 522 c 128,-1,22
 139 534 139 534 162 542.5 c 128,-1,23
 185 551 185 551 200 555.5 c 128,-1,24
 215 560 215 560 243.5 562 c 0,25,26
 286.25 565 286.25 565 337 565 c 0,27,28
 452 565 452 565 496 542 c 1,29,30
 544 565 544 565 668 565 c 0,31,32
 770.25 565 770.25 565 799.5 552 c 0,33,34
 845.142857143 531.714285714 845.142857143 531.714285714 858.5 505 c 0,35,36
 880 462 880 462 880 413.5 c 128,-1,37
 880 365 880 365 873.5 338.5 c 128,-1,38
 867 312 867 312 858.5 295 c 128,-1,39
 850 278 850 278 831.5 266 c 128,-1,40
 813 254 813 254 799.5 248 c 128,-1,41
 786 242 786 242 759 239 c 0,42,43
 723 235 723 235 668 235 c 2,44,-1
 587 235 l 1,45,-1
 587 60 l 1,0,-1
250 490 m 1,46,-1
 250 60 l 1,47,-1
 428 60 l 1,48,49
 397 105 397 105 397 184 c 2,50,-1
 397 314 l 2,51,52
 397 432 397 432 436 490 c 1,53,-1
 250 490 l 1,46,-1
587 490 m 1,54,-1
 587 310 l 1,55,-1
 724 310 l 1,56,-1
 724 490 l 1,57,-1
 587 490 l 1,54,-1
EndSplineSet
EndChar

StartChar: guilsinglleft
Encoding: 8249 8249 210
Width: 257
Flags: HMW
HStem: 82 21G<160 160> 459 20G<160 160>
LayerCount: 2
Fore
SplineSet
15 324 m 1,0,-1
 160 479 l 1,1,-1
 236 415 l 1,2,-1
 154 281 l 1,3,-1
 237 146 l 1,4,-1
 160 82 l 1,5,-1
 15 238 l 1,6,-1
 15 324 l 1,0,-1
EndSplineSet
EndChar

StartChar: guilsinglright
Encoding: 8250 8250 211
Width: 257
Flags: HMW
HStem: 82 21G<97 97> 459 20G<97 97>
LayerCount: 2
Fore
SplineSet
97 479 m 1,0,-1
 242 324 l 1,1,-1
 242 238 l 1,2,-1
 97 82 l 1,3,-1
 20 146 l 1,4,-1
 103 281 l 1,5,-1
 21 415 l 1,6,-1
 97 479 l 1,0,-1
EndSplineSet
EndChar

StartChar: degree
Encoding: 176 176 212
Width: 364
Flags: HMW
HStem: 431 82<158 206 158 243.5> 629 82<158 206>
LayerCount: 2
Fore
SplineSet
182 711 m 128,-1,1
 271 711 271 711 300 681 c 128,-1,2
 329 651 329 651 329 571 c 128,-1,3
 329 491 329 491 300 461 c 128,-1,4
 271 431 271 431 182 431 c 128,-1,5
 93 431 93 431 64 461 c 128,-1,6
 35 491 35 491 35 571 c 128,-1,7
 35 651 35 651 64 681 c 128,-1,0
 93 711 93 711 182 711 c 128,-1,1
182 629 m 128,-1,9
 145 629 145 629 135.5 619.5 c 128,-1,10
 126 610 126 610 126 570.5 c 0,11,12
 126 531 126 531 135.5 522 c 128,-1,13
 145 513 145 513 182 513 c 128,-1,14
 219 513 219 513 228.5 522 c 128,-1,15
 238 531 238 531 238 570.5 c 0,16,17
 238 610 238 610 228.5 619.5 c 128,-1,8
 219 629 219 629 182 629 c 128,-1,9
EndSplineSet
EndChar

StartChar: bar
Encoding: 124 124 213
Width: 254
Flags: HMW
HStem: -50 21G<100 100 100 154> 664 20G<100 154 154 154>
LayerCount: 2
Fore
SplineSet
100 -50 m 1,0,-1
 100 684 l 1,1,-1
 154 684 l 1,2,-1
 154 -50 l 1,3,-1
 100 -50 l 1,0,-1
EndSplineSet
EndChar

StartChar: zeroinferior
Encoding: 8320 8320 214
Width: 422
Flags: HMW
HStem: -6 21G<166 243> 382 20G<179.5 256.5>
LayerCount: 2
Fore
SplineSet
381 240 m 2,0,-1
 381 156 l 2,1,2
 381 109 381 109 369 77 c 128,-1,3
 357 45 357 45 342.5 29 c 128,-1,4
 328 13 328 13 299.5 4.5 c 128,-1,5
 271 -4 271 -4 253.5 -5 c 128,-1,6
 236 -6 236 -6 204.5 -6 c 128,-1,7
 173 -6 173 -6 157 -5 c 128,-1,8
 141 -4 141 -4 115 4.5 c 128,-1,9
 89 13 89 13 75.5 29 c 0,10,11
 41 69.8888888889 41 69.8888888889 41 156 c 2,12,-1
 41 240 l 2,13,14
 41 287 41 287 53 319 c 128,-1,15
 65 351 65 351 80 367 c 128,-1,16
 95 383 95 383 123.5 391.5 c 128,-1,17
 152 400 152 400 169.5 401 c 128,-1,18
 187 402 187 402 218.5 402 c 128,-1,19
 250 402 250 402 266 401 c 128,-1,20
 282 400 282 400 307.5 391.5 c 128,-1,21
 333 383 333 383 346.5 367 c 0,22,23
 381 326.111111111 381 326.111111111 381 240 c 2,0,-1
167 31 m 1,24,-1
 225 31 l 1,25,-1
 259 363 l 1,26,-1
 201 363 l 1,27,-1
 167 31 l 1,24,-1
EndSplineSet
EndChar

StartChar: oneinferior
Encoding: 8321 8321 215
Width: 278
Flags: HMW
HStem: 0 21G<56 228 56 56> 383 20G<176 228 228 228>
VStem: 56 172<0 220 220 220>
LayerCount: 2
Fore
SplineSet
228 0 m 1,0,-1
 56 0 l 1,1,-1
 56 220 l 1,2,-1
 137 241 l 1,3,-1
 137 265 l 1,4,-1
 16 265 l 1,5,-1
 0 348 l 1,6,-1
 176 403 l 1,7,-1
 228 403 l 1,8,-1
 228 0 l 1,0,-1
EndSplineSet
EndChar

StartChar: twoinferior
Encoding: 8322 8322 216
Width: 381
Flags: HMW
HStem: 0 21G<37 37 37 356> 386 20G
LayerCount: 2
Fore
SplineSet
37 0 m 1,0,-1
 27 25 l 1,1,-1
 227 363 l 1,2,-1
 180 363 l 1,3,-1
 117 256 l 1,4,-1
 63 256 l 1,5,-1
 51 386 l 1,6,7
 131 406 131 406 173 406 c 128,-1,8
 215 406 215 406 239 403 c 128,-1,9
 263 400 263 400 288 391 c 0,10,11
 340 372.28 340 372.28 340 316.64 c 128,-1,12
 340 261 340 261 276 158 c 2,13,-1
 204 44 l 1,14,-1
 253 44 l 1,15,-1
 314 140 l 1,16,-1
 345 140 l 1,17,-1
 356 0 l 1,18,-1
 37 0 l 1,0,-1
EndSplineSet
EndChar

StartChar: threeinferior
Encoding: 8323 8323 217
Width: 384
Flags: HMW
HStem: -10 21G<157 238> 386 20G
LayerCount: 2
Fore
SplineSet
184 406 m 0,0,1
 337 406 337 406 337 306 c 0,2,3
 337 222 337 222 260 207 c 1,4,-1
 260 203 l 1,5,6
 301 197 301 197 322 175 c 128,-1,7
 343 153 343 153 343 105 c 0,8,9
 343 -10 343 -10 182 -10 c 0,10,11
 117 -10 117 -10 35 10 c 1,12,-1
 46 140 l 1,13,-1
 101 140 l 1,14,-1
 163 33 l 1,15,-1
 218 33 l 1,16,-1
 132 180 l 1,17,-1
 102 180 l 1,18,-1
 102 216 l 1,19,-1
 140 216 l 1,20,-1
 226 363 l 1,21,-1
 171 363 l 1,22,-1
 109 256 l 1,23,-1
 55 256 l 1,24,-1
 43 386 l 1,25,26
 121 406 121 406 184 406 c 0,0,1
EndSplineSet
EndChar

StartChar: fourinferior
Encoding: 8324 8324 218
Width: 371
Flags: HMW
HStem: 0 21G<154 316 154 154> 76 44<76 154 76 154> 376 20G<92 316 316 316>
VStem: 154 162<0 76 0 76 131 356 356 356>
LayerCount: 2
Fore
SplineSet
0 76 m 1,0,-1
 0 116 l 1,1,-1
 92 396 l 1,2,-1
 316 396 l 1,3,-1
 316 131 l 1,4,-1
 351 131 l 1,5,-1
 351 76 l 1,6,-1
 316 76 l 1,7,-1
 316 0 l 1,8,-1
 154 0 l 1,9,-1
 154 76 l 1,10,-1
 0 76 l 1,0,-1
118 356 m 1,11,-1
 76 120 l 1,12,-1
 154 120 l 1,13,-1
 154 356 l 1,14,-1
 118 356 l 1,11,-1
EndSplineSet
EndChar

StartChar: onehalf
Encoding: 189 189 219
Width: 928
Flags: HMW
HStem: -48 21G<320 370 320 320> 0 21G<539 539 539 858> 207 21G<119 291 119 119> 386 20G 590 20G<239 291 291 291> 628 20G<467 518 518 518>
VStem: 119 172<207 427 427 427>
LayerCount: 2
Fore
SplineSet
291 207 m 1,0,-1
 119 207 l 1,1,-1
 119 427 l 1,2,-1
 200 448 l 1,3,-1
 200 472 l 1,4,-1
 79 472 l 1,5,-1
 63 555 l 1,6,-1
 239 610 l 1,7,-1
 291 610 l 1,8,-1
 291 207 l 1,0,-1
370 -48 m 1,9,-1
 320 -48 l 1,10,-1
 467 648 l 1,11,-1
 518 648 l 1,12,-1
 370 -48 l 1,9,-1
539 0 m 1,13,-1
 529 25 l 1,14,-1
 729 363 l 1,15,-1
 682 363 l 1,16,-1
 619 256 l 1,17,-1
 565 256 l 1,18,-1
 553 386 l 1,19,20
 633 406 633 406 675 406 c 128,-1,21
 717 406 717 406 741 403 c 128,-1,22
 765 400 765 400 790 391 c 0,23,24
 842 372.28 842 372.28 842 316.64 c 128,-1,25
 842 261 842 261 778 158 c 2,26,-1
 706 44 l 1,27,-1
 755 44 l 1,28,-1
 816 140 l 1,29,-1
 847 140 l 1,30,-1
 858 0 l 1,31,-1
 539 0 l 1,13,-1
EndSplineSet
EndChar

StartChar: onequarter
Encoding: 188 188 220
Width: 928
Flags: HMW
HStem: -48 21G<333 383 333 333> 0 21G<665 827 665 665> 76 44<587 665 587 665> 207 21G<119 291 119 119> 376 20G<603 827 827 827> 590 20G<239 291 291 291> 628 20G<480 531 531 531>
VStem: 119 172<207 427 427 427> 665 162<0 76 0 76 131 356 356 356>
LayerCount: 2
Fore
SplineSet
291 207 m 1,0,-1
 119 207 l 1,1,-1
 119 427 l 1,2,-1
 200 448 l 1,3,-1
 200 472 l 1,4,-1
 79 472 l 1,5,-1
 63 555 l 1,6,-1
 239 610 l 1,7,-1
 291 610 l 1,8,-1
 291 207 l 1,0,-1
383 -48 m 1,9,-1
 333 -48 l 1,10,-1
 480 648 l 1,11,-1
 531 648 l 1,12,-1
 383 -48 l 1,9,-1
511 76 m 1,13,-1
 511 116 l 1,14,-1
 603 396 l 1,15,-1
 827 396 l 1,16,-1
 827 131 l 1,17,-1
 862 131 l 1,18,-1
 862 76 l 1,19,-1
 827 76 l 1,20,-1
 827 0 l 1,21,-1
 665 0 l 1,22,-1
 665 76 l 1,23,-1
 511 76 l 1,13,-1
629 356 m 1,24,-1
 587 120 l 1,25,-1
 665 120 l 1,26,-1
 665 356 l 1,27,-1
 629 356 l 1,24,-1
EndSplineSet
EndChar

StartChar: twosuperior
Encoding: 178 178 221
Width: 381
Flags: HMW
HStem: 307 21G<37 37 37 356> 693 20G
LayerCount: 2
Fore
SplineSet
37 307 m 1,0,-1
 27 332 l 1,1,-1
 227 670 l 1,2,-1
 180 670 l 1,3,-1
 117 563 l 1,4,-1
 63 563 l 1,5,-1
 51 693 l 1,6,7
 131 713 131 713 173 713 c 128,-1,8
 215 713 215 713 239 710 c 128,-1,9
 263 707 263 707 288 698 c 0,10,11
 340 679.28 340 679.28 340 623.64 c 128,-1,12
 340 568 340 568 276 465 c 2,13,-1
 204 351 l 1,14,-1
 253 351 l 1,15,-1
 314 447 l 1,16,-1
 345 447 l 1,17,-1
 356 307 l 1,18,-1
 37 307 l 1,0,-1
EndSplineSet
EndChar

StartChar: onesuperior
Encoding: 185 185 222
Width: 278
Flags: HMW
HStem: 307 21G<56 228 56 56> 690 20G<176 228 228 228>
VStem: 56 172<307 527 527 527>
LayerCount: 2
Fore
SplineSet
228 307 m 1,0,-1
 56 307 l 1,1,-1
 56 527 l 1,2,-1
 137 548 l 1,3,-1
 137 572 l 1,4,-1
 16 572 l 1,5,-1
 0 655 l 1,6,-1
 176 710 l 1,7,-1
 228 710 l 1,8,-1
 228 307 l 1,0,-1
EndSplineSet
EndChar

StartChar: brokenbar
Encoding: 166 166 223
Width: 254
Flags: HMW
HStem: -50 21G<100 100 100 154> 664 20G<100 154 154 154>
LayerCount: 2
Fore
SplineSet
100 -50 m 1,0,-1
 100 229 l 1,1,-1
 154 229 l 1,2,-1
 154 -50 l 1,3,-1
 100 -50 l 1,0,-1
100 405 m 1,4,-1
 100 684 l 1,5,-1
 154 684 l 1,6,-1
 154 405 l 1,7,-1
 100 405 l 1,4,-1
EndSplineSet
EndChar

StartChar: currency
Encoding: 164 164 224
Width: 575
Flags: HMW
HStem: 46 21G<56 56 518 518> 536 20G<56 56 518 518>
LayerCount: 2
Fore
SplineSet
56 556 m 1,0,-1
 131 481 l 1,1,2
 179 510 179 510 286.5 510 c 0,3,4
 394 510 394 510 443 481 c 1,5,-1
 518 556 l 1,6,-1
 542 532 l 1,7,-1
 469 459 l 1,8,9
 507 416 507 416 507 301.5 c 0,10,11
 507 187 507 187 469 142 c 1,12,-1
 542 70 l 1,13,-1
 518 46 l 1,14,-1
 443 121 l 1,15,16
 394 92 394 92 286.5 92 c 0,17,18
 179 92 179 92 131 121 c 1,19,-1
 56 46 l 1,20,-1
 32 70 l 1,21,-1
 104 142 l 1,22,23
 67 185 67 185 67 301 c 128,-1,24
 67 417 67 417 104 459 c 1,25,-1
 32 532 l 1,26,-1
 56 556 l 1,0,-1
287 387 m 128,-1,28
 232 387 232 387 217.5 373 c 128,-1,29
 203 359 203 359 203 300 c 0,30,31
 203 241 203 241 217 228 c 128,-1,32
 231 215 231 215 287 215 c 128,-1,33
 343 215 343 215 357 228 c 128,-1,34
 371 241 371 241 371 300 c 0,35,36
 371 359 371 359 356.5 373 c 128,-1,27
 342 387 342 387 287 387 c 128,-1,28
EndSplineSet
EndChar

StartChar: threesuperior
Encoding: 179 179 225
Width: 384
Flags: HMW
HStem: 297 21G<157 238> 693 20G
LayerCount: 2
Fore
SplineSet
184 713 m 0,0,1
 337 713 337 713 337 613 c 0,2,3
 337 529 337 529 260 514 c 1,4,-1
 260 510 l 1,5,6
 301 504 301 504 322 482 c 128,-1,7
 343 460 343 460 343 412 c 0,8,9
 343 297 343 297 182 297 c 0,10,11
 117 297 117 297 35 317 c 1,12,-1
 46 447 l 1,13,-1
 101 447 l 1,14,-1
 163 340 l 1,15,-1
 218 340 l 1,16,-1
 132 487 l 1,17,-1
 102 487 l 1,18,-1
 102 523 l 1,19,-1
 140 523 l 1,20,-1
 226 670 l 1,21,-1
 171 670 l 1,22,-1
 109 563 l 1,23,-1
 55 563 l 1,24,-1
 43 693 l 1,25,26
 121 713 121 713 184 713 c 0,0,1
EndSplineSet
EndChar

StartChar: threequarters
Encoding: 190 190 226
Width: 928
Flags: HMW
HStem: -48 21G<355 405 355 355> 0 21G<665 827 665 665> 76 44<587 665 587 665> 197 21G<182 263> 376 20G<603 827 827 827> 593 20G 628 20G<502 553 553 553>
VStem: 665 162<0 76 0 76 131 356 356 356>
LayerCount: 2
Fore
SplineSet
209 613 m 0,0,1
 362 613 362 613 362 513 c 0,2,3
 362 429 362 429 285 414 c 1,4,-1
 285 410 l 1,5,6
 326 404 326 404 347 382 c 128,-1,7
 368 360 368 360 368 312 c 0,8,9
 368 197 368 197 207 197 c 0,10,11
 142 197 142 197 60 217 c 1,12,-1
 71 347 l 1,13,-1
 126 347 l 1,14,-1
 188 240 l 1,15,-1
 243 240 l 1,16,-1
 157 387 l 1,17,-1
 127 387 l 1,18,-1
 127 423 l 1,19,-1
 165 423 l 1,20,-1
 251 570 l 1,21,-1
 196 570 l 1,22,-1
 134 463 l 1,23,-1
 80 463 l 1,24,-1
 68 593 l 1,25,26
 146 613 146 613 209 613 c 0,0,1
405 -48 m 1,27,-1
 355 -48 l 1,28,-1
 502 648 l 1,29,-1
 553 648 l 1,30,-1
 405 -48 l 1,27,-1
511 76 m 1,31,-1
 511 116 l 1,32,-1
 603 396 l 1,33,-1
 827 396 l 1,34,-1
 827 131 l 1,35,-1
 862 131 l 1,36,-1
 862 76 l 1,37,-1
 827 76 l 1,38,-1
 827 0 l 1,39,-1
 665 0 l 1,40,-1
 665 76 l 1,41,-1
 511 76 l 1,31,-1
629 356 m 1,42,-1
 587 120 l 1,43,-1
 665 120 l 1,44,-1
 665 356 l 1,45,-1
 629 356 l 1,42,-1
EndSplineSet
EndChar

